<svg width="48" height="49" viewBox="0 0 48 49" fill="none" xmlns="http://www.w3.org/2000/svg">
<path d="M29 22H17C16.18 22 15.5 21.32 15.5 20.5C15.5 19.68 16.18 19 17 19H29C29.82 19 30.5 19.68 30.5 20.5C30.5 21.32 29.82 22 29 22Z" fill="#31D2AC"/>
<path d="M23 28H17C16.18 28 15.5 27.32 15.5 26.5C15.5 25.68 16.18 25 17 25H23C23.82 25 24.5 25.68 24.5 26.5C24.5 27.32 23.82 28 23 28Z" fill="#31D2AC"/>
<path opacity="0.4" d="M23 42.5C33.4934 42.5 42 33.9934 42 23.5C42 13.0066 33.4934 4.5 23 4.5C12.5066 4.5 4 13.0066 4 23.5C4 33.9934 12.5066 42.5 23 42.5Z" fill="#31D2AC"/>
<path d="M42.6 44.5001C42.24 44.5001 41.88 44.3601 41.62 44.1001L37.9 40.3801C37.36 39.8401 37.36 38.9601 37.9 38.4001C38.44 37.8601 39.32 37.8601 39.88 38.4001L43.6 42.1201C44.14 42.6601 44.14 43.5401 43.6 44.1001C43.32 44.3601 42.96 44.5001 42.6 44.5001Z" fill="#31D2AC"/>
</svg>
