<svg width="56" height="56" viewBox="0 0 56 56" fill="none" xmlns="http://www.w3.org/2000/svg">
<path opacity="0.4" d="M46.9677 6.92468V32.4258C46.9677 36.4301 44.8602 38.5376 40.8559 38.5376H15.144C11.1397 38.5376 9.03223 36.4301 9.03223 32.4258V6.92468H46.9677Z" fill="#FFD02C"/>
<path d="M49.0759 8.50535H6.92537C6.06129 8.50535 5.34473 7.78879 5.34473 6.9247C5.34473 6.06061 6.06129 5.34406 6.92537 5.34406H49.0759C49.94 5.34406 50.6566 6.06061 50.6566 6.9247C50.6566 7.78879 49.94 8.50535 49.0759 8.50535Z" fill="#FFD02C"/>
<path d="M37.842 49.7918C37.568 50.3397 36.9989 50.6559 36.4299 50.6559C36.1981 50.6559 35.9452 50.5927 35.7345 50.4873L27.9998 46.6305L20.2652 50.4873C20.0544 50.5927 19.8015 50.6559 19.5697 50.6559C19.0007 50.6559 18.4316 50.3397 18.1576 49.7918C17.7572 48.9909 18.0734 48.0425 18.8742 47.6632L26.4192 43.8907V38.5376H29.5804V43.8907L37.1254 47.6632C37.9262 48.0425 38.2424 48.9909 37.842 49.7918Z" fill="#FFD02C"/>
<path d="M18.5166 27.4731C18.074 27.4731 17.6104 27.2834 17.2942 26.9041C16.7252 26.2297 16.8305 25.2391 17.5049 24.6701L24.1437 19.1273C24.7549 18.6215 25.5346 18.4107 26.2722 18.5372C27.031 18.6636 27.6843 19.1272 28.0848 19.8016L30.2976 23.4898L36.4727 18.3475C37.1471 17.7785 38.1376 17.8838 38.7066 18.5582C39.2757 19.2326 39.1704 20.2232 38.4959 20.7922L31.8572 26.335C31.246 26.8408 30.4663 27.0515 29.7286 26.9251C28.9699 26.7986 28.3165 26.335 27.9161 25.6606L25.7032 21.9725L19.5282 27.1148C19.2331 27.3466 18.8748 27.4731 18.5166 27.4731Z" fill="#FFD02C"/>
</svg>
