<svg width="56" height="56" viewBox="0 0 56 56" fill="none" xmlns="http://www.w3.org/2000/svg">
<path opacity="0.4" d="M20.2303 32.6667H9.33366C6.76699 32.6667 4.66699 34.7667 4.66699 37.3334V51.3334H20.2303V32.6667Z" fill="white"/>
<path d="M31.1037 23.3333H24.8737C22.307 23.3333 20.207 25.4333 20.207 28V51.3333H35.7704V28C35.7704 25.4333 33.6937 23.3333 31.1037 23.3333Z" fill="white"/>
<path opacity="0.4" d="M46.6662 39.6667H35.7695V51.3334H51.3329V44.3334C51.3329 41.7667 49.2329 39.6667 46.6662 39.6667Z" fill="white"/>
<path d="M35.0229 11.3167C35.7463 10.5933 36.0263 9.73 35.7929 8.98334C35.5596 8.23667 34.8363 7.70001 33.8096 7.53668L31.5696 7.16334C31.4763 7.14001 31.2663 6.99997 31.2196 6.90664L29.9829 4.43331C29.0496 2.54331 26.9263 2.54331 25.9929 4.43331L24.7563 6.90664C24.7096 6.99997 24.4996 7.14001 24.4063 7.16334L22.1663 7.53668C21.1396 7.70001 20.4396 8.23667 20.1829 8.98334C19.9496 9.73 20.2296 10.5933 20.9529 11.3167L22.6796 13.0667C22.7496 13.1367 22.8429 13.4167 22.8196 13.51L22.3296 15.6566C21.9563 17.2433 22.5629 17.9666 22.9596 18.27C23.3563 18.55 24.2196 18.9233 25.6429 18.0833L27.7429 16.8467C27.8363 16.7767 28.1396 16.7767 28.2329 16.8467L30.3329 18.0833C30.9863 18.48 31.5229 18.5967 31.9429 18.5967C32.4329 18.5967 32.7829 18.41 32.9929 18.27C33.3896 17.99 33.9963 17.2666 33.6229 15.6566L33.1329 13.51C33.1096 13.3933 33.1796 13.1367 33.2729 13.0667L35.0229 11.3167Z" fill="white"/>
</svg>
