<svg width="48" height="49" viewBox="0 0 48 49" fill="none" xmlns="http://www.w3.org/2000/svg">
<path d="M43.34 14.4001C42.06 10.0601 38.44 6.44005 34.1 5.16005C30.8 4.20005 28.52 4.28005 26.94 5.46005C25.04 6.88005 24.82 9.44005 24.82 11.2601V16.2401C24.82 21.1601 27.06 23.6601 31.46 23.6601H37.2C39 23.6601 41.58 23.4401 43 21.5401C44.22 19.9801 44.32 17.7001 43.34 14.4001Z" fill="#B04AFF"/>
<path opacity="0.4" d="M37.82 27.2201C37.3 26.6201 36.54 26.2801 35.76 26.2801H28.6C25.08 26.2801 22.22 23.4201 22.22 19.9001V12.7401C22.22 11.9601 21.88 11.2001 21.28 10.6801C20.7 10.1601 19.9 9.92006 19.14 10.0201C14.44 10.6201 10.12 13.2001 7.29998 17.0801C4.45998 20.9801 3.41998 25.7401 4.31998 30.5001C5.61998 37.3801 11.12 42.8801 18.02 44.1801C19.12 44.4001 20.22 44.5001 21.32 44.5001C24.94 44.5001 28.44 43.3801 31.42 41.2001C35.3 38.3801 37.88 34.0601 38.48 29.3601C38.58 28.5801 38.34 27.8001 37.82 27.2201Z" fill="#B04AFF"/>
</svg>
