<svg width="56" height="56" viewBox="0 0 56 56" fill="none" xmlns="http://www.w3.org/2000/svg">
<path d="M45.5003 18.6667C48.722 18.6667 51.3337 16.055 51.3337 12.8333C51.3337 9.61167 48.722 7 45.5003 7C42.2787 7 39.667 9.61167 39.667 12.8333C39.667 16.055 42.2787 18.6667 45.5003 18.6667Z" fill="#FF3A3A"/>
<path d="M45.5003 18.6667C48.722 18.6667 51.3337 16.055 51.3337 12.8333C51.3337 9.61167 48.722 7 45.5003 7C42.2787 7 39.667 9.61167 39.667 12.8333C39.667 16.055 42.2787 18.6667 45.5003 18.6667Z" fill="#FF3A3A"/>
<path opacity="0.4" d="M48.347 21.7233C49.817 21.2567 51.3337 22.4 51.3337 23.9634V36.19C51.3337 44.3567 46.667 47.8567 39.667 47.8567H16.3337C9.33366 47.8567 4.66699 44.3567 4.66699 36.19V19.8567C4.66699 11.69 9.33366 8.19 16.3337 8.19H34.0903C35.607 8.19 36.6336 9.59003 36.3536 11.06C36.0736 12.4367 36.1203 13.9067 36.5403 15.4234C37.4037 18.55 39.947 21.0467 43.0736 21.8633C44.917 22.33 46.7137 22.2367 48.347 21.7233Z" fill="#FF3A3A"/>
<path d="M28.0001 30.03C26.0401 30.03 24.0568 29.4234 22.5401 28.1867L15.2368 22.3534C14.4901 21.7467 14.3501 20.65 14.9568 19.9034C15.5635 19.1567 16.6601 19.0167 17.4068 19.6234L24.7101 25.4567C26.4835 26.88 29.4935 26.88 31.2668 25.4567L34.0201 23.2634C34.7668 22.6567 35.8868 22.7734 36.4701 23.5434C37.0768 24.29 36.9602 25.41 36.1902 25.9934L33.4368 28.1867C31.9434 29.4234 29.9601 30.03 28.0001 30.03Z" fill="#FF3A3A"/>
</svg>
