<svg version="1.2" xmlns="http://www.w3.org/2000/svg" viewBox="0 0 55 55" width="55" height="55">
	<title>New Project</title>
	<defs>
		<linearGradient id="g1" x1="23.1" y1="8.3" x2="23.1" y2="54.4" gradientUnits="userSpaceOnUse">
			<stop offset="0" stop-color="#806bff" stop-opacity="1"/>
			<stop offset="1" stop-color="#806bff" stop-opacity="0"/>
		</linearGradient>
		<linearGradient id="g2" x1="32.3" y1="-0.5" x2="32.3" y2="45.7" gradientUnits="userSpaceOnUse">
			<stop offset="0" stop-color="#806bff" stop-opacity="0"/>
			<stop offset="1" stop-color="#806bff" stop-opacity="1"/>
		</linearGradient>
	</defs>
	<style>
		.s0 { fill: url(#g1) } 
		.s1 { fill: url(#g2) } 
	</style>
	<path id="Layer" class="s0" d="m33 11.2v10.2c0 0.4-0.5 0.7-0.9 0.4l-19.4-13.1c-1.8-1.2-4.3 0.1-4.3 2.3v32c0 1.9 0.5 3.8 1.4 5.5q1.8 3.4 5.6 5c2.5 1 5.5 1.2 8.2 0.5 5.2-1.4 7.6-5.5 7.9-11.6 0-2.5-4.3-3-4.8 0q-0.4 5.7-4.4 6.9c-1.5 0.5-3.1 0.4-4.6-0.2q-2.8-1-3.9-3.4c-0.4-0.9-0.5-1.8-0.5-2.8v-26.2c0-0.7 0.7-1.1 1.3-0.7l19.7 12.9c1.5 1 3.5-0.1 3.5-1.9v-15.9c0-2.8-4.8-3.8-4.8 0.1z"/>
	<path id="Layer" class="s1" d="m22.4 42.7v-10.1c0-0.5 0.5-0.7 0.9-0.5l19.4 13.1c1.8 1.2 4.2-0.1 4.2-2.3v-31.9c0-2-0.4-3.9-1.3-5.6q-1.8-3.3-5.6-4.9c-2.6-1.1-5.5-1.3-8.2-0.6-5.2 1.4-7.6 5.5-8 11.7 0 2.4 4.4 2.9 4.9 0q0.4-5.7 4.4-7c1.5-0.4 3.1-0.3 4.6 0.2q2.8 1 3.9 3.5c0.4 0.8 0.5 1.8 0.5 2.7v26.2c0 0.7-0.7 1.1-1.3 0.8l-19.7-13c-1.5-0.9-3.5 0.1-3.5 2v15.8c0 2.9 4.8 3.8 4.8-0.1z"/>
</svg>