<svg width="56" height="56" viewBox="0 0 56 56" fill="none" xmlns="http://www.w3.org/2000/svg">
<path d="M53.0837 40.8333C53.0837 41.79 52.2903 42.5833 51.3337 42.5833H35.0003V43.1666C35.0003 46.6666 32.9003 47.8333 30.3337 47.8333H16.3337C13.767 47.8333 11.667 46.6666 11.667 43.1666V42.5833H4.66699C3.71033 42.5833 2.91699 41.79 2.91699 40.8333C2.91699 39.8766 3.71033 39.0833 4.66699 39.0833H11.667V38.5C11.667 35 13.767 33.8333 16.3337 33.8333H30.3337C32.9003 33.8333 35.0003 35 35.0003 38.5V39.0833H51.3337C52.2903 39.0833 53.0837 39.8766 53.0837 40.8333Z" fill="#FF3AC8"/>
<path opacity="0.4" d="M53.0837 15.1667C53.0837 16.1234 52.2903 16.9167 51.3337 16.9167H44.3337V17.5C44.3337 21 42.2337 22.1667 39.667 22.1667H25.667C23.1003 22.1667 21.0003 21 21.0003 17.5V16.9167H4.66699C3.71033 16.9167 2.91699 16.1234 2.91699 15.1667C2.91699 14.21 3.71033 13.4167 4.66699 13.4167H21.0003V12.8334C21.0003 9.33335 23.1003 8.16669 25.667 8.16669H39.667C42.2337 8.16669 44.3337 9.33335 44.3337 12.8334V13.4167H51.3337C52.2903 13.4167 53.0837 14.21 53.0837 15.1667Z" fill="#FF3AC8"/>
</svg>
