<svg width="574" height="264" viewBox="0 0 574 264" fill="none" xmlns="http://www.w3.org/2000/svg">
<path d="M571 3H269.31C241.695 3 219.31 25.3858 219.31 53V211C219.31 238.614 196.924 261 169.31 261H3" stroke="url(#paint0_radial_105_169)" stroke-width="6" stroke-linecap="round"/>
<g filter="url(#filter0_d_105_169)">
<path d="M324.559 87H109.151C104.809 87 101.289 90.5428 101.289 94.913V159.8C101.289 164.17 104.809 167.713 109.151 167.713H324.559C328.901 167.713 332.421 164.17 332.421 159.8V94.913C332.421 90.5428 328.901 87 324.559 87Z" fill="white"/>
</g>
<path d="M134.13 132.102L136.821 128.329L137.438 128.139C137.337 128.333 137.22 128.506 137.086 128.658C136.96 128.802 136.796 128.912 136.595 128.988C136.394 129.064 136.13 129.101 135.803 129.101C135.283 129.101 134.805 128.979 134.369 128.734C133.941 128.481 133.597 128.135 133.337 127.696C133.077 127.257 132.947 126.755 132.947 126.189C132.947 125.616 133.09 125.092 133.375 124.62C133.66 124.138 134.046 123.759 134.532 123.48C135.019 123.202 135.559 123.062 136.155 123.062C136.759 123.062 137.299 123.202 137.777 123.48C138.264 123.759 138.645 124.13 138.922 124.594C139.207 125.058 139.35 125.578 139.35 126.152C139.35 126.936 139.077 127.73 138.532 128.532L136.079 132.102H134.13ZM136.155 127.785C136.448 127.785 136.708 127.717 136.935 127.582C137.161 127.447 137.337 127.261 137.463 127.025C137.597 126.78 137.664 126.51 137.664 126.215C137.664 125.902 137.597 125.628 137.463 125.392C137.337 125.155 137.161 124.97 136.935 124.835C136.708 124.691 136.448 124.62 136.155 124.62C135.861 124.62 135.597 124.691 135.362 124.835C135.136 124.97 134.956 125.155 134.821 125.392C134.696 125.628 134.633 125.902 134.633 126.215C134.633 126.519 134.696 126.789 134.821 127.025C134.956 127.261 135.14 127.447 135.375 127.582C135.61 127.717 135.87 127.785 136.155 127.785ZM143.908 132.229C143.212 132.229 142.583 132.039 142.021 131.659C141.459 131.279 141.01 130.743 140.675 130.051C140.348 129.359 140.184 128.553 140.184 127.633C140.184 126.713 140.348 125.911 140.675 125.227C141.002 124.544 141.442 124.012 141.996 123.632C142.558 123.252 143.182 123.062 143.87 123.062C144.574 123.062 145.203 123.252 145.757 123.632C146.319 124.012 146.763 124.548 147.09 125.24C147.417 125.924 147.581 126.73 147.581 127.658C147.581 128.578 147.417 129.384 147.09 130.076C146.763 130.76 146.323 131.292 145.769 131.672C145.216 132.043 144.595 132.229 143.908 132.229ZM143.883 130.671C144.285 130.671 144.633 130.557 144.927 130.33C145.22 130.102 145.447 129.764 145.606 129.317C145.774 128.869 145.857 128.312 145.857 127.645C145.857 126.979 145.774 126.422 145.606 125.974C145.447 125.527 145.216 125.193 144.914 124.974C144.621 124.746 144.273 124.632 143.87 124.632C143.476 124.632 143.132 124.746 142.839 124.974C142.545 125.193 142.314 125.527 142.147 125.974C141.987 126.413 141.908 126.966 141.908 127.633C141.908 128.308 141.987 128.869 142.147 129.317C142.314 129.764 142.545 130.102 142.839 130.33C143.132 130.557 143.48 130.671 143.883 130.671ZM150.312 126.734C149.985 126.734 149.679 126.654 149.394 126.493C149.117 126.325 148.899 126.101 148.74 125.822C148.581 125.544 148.501 125.236 148.501 124.898C148.501 124.552 148.581 124.244 148.74 123.974C148.899 123.704 149.117 123.489 149.394 123.328C149.671 123.159 149.977 123.075 150.312 123.075C150.656 123.075 150.966 123.159 151.243 123.328C151.528 123.489 151.75 123.704 151.91 123.974C152.069 124.244 152.149 124.552 152.149 124.898C152.149 125.236 152.065 125.544 151.897 125.822C151.738 126.101 151.52 126.325 151.243 126.493C150.975 126.654 150.664 126.734 150.312 126.734ZM150.312 125.531C150.505 125.531 150.656 125.472 150.765 125.354C150.874 125.236 150.929 125.084 150.929 124.898C150.929 124.712 150.87 124.56 150.752 124.442C150.643 124.324 150.497 124.265 150.312 124.265C150.136 124.265 149.994 124.324 149.885 124.442C149.776 124.56 149.721 124.712 149.721 124.898C149.721 125.084 149.776 125.236 149.885 125.354C149.994 125.472 150.136 125.531 150.312 125.531ZM154.186 132.229C153.851 132.229 153.545 132.149 153.268 131.988C152.991 131.819 152.769 131.6 152.602 131.33C152.442 131.051 152.363 130.739 152.363 130.393C152.363 130.047 152.442 129.739 152.602 129.469C152.769 129.199 152.987 128.983 153.256 128.823C153.532 128.654 153.843 128.57 154.186 128.57C154.53 128.57 154.841 128.654 155.117 128.823C155.394 128.983 155.612 129.199 155.771 129.469C155.939 129.739 156.023 130.047 156.023 130.393C156.023 130.739 155.939 131.051 155.771 131.33C155.612 131.6 155.394 131.819 155.117 131.988C154.849 132.149 154.539 132.229 154.186 132.229ZM154.186 131.026C154.371 131.026 154.522 130.967 154.639 130.849C154.757 130.731 154.815 130.579 154.815 130.393C154.815 130.216 154.752 130.068 154.627 129.95C154.509 129.832 154.363 129.773 154.186 129.773C154.01 129.773 153.864 129.832 153.746 129.95C153.637 130.068 153.583 130.216 153.583 130.393C153.583 130.579 153.637 130.731 153.746 130.849C153.864 130.967 154.01 131.026 154.186 131.026ZM148.74 132.102L154.224 123.202H155.784L150.3 132.102H148.74Z" fill="#1D1D1D"/>
<path d="M172.045 127.356C172.045 142.652 159.726 155.052 144.529 155.052C129.333 155.052 117.014 142.652 117.014 127.356C117.014 112.06 129.333 99.6602 144.529 99.6602C159.726 99.6602 172.045 112.06 172.045 127.356ZM122.517 127.356C122.517 139.593 132.372 149.512 144.529 149.512C156.687 149.512 166.542 139.593 166.542 127.356C166.542 115.119 156.687 105.199 144.529 105.199C132.372 105.199 122.517 115.119 122.517 127.356Z" fill="#E7E7E7"/>
<path d="M163.5 143.378C164.664 144.361 164.825 146.12 163.737 147.188C159.997 150.857 155.282 153.393 150.133 154.471C144.082 155.738 137.783 154.918 132.252 152.142C126.721 149.366 122.279 144.797 119.643 139.17C117.006 133.543 116.329 127.187 117.719 121.126C119.109 115.064 122.487 109.65 127.307 105.756C132.127 101.863 138.109 99.7156 144.289 99.6613C150.47 99.607 156.488 101.649 161.375 105.457C165.534 108.698 168.667 113.059 170.43 118.006C170.943 119.446 170.032 120.956 168.558 121.326C167.083 121.696 165.606 120.784 165.058 119.357C163.618 115.613 161.187 112.316 158.006 109.837C154.096 106.79 149.282 105.157 144.337 105.2C139.393 105.244 134.607 106.961 130.751 110.076C126.895 113.191 124.193 117.523 123.081 122.372C121.969 127.221 122.511 132.306 124.62 136.807C126.729 141.308 130.282 144.964 134.707 147.185C139.132 149.405 144.171 150.062 149.012 149.048C152.951 148.224 156.572 146.333 159.496 143.603C160.611 142.563 162.336 142.395 163.5 143.378Z" fill="#31D2AC"/>
<path d="M193.192 121.027V112.24H194.362V121.027H193.192ZM191.406 113.304V112.24H194.236V113.304H191.406ZM198.836 121.154C198.258 121.154 197.746 121.044 197.302 120.824C196.865 120.605 196.526 120.301 196.283 119.913C196.039 119.524 195.918 119.086 195.918 118.596C195.918 118.199 195.994 117.836 196.144 117.507C196.295 117.178 196.517 116.899 196.811 116.672C197.104 116.435 197.448 116.266 197.843 116.165L197.88 116.507C197.545 116.414 197.259 116.266 197.025 116.064C196.79 115.853 196.61 115.608 196.484 115.33C196.366 115.043 196.308 114.739 196.308 114.418C196.308 113.962 196.416 113.561 196.635 113.215C196.853 112.869 197.151 112.599 197.528 112.405C197.913 112.202 198.35 112.101 198.836 112.101C199.331 112.101 199.767 112.202 200.144 112.405C200.522 112.599 200.819 112.869 201.038 113.215C201.255 113.561 201.365 113.962 201.365 114.418C201.365 114.739 201.302 115.043 201.176 115.33C201.058 115.608 200.882 115.853 200.648 116.064C200.421 116.266 200.14 116.414 199.805 116.507L199.83 116.165C200.233 116.266 200.576 116.435 200.861 116.672C201.155 116.899 201.377 117.178 201.528 117.507C201.687 117.836 201.767 118.199 201.767 118.596C201.767 119.086 201.645 119.524 201.402 119.913C201.159 120.301 200.815 120.605 200.371 120.824C199.935 121.044 199.423 121.154 198.836 121.154ZM198.836 120.077C199.188 120.077 199.494 120.01 199.755 119.875C200.023 119.731 200.233 119.537 200.383 119.292C200.542 119.048 200.622 118.765 200.622 118.444C200.622 118.132 200.542 117.853 200.383 117.609C200.233 117.364 200.023 117.174 199.755 117.039C199.494 116.895 199.188 116.824 198.836 116.824C198.492 116.824 198.186 116.895 197.918 117.039C197.649 117.174 197.435 117.364 197.277 117.609C197.126 117.853 197.05 118.132 197.05 118.444C197.05 118.765 197.126 119.048 197.277 119.292C197.435 119.537 197.649 119.731 197.918 119.875C198.186 120.01 198.492 120.077 198.836 120.077ZM198.836 115.899C199.255 115.899 199.599 115.768 199.868 115.507C200.136 115.245 200.27 114.908 200.27 114.494C200.27 114.089 200.136 113.76 199.868 113.506C199.599 113.245 199.255 113.114 198.836 113.114C198.425 113.114 198.085 113.245 197.817 113.506C197.549 113.76 197.415 114.089 197.415 114.494C197.415 114.908 197.549 115.245 197.817 115.507C198.085 115.768 198.425 115.899 198.836 115.899ZM209.891 121.154C209.278 121.154 208.703 121.04 208.167 120.812C207.639 120.575 207.174 120.25 206.771 119.837C206.376 119.423 206.067 118.942 205.84 118.393C205.614 117.845 205.501 117.254 205.501 116.621C205.501 115.988 205.614 115.401 205.84 114.861C206.067 114.312 206.381 113.831 206.784 113.418C207.186 113.004 207.655 112.683 208.192 112.456C208.737 112.228 209.328 112.114 209.966 112.114C210.662 112.114 211.303 112.249 211.891 112.519C212.477 112.789 212.968 113.177 213.362 113.684L212.545 114.507C212.268 114.101 211.903 113.793 211.45 113.582C210.997 113.363 210.502 113.253 209.966 113.253C209.328 113.253 208.762 113.397 208.268 113.684C207.781 113.971 207.4 114.367 207.123 114.874C206.854 115.38 206.721 115.963 206.721 116.621C206.721 117.288 206.859 117.874 207.136 118.381C207.413 118.887 207.785 119.284 208.255 119.571C208.725 119.858 209.262 120.001 209.865 120.001C210.477 120.001 211.005 119.883 211.45 119.647C211.903 119.411 212.251 119.065 212.494 118.609C212.737 118.144 212.859 117.579 212.859 116.912L213.576 117.431H209.802V116.342H214.079V116.52C214.079 117.541 213.898 118.398 213.538 119.09C213.186 119.774 212.691 120.288 212.054 120.634C211.425 120.98 210.703 121.154 209.891 121.154ZM216.462 121.027V119.989H219.104C219.607 119.989 220.001 119.841 220.286 119.546C220.571 119.242 220.714 118.879 220.714 118.457C220.714 118.17 220.651 117.912 220.525 117.684C220.399 117.448 220.214 117.262 219.972 117.127C219.736 116.992 219.46 116.925 219.141 116.925H216.462V115.887H218.965C219.384 115.887 219.715 115.777 219.959 115.557C220.21 115.33 220.336 115.005 220.336 114.583C220.336 114.161 220.206 113.84 219.946 113.62C219.686 113.392 219.343 113.278 218.915 113.278H216.462V112.24H218.94C219.51 112.24 219.984 112.346 220.361 112.557C220.747 112.759 221.036 113.029 221.229 113.367C221.431 113.705 221.531 114.076 221.531 114.481C221.531 114.954 221.401 115.368 221.141 115.722C220.89 116.077 220.516 116.355 220.022 116.558L220.122 116.178C220.684 116.38 221.12 116.688 221.431 117.102C221.749 117.507 221.909 117.988 221.909 118.545C221.909 119.01 221.795 119.427 221.569 119.799C221.343 120.17 221.016 120.47 220.588 120.698C220.168 120.917 219.652 121.027 219.041 121.027H216.462ZM215.67 121.027V112.24H216.852V121.027H215.67ZM225.268 121.533L228.765 111.747H229.821L226.337 121.533H225.268ZM233.024 120.305L236.244 116.887C236.571 116.549 236.827 116.258 237.012 116.013C237.196 115.76 237.326 115.528 237.402 115.317C237.486 115.106 237.527 114.886 237.527 114.659C237.527 114.211 237.385 113.861 237.1 113.608C236.814 113.354 236.446 113.228 235.993 113.228C235.549 113.228 235.159 113.338 234.823 113.557C234.487 113.768 234.19 114.097 233.93 114.545L233.1 113.848C233.443 113.274 233.858 112.844 234.345 112.557C234.832 112.261 235.393 112.114 236.03 112.114C236.567 112.114 237.033 112.219 237.427 112.43C237.829 112.641 238.14 112.937 238.358 113.316C238.575 113.696 238.685 114.139 238.685 114.646C238.685 115.009 238.638 115.334 238.546 115.621C238.462 115.908 238.307 116.203 238.081 116.507C237.863 116.802 237.556 117.157 237.163 117.571L234.559 120.267L233.024 120.305ZM233.024 121.027V120.305L234.03 119.963H238.886V121.027H233.024ZM243.565 121.154C242.911 121.154 242.312 120.968 241.766 120.596C241.23 120.225 240.802 119.702 240.483 119.027C240.165 118.343 240.005 117.541 240.005 116.621C240.005 115.701 240.161 114.903 240.471 114.228C240.79 113.553 241.218 113.034 241.754 112.671C242.291 112.299 242.882 112.114 243.527 112.114C244.19 112.114 244.79 112.299 245.326 112.671C245.863 113.034 246.287 113.553 246.596 114.228C246.916 114.903 247.074 115.705 247.074 116.634C247.074 117.554 246.916 118.355 246.596 119.039C246.287 119.714 245.863 120.238 245.326 120.609C244.798 120.972 244.211 121.154 243.565 121.154ZM243.54 120.027C244.001 120.027 244.404 119.9 244.747 119.647C245.1 119.385 245.376 119.001 245.578 118.495C245.779 117.988 245.88 117.364 245.88 116.621C245.88 115.878 245.779 115.258 245.578 114.76C245.376 114.253 245.1 113.874 244.747 113.62C244.395 113.359 243.989 113.228 243.527 113.228C243.074 113.228 242.672 113.359 242.32 113.62C241.968 113.874 241.691 114.253 241.49 114.76C241.297 115.258 241.2 115.878 241.2 116.621C241.2 117.364 241.297 117.988 241.49 118.495C241.691 119.001 241.968 119.385 242.32 119.647C242.672 119.9 243.079 120.027 243.54 120.027ZM255.266 121.154C254.655 121.154 254.08 121.04 253.543 120.812C253.015 120.575 252.549 120.25 252.147 119.837C251.753 119.423 251.442 118.942 251.216 118.393C250.99 117.845 250.876 117.254 250.876 116.621C250.876 115.988 250.99 115.401 251.216 114.861C251.442 114.312 251.757 113.831 252.159 113.418C252.562 113.004 253.032 112.683 253.568 112.456C254.114 112.228 254.705 112.114 255.342 112.114C256.038 112.114 256.68 112.249 257.266 112.519C257.854 112.789 258.344 113.177 258.738 113.684L257.92 114.507C257.644 114.101 257.279 113.793 256.826 113.582C256.373 113.363 255.879 113.253 255.342 113.253C254.705 113.253 254.139 113.397 253.644 113.684C253.158 113.971 252.776 114.367 252.499 114.874C252.231 115.38 252.096 115.963 252.096 116.621C252.096 117.288 252.235 117.874 252.512 118.381C252.788 118.887 253.162 119.284 253.631 119.571C254.101 119.858 254.637 120.001 255.241 120.001C255.854 120.001 256.382 119.883 256.826 119.647C257.279 119.411 257.627 119.065 257.87 118.609C258.114 118.144 258.235 117.579 258.235 116.912L258.952 117.431H255.178V116.342H259.455V116.52C259.455 117.541 259.275 118.398 258.914 119.09C258.562 119.774 258.067 120.288 257.43 120.634C256.801 120.98 256.08 121.154 255.266 121.154ZM261.838 121.027V119.989H264.479C264.983 119.989 265.377 119.841 265.662 119.546C265.947 119.242 266.089 118.879 266.089 118.457C266.089 118.17 266.027 117.912 265.901 117.684C265.775 117.448 265.591 117.262 265.347 117.127C265.113 116.992 264.836 116.925 264.517 116.925H261.838V115.887H264.341C264.761 115.887 265.092 115.777 265.335 115.557C265.586 115.33 265.712 115.005 265.712 114.583C265.712 114.161 265.582 113.84 265.322 113.62C265.063 113.392 264.718 113.278 264.291 113.278H261.838V112.24H264.316C264.887 112.24 265.36 112.346 265.737 112.557C266.123 112.759 266.413 113.029 266.605 113.367C266.806 113.705 266.907 114.076 266.907 114.481C266.907 114.954 266.777 115.368 266.517 115.722C266.266 116.077 265.893 116.355 265.398 116.558L265.498 116.178C266.06 116.38 266.497 116.688 266.806 117.102C267.126 117.507 267.284 117.988 267.284 118.545C267.284 119.01 267.171 119.427 266.945 119.799C266.718 120.17 266.391 120.47 265.964 120.698C265.545 120.917 265.029 121.027 264.416 121.027H261.838ZM261.045 121.027V112.24H262.228V121.027H261.045Z" fill="#1D1D1D"/>
<path d="M194.711 139.612L191.277 134.395H192.648L195.416 138.662H194.799L197.579 134.395H198.925L195.466 139.612H194.711ZM194.51 143.182V138.827H195.692V143.182H194.51ZM200.983 143.309C200.396 143.309 199.868 143.169 199.398 142.891C198.928 142.612 198.555 142.237 198.278 141.764C198.001 141.283 197.863 140.747 197.863 140.156C197.863 139.574 198.001 139.05 198.278 138.586C198.555 138.114 198.928 137.738 199.398 137.459C199.868 137.181 200.396 137.042 200.983 137.042C201.561 137.042 202.086 137.181 202.555 137.459C203.033 137.729 203.41 138.101 203.687 138.573C203.964 139.046 204.102 139.574 204.102 140.156C204.102 140.747 203.964 141.283 203.687 141.764C203.41 142.237 203.033 142.612 202.555 142.891C202.086 143.169 201.561 143.309 200.983 143.309ZM200.983 142.207C201.36 142.207 201.696 142.119 201.989 141.941C202.283 141.764 202.513 141.523 202.681 141.22C202.849 140.907 202.932 140.553 202.932 140.156C202.932 139.768 202.844 139.422 202.668 139.118C202.501 138.814 202.27 138.578 201.976 138.409C201.692 138.232 201.36 138.143 200.983 138.143C200.605 138.143 200.27 138.232 199.976 138.409C199.683 138.578 199.453 138.814 199.284 139.118C199.117 139.422 199.033 139.768 199.033 140.156C199.033 140.553 199.117 140.907 199.284 141.22C199.453 141.523 199.683 141.764 199.976 141.941C200.27 142.119 200.605 142.207 200.983 142.207ZM207.793 143.309C207.298 143.309 206.854 143.199 206.46 142.979C206.074 142.752 205.772 142.439 205.554 142.043C205.336 141.646 205.227 141.186 205.227 140.663V137.168H206.359V140.612C206.359 140.941 206.413 141.228 206.523 141.473C206.64 141.709 206.807 141.891 207.026 142.017C207.244 142.144 207.499 142.207 207.793 142.207C208.237 142.207 208.586 142.068 208.837 141.789C209.089 141.502 209.214 141.11 209.214 140.612V137.168H210.347V140.663C210.347 141.186 210.237 141.646 210.019 142.043C209.801 142.439 209.499 142.752 209.114 142.979C208.736 143.199 208.296 143.309 207.793 143.309ZM211.864 143.182V137.168H212.996V143.182H211.864ZM212.996 139.751L212.568 139.561C212.568 138.793 212.744 138.181 213.097 137.725C213.449 137.269 213.956 137.042 214.619 137.042C214.92 137.042 215.192 137.096 215.436 137.206C215.679 137.307 215.905 137.48 216.115 137.725L215.373 138.498C215.247 138.362 215.109 138.265 214.958 138.206C214.807 138.147 214.631 138.118 214.43 138.118C214.01 138.118 213.667 138.253 213.398 138.523C213.13 138.793 212.996 139.202 212.996 139.751ZM222.379 143.309C221.691 143.309 221.104 143.182 220.618 142.929C220.131 142.676 219.7 142.308 219.322 141.827L220.127 141.017C220.404 141.405 220.722 141.701 221.083 141.903C221.444 142.097 221.888 142.195 222.416 142.195C222.936 142.195 223.351 142.081 223.662 141.853C223.98 141.625 224.14 141.312 224.14 140.916C224.14 140.587 224.064 140.321 223.913 140.118C223.762 139.916 223.557 139.751 223.297 139.624C223.045 139.489 222.769 139.371 222.467 139.27C222.165 139.16 221.863 139.046 221.561 138.928C221.259 138.801 220.983 138.649 220.731 138.472C220.479 138.286 220.274 138.046 220.115 137.751C219.964 137.455 219.888 137.084 219.888 136.636C219.888 136.138 220.005 135.716 220.24 135.37C220.483 135.016 220.81 134.746 221.222 134.56C221.641 134.366 222.111 134.269 222.63 134.269C223.2 134.269 223.712 134.383 224.165 134.611C224.618 134.83 224.986 135.121 225.272 135.484L224.467 136.295C224.207 135.991 223.926 135.763 223.624 135.611C223.331 135.459 222.991 135.383 222.605 135.383C222.136 135.383 221.762 135.488 221.486 135.699C221.209 135.902 221.071 136.189 221.071 136.56C221.071 136.856 221.146 137.096 221.297 137.282C221.457 137.459 221.662 137.611 221.913 137.738C222.165 137.864 222.442 137.983 222.744 138.092C223.054 138.194 223.36 138.308 223.662 138.434C223.964 138.561 224.24 138.721 224.492 138.915C224.744 139.109 224.945 139.363 225.096 139.675C225.255 139.979 225.335 140.363 225.335 140.827C225.335 141.604 225.067 142.211 224.53 142.65C224.001 143.089 223.284 143.309 222.379 143.309ZM229.872 143.309C229.419 143.309 229.008 143.216 228.639 143.03C228.278 142.836 227.989 142.57 227.771 142.232C227.553 141.895 227.431 141.511 227.406 141.08V139.27C227.431 138.831 227.553 138.447 227.771 138.118C227.997 137.78 228.291 137.518 228.652 137.333C229.02 137.139 229.428 137.042 229.872 137.042C230.416 137.042 230.907 137.181 231.343 137.459C231.788 137.738 232.136 138.114 232.387 138.586C232.639 139.059 232.765 139.591 232.765 140.181C232.765 140.772 232.639 141.304 232.387 141.777C232.136 142.249 231.788 142.625 231.343 142.904C230.907 143.174 230.416 143.309 229.872 143.309ZM229.683 142.232C230.06 142.232 230.391 142.144 230.677 141.967C230.962 141.789 231.189 141.549 231.356 141.245C231.523 140.933 231.608 140.574 231.608 140.169C231.608 139.772 231.523 139.418 231.356 139.105C231.189 138.793 230.962 138.552 230.677 138.384C230.391 138.206 230.064 138.118 229.696 138.118C229.318 138.118 228.987 138.206 228.702 138.384C228.416 138.552 228.195 138.793 228.035 139.105C227.876 139.418 227.796 139.776 227.796 140.181C227.796 140.578 227.872 140.933 228.023 141.245C228.182 141.549 228.404 141.789 228.689 141.967C228.983 142.144 229.314 142.232 229.683 142.232ZM226.727 145.702V137.168H227.859V138.751L227.645 140.207L227.859 141.675V145.702H226.727ZM236.589 143.309C236.044 143.309 235.549 143.174 235.105 142.904C234.66 142.625 234.308 142.249 234.048 141.777C233.797 141.304 233.671 140.772 233.671 140.181C233.671 139.591 233.797 139.059 234.048 138.586C234.308 138.114 234.656 137.738 235.093 137.459C235.537 137.181 236.036 137.042 236.589 137.042C237.042 137.042 237.445 137.139 237.797 137.333C238.157 137.518 238.446 137.78 238.665 138.118C238.883 138.447 239.005 138.831 239.03 139.27V141.08C239.005 141.511 238.883 141.895 238.665 142.232C238.455 142.57 238.17 142.836 237.81 143.03C237.457 143.216 237.05 143.309 236.589 143.309ZM236.778 142.232C237.339 142.232 237.792 142.043 238.137 141.663C238.48 141.274 238.652 140.781 238.652 140.181C238.652 139.768 238.572 139.409 238.413 139.105C238.262 138.793 238.044 138.552 237.759 138.384C237.474 138.206 237.143 138.118 236.766 138.118C236.388 138.118 236.053 138.206 235.759 138.384C235.474 138.561 235.247 138.806 235.08 139.118C234.92 139.422 234.841 139.772 234.841 140.169C234.841 140.574 234.92 140.933 235.08 141.245C235.247 141.549 235.478 141.789 235.772 141.967C236.065 142.144 236.401 142.232 236.778 142.232ZM238.577 143.182V141.561L238.791 140.093L238.577 138.637V137.168H239.722V143.182H238.577ZM244.099 143.309C243.512 143.309 242.979 143.169 242.501 142.891C242.032 142.612 241.659 142.237 241.382 141.764C241.114 141.283 240.979 140.751 240.979 140.169C240.979 139.578 241.114 139.046 241.382 138.573C241.659 138.101 242.032 137.729 242.501 137.459C242.979 137.181 243.512 137.042 244.099 137.042C244.56 137.042 244.988 137.13 245.382 137.307C245.776 137.476 246.115 137.725 246.401 138.054L245.646 138.814C245.461 138.595 245.235 138.43 244.967 138.32C244.707 138.202 244.417 138.143 244.099 138.143C243.722 138.143 243.386 138.232 243.093 138.409C242.799 138.578 242.568 138.814 242.401 139.118C242.233 139.422 242.149 139.772 242.149 140.169C242.149 140.565 242.233 140.916 242.401 141.22C242.568 141.523 242.799 141.764 243.093 141.941C243.386 142.119 243.722 142.207 244.099 142.207C244.417 142.207 244.707 142.152 244.967 142.043C245.235 141.924 245.466 141.756 245.659 141.536L246.401 142.296C246.124 142.617 245.784 142.866 245.382 143.043C244.988 143.22 244.56 143.309 244.099 143.309ZM250.181 143.309C249.585 143.309 249.049 143.174 248.571 142.904C248.093 142.625 247.715 142.249 247.439 141.777C247.162 141.304 247.023 140.768 247.023 140.169C247.023 139.578 247.157 139.046 247.426 138.573C247.703 138.101 248.071 137.729 248.533 137.459C249.002 137.181 249.527 137.042 250.105 137.042C250.659 137.042 251.144 137.168 251.564 137.421C251.992 137.675 252.323 138.025 252.558 138.472C252.801 138.92 252.923 139.426 252.923 139.992C252.923 140.076 252.918 140.169 252.91 140.27C252.902 140.363 252.885 140.473 252.86 140.599H247.816V139.65H252.256L251.841 140.017C251.841 139.612 251.769 139.27 251.627 138.991C251.484 138.704 251.283 138.485 251.023 138.333C250.763 138.173 250.449 138.092 250.08 138.092C249.694 138.092 249.354 138.177 249.061 138.346C248.767 138.514 248.541 138.751 248.382 139.055C248.222 139.358 248.143 139.717 248.143 140.131C248.143 140.553 248.226 140.924 248.394 141.245C248.562 141.557 248.801 141.802 249.111 141.979C249.421 142.148 249.778 142.232 250.181 142.232C250.516 142.232 250.822 142.173 251.099 142.055C251.383 141.937 251.627 141.76 251.828 141.523L252.558 142.27C252.273 142.608 251.92 142.866 251.501 143.043C251.09 143.22 250.65 143.309 250.181 143.309Z" fill="#1D1D1D"/>
<defs>
<filter id="filter0_d_105_169" x="61.2891" y="51" width="311.133" height="160.713" filterUnits="userSpaceOnUse" color-interpolation-filters="sRGB">
<feFlood flood-opacity="0" result="BackgroundImageFix"/>
<feColorMatrix in="SourceAlpha" type="matrix" values="0 0 0 0 0 0 0 0 0 0 0 0 0 0 0 0 0 0 127 0" result="hardAlpha"/>
<feOffset dy="4"/>
<feGaussianBlur stdDeviation="20"/>
<feComposite in2="hardAlpha" operator="out"/>
<feColorMatrix type="matrix" values="0 0 0 0 0.501961 0 0 0 0 0.419608 0 0 0 0 1 0 0 0 0.1 0"/>
<feBlend mode="normal" in2="BackgroundImageFix" result="effect1_dropShadow_105_169"/>
<feBlend mode="normal" in="SourceGraphic" in2="effect1_dropShadow_105_169" result="shape"/>
</filter>
<radialGradient id="paint0_radial_105_169" cx="0" cy="0" r="1" gradientUnits="userSpaceOnUse" gradientTransform="translate(233.5 3) scale(337.5 302.337)">
<stop stop-color="#806BFF"/>
<stop offset="1" stop-color="#806BFF" stop-opacity="0"/>
</radialGradient>
</defs>
</svg>
