<svg width="190" height="264" viewBox="0 0 190 264" fill="none" xmlns="http://www.w3.org/2000/svg">
<path d="M164.091 259.593C169.113 264.979 177.55 265.274 182.935 260.252C188.321 255.23 188.616 246.793 183.594 241.407C178.573 236.021 170.136 235.726 164.75 240.748C159.364 245.77 159.069 254.207 164.091 259.593ZM0.732246 17.2322C-0.244066 18.2086 -0.244066 19.7915 0.732245 20.7678L16.6421 36.6777C17.6185 37.654 19.2014 37.654 20.1777 36.6777C21.154 35.7014 21.154 34.1185 20.1777 33.1421L6.03555 19L20.1777 4.85788C21.154 3.88156 21.154 2.29865 20.1777 1.32234C19.2014 0.346031 17.6185 0.346032 16.6421 1.32234L0.732246 17.2322ZM176.079 251.618C182.601 238.571 194.838 221.913 186.356 194.511L181.58 195.989C189.348 221.088 178.424 235.745 171.606 249.382L176.079 251.618ZM186.356 194.511C181.817 179.848 169.137 177.076 158.237 174.481C152.603 173.141 147.401 171.863 143.079 169.377C138.892 166.968 135.516 163.408 133.658 157.327L128.876 158.788C131.134 166.178 135.388 170.721 140.585 173.711C145.646 176.622 151.582 178.037 157.079 179.346C168.439 182.049 177.993 184.402 181.58 195.989L186.356 194.511ZM133.658 157.327C131.804 151.262 132.524 144.724 134.601 137.592C136.693 130.405 140.019 123.043 143.149 115.161C149.288 99.7016 154.537 82.5775 144.128 65.6884L139.872 68.3116C148.876 82.9225 144.641 97.856 138.502 113.315C135.493 120.892 131.981 128.704 129.8 136.194C127.603 143.74 126.613 151.382 128.876 158.788L133.658 157.327ZM144.128 65.6884C138.93 57.254 129.479 50.0582 118.034 44.0013C106.538 37.9171 92.7654 32.8445 78.5963 28.7842C50.2839 20.6712 20.0276 16.5 2.50001 16.5L2.50001 21.5C19.4724 21.5 49.2596 25.5789 77.2189 33.5908C91.1857 37.593 104.606 42.5516 115.695 48.4206C126.836 54.3168 135.363 60.996 139.872 68.3116L144.128 65.6884Z" fill="#FFD02C"/>
</svg>
