<svg width="381" height="399" viewBox="0 0 381 399" fill="none" xmlns="http://www.w3.org/2000/svg">
<path d="M87.3776 89.3776C119.632 57.1234 163.377 39.0023 208.991 39C208.996 39 209 39.0038 209 39.0086V39.0086C209 39.0133 208.996 39.0172 208.991 39.0172C163.382 39.0195 119.641 57.1388 87.3898 89.3898C55.1368 121.643 37.0172 165.387 37.0172 211C37.0172 256.613 55.1367 300.357 87.3898 332.61C119.641 364.861 163.382 382.981 208.991 382.983C208.996 382.983 209 382.987 209 382.991V382.991C209 382.996 208.996 383 208.991 383C163.377 382.998 119.632 364.877 87.3776 332.622C55.1214 300.366 37 256.617 37 211C37 165.383 55.1214 121.634 87.3776 89.3776Z" stroke="url(#paint0_radial_83_492)" stroke-width="5"/>
<path d="M165 399C189.301 399 209 379.301 209 355C209 330.699 189.301 311 165 311C140.699 311 121 330.699 121 355C121 379.301 140.699 399 165 399Z" fill="#F3E4FF"/>
<mask id="mask0_83_492" style="mask-type:luminance" maskUnits="userSpaceOnUse" x="121" y="311" width="88" height="88">
<path d="M165 399C189.301 399 209 379.301 209 355C209 330.699 189.301 311 165 311C140.699 311 121 330.699 121 355C121 379.301 140.699 399 165 399Z" fill="white"/>
</mask>
<g mask="url(#mask0_83_492)">
<path d="M134.047 399.491C134.709 399.534 137.817 399.747 142.356 400.067C144.078 397.243 146.176 392.206 145.707 384.914C145.622 383.705 148.147 390.734 146.575 400.366C155.346 400.978 167.276 401.803 177.706 402.429C178.097 398.367 178.638 394.611 178.638 394.611C178.858 397.563 179.37 400.245 179.975 402.571C181.398 402.671 182.799 402.735 184.137 402.813C184.122 396.475 185.702 385.498 185.702 385.498C186.292 393.209 188.462 399.441 190.063 403.133C196.686 403.46 201.054 403.553 200.783 403.226C191.286 391.274 198.927 384.993 196.543 374.741C193.676 362.455 183.311 360.051 184.037 350.959C184.606 343.561 186.15 330.151 176.916 326.85C176.916 326.85 169.681 318.164 157.509 322.205C142.456 327.191 147.265 350.319 146.041 354.922C144.298 361.495 141.033 363.693 138.33 371.156C135.569 378.711 138.828 383.961 138.991 389.176C139.126 394.383 132.382 399.391 134.04 399.484L134.047 399.491Z" fill="#3C3575"/>
<path d="M201.168 401.597C199.923 399.484 198.834 397.264 198.244 394.959C197.589 392.669 198.023 390.364 198.592 388.002C199.154 385.647 199.809 383.243 200.143 380.731C200.449 378.227 200.478 375.588 199.759 373.07C199.083 370.544 197.753 368.225 196.067 366.311C194.402 364.369 192.467 362.783 190.596 361.218C188.747 359.631 186.904 358.073 185.552 356.103C184.172 354.161 183.383 351.813 183.198 349.359C182.984 351.806 183.525 354.374 184.791 356.579C186.036 358.799 187.836 360.613 189.622 362.306C191.407 364.006 193.207 365.628 194.687 367.464C196.159 369.292 197.312 371.341 197.874 373.575C198.443 375.801 198.528 378.156 198.251 380.511C198.009 382.873 197.454 385.242 197.027 387.689C196.821 388.912 196.629 390.164 196.615 391.452C196.593 392.747 196.857 394.07 197.283 395.258C198.187 397.634 199.539 399.747 201.161 401.604L201.168 401.597Z" fill="#3C3575"/>
<path d="M148.766 330.322C147.485 333.082 146.916 336.105 146.347 339.072C145.835 342.06 145.465 345.069 145.131 348.064L144.604 352.539C144.426 354.033 144.17 355.434 143.729 356.793C142.868 359.532 141.204 361.886 139.34 364.262C138.436 365.472 137.512 366.731 136.743 368.111C135.975 369.484 135.342 370.95 134.894 372.465C134.488 374.001 134.204 375.51 134.033 377.06C133.855 378.611 133.869 380.205 134.076 381.756C134.275 383.314 134.645 384.793 134.943 386.245C135.249 387.689 135.42 389.168 135.434 390.627C135.527 393.522 133.869 396.332 131.45 398.111C134.111 396.695 136.139 393.864 136.373 390.662C136.487 389.112 136.395 387.561 136.195 386.038C136.003 384.516 135.69 383.05 135.591 381.599C135.363 378.732 135.861 375.773 136.672 373.006C137.127 371.64 137.682 370.324 138.408 369.071C139.119 367.819 139.994 366.646 140.912 365.458C141.808 364.255 142.747 363.025 143.558 361.673C144.369 360.328 145.059 358.877 145.508 357.348C145.949 355.825 146.184 354.239 146.312 352.731C146.468 351.215 146.561 349.707 146.653 348.199C146.852 345.19 147.016 342.188 147.293 339.193C147.542 336.198 147.898 333.217 148.759 330.314L148.766 330.322Z" fill="#3C3575"/>
<path d="M150.744 378.675C132.091 399.654 109.511 442.929 114.569 451.195C120.203 460.408 147.115 430.529 146.191 429.178C145.408 428.025 154.151 402.144 160.504 383.214C166.85 364.305 155.361 373.482 150.744 378.675Z" fill="#FFC4C0"/>
<path d="M150.744 378.675C132.091 399.654 109.511 442.929 114.569 451.195C120.203 460.408 147.115 430.529 146.191 429.178C145.408 428.025 154.151 402.144 160.504 383.214C166.85 364.305 155.361 373.482 150.744 378.675Z" fill="#E6A2B5"/>
<path d="M146.07 401.967C147.5 401.703 149.499 403.183 150.459 404.321C151.227 405.218 151.882 406.214 152.508 407.202C152.543 407.081 152.586 406.961 152.629 406.833C152.038 405.915 151.412 404.976 150.687 404.122C149.755 403.012 147.649 401.376 146.013 401.675C145.23 401.817 144.661 402.372 144.313 403.347C143.324 406.114 146.561 408.96 149.435 410.866C149.947 411.208 150.473 411.521 151.007 411.805C151.035 411.706 151.071 411.613 151.099 411.514C150.594 411.243 150.096 410.937 149.605 410.61C144.547 407.274 144.085 404.869 144.59 403.446C144.903 402.585 145.401 402.087 146.07 401.967ZM158.918 385.363C158.469 384.836 157.843 384.608 157.075 384.701C156.164 384.808 155.489 385.284 154.969 385.939C153.646 387.618 153.418 390.52 153.376 391.616C153.262 394.938 153.561 398.189 154.272 401.284C154.279 401.326 154.286 401.362 154.293 401.39C154.308 401.469 154.322 401.547 154.343 401.625C154.407 401.433 154.471 401.241 154.528 401.049C153.845 398.025 153.561 394.86 153.675 391.63C153.724 390.157 154.123 385.348 157.111 385C157.772 384.921 158.306 385.106 158.69 385.562C158.967 385.889 159.152 386.337 159.28 386.842C159.337 386.671 159.394 386.508 159.451 386.337C159.316 385.967 159.145 385.633 158.918 385.363Z" fill="#F3E4FF"/>
<path d="M149.371 392.228C149.086 390.855 148.752 389.638 148.332 388.535C147.941 387.49 146.916 385.761 145.707 385.256C145.6 385.213 145.494 385.178 145.387 385.156L145.216 385.37C145.351 385.391 145.479 385.427 145.614 385.483C146.746 385.96 147.72 387.618 148.097 388.621C148.915 390.805 149.456 393.444 149.79 396.958L149.477 395.258L149.463 395.23C148.851 393.743 147.713 392.569 146.625 391.438C145.913 390.705 145.173 389.944 144.576 389.097C144.241 388.606 143.893 387.952 143.729 387.333C143.665 387.411 143.608 387.497 143.544 387.582C143.786 388.357 144.249 389.048 144.377 389.24C144.981 390.1 145.721 390.869 146.447 391.616C147.514 392.725 148.631 393.871 149.235 395.315L149.549 397.001C149.57 397.129 149.684 397.214 149.812 397.186C149.933 397.172 150.046 397.065 150.025 396.916C149.869 395.151 149.648 393.615 149.371 392.228Z" fill="#F3E4FF"/>
<path d="M132.745 460.764L137.426 429.028C137.426 429.028 129.921 415.917 134.275 406.512C136.473 401.746 151.548 378.462 159.672 372.564C167.291 367.037 177.727 372.081 181.277 376.89C191.485 390.719 196.458 415.618 202.156 460.764H132.745Z" fill="#E6A2B5"/>
<path d="M146.411 387.198C144.867 389.311 143.373 391.459 141.901 393.622C142.299 392.782 142.705 391.936 143.103 391.096C143.132 391.032 143.039 390.983 143.011 391.047C142.463 392.107 141.958 393.181 141.467 394.255C139.503 397.165 137.59 400.117 135.754 403.105C134.972 404.371 134.253 405.666 133.727 407.06C133.215 408.412 132.902 409.835 132.731 411.272C132.56 412.709 132.553 414.153 132.66 415.59C132.774 417.077 132.951 418.542 133.286 420.001C133.663 421.637 134.175 423.273 134.837 424.817C135.164 425.578 135.513 426.332 135.882 427.065C136.224 427.733 136.921 429.114 136.914 429.163C136.772 429.925 136.629 430.458 136.537 431.098C136.437 431.753 136.338 432.4 136.245 433.055C136.046 434.357 134.36 447.034 134.168 448.336C133.791 450.925 133.464 453.514 133.144 456.111C132.959 457.598 132.859 459.106 132.653 460.586C132.646 460.643 132.738 460.671 132.745 460.607C132.959 459.312 133.279 458.039 133.513 456.744C133.748 455.449 133.99 454.162 134.232 452.867C134.723 450.256 136.608 436.249 137.014 433.631C137.127 432.905 137.241 432.18 137.355 431.454C137.469 430.736 137.661 429.761 137.632 429.035C137.632 429.035 135.306 424.262 134.403 420.911C134.026 419.503 133.634 418.044 133.478 416.593C133.321 415.17 133.307 413.733 133.428 412.303C133.542 410.873 133.812 409.458 134.253 408.092C134.709 406.683 135.356 405.374 136.075 404.087C137.59 401.39 139.205 398.744 140.841 396.119C142.698 393.138 144.569 390.172 146.489 387.241C146.525 387.191 146.447 387.148 146.411 387.198Z" fill="#3C3575"/>
<path d="M190.746 443.669C190.617 442.815 190.105 442.168 189.23 441.748C186.52 440.446 183.468 443.42 182.23 445.184C180.85 447.155 179.968 449.58 179.47 452.76C179.107 450.356 178.488 447.994 177.905 445.959C177.478 444.451 176.952 442.908 176.368 441.378C176.411 439.699 177.101 438.098 177.763 436.555C177.855 436.341 177.933 436.135 178.026 435.922C178.894 433.88 179.32 432.094 179.377 430.309C179.456 427.719 178.887 422.718 176.105 422.284C175.386 422.177 174.824 422.334 174.412 422.761C173.551 423.671 173.451 425.77 174.127 428.978C174.704 431.66 174.967 433.674 175.002 435.715C175.017 436.519 175.038 437.416 175.116 438.326C174.142 436.128 172.996 433.851 171.709 431.539C171.701 431.447 171.659 431.362 171.58 431.305C171.239 430.7 170.862 430.045 170.4 429.242C170.001 428.573 169.624 427.947 169.247 427.363C169.14 424.561 170.976 422.533 172.932 420.392C174.184 419.019 175.479 417.603 176.183 415.967C176.88 414.366 177.122 410.937 175.934 408.974C175.401 408.085 174.639 407.601 173.679 407.523C172.256 407.416 171.324 408.583 170.947 409.621C170.698 410.311 170.67 411.051 170.649 411.755C170.634 412.011 170.627 412.268 170.599 412.517C170.52 413.648 170.279 414.857 169.852 416.308C169.702 416.821 169.546 417.34 169.389 417.873C168.614 420.399 167.81 423.003 168.08 425.535C167.277 424.283 166.444 423.038 165.626 421.829C164.531 420.2 163.414 418.528 162.354 416.849C162.553 416.166 162.724 415.483 162.901 414.814C163.229 413.505 163.57 412.161 164.104 410.873C164.31 410.397 164.516 409.913 164.73 409.429C165.249 408.262 165.783 407.046 166.145 405.794C166.935 403.041 166.978 399.541 164.466 398.73C163.563 398.431 162.745 398.552 162.055 399.071C160.867 399.968 160.283 401.938 160.319 403.425C160.369 404.848 160.582 406.292 160.796 407.693C160.931 408.54 161.059 409.408 161.151 410.261C161.308 411.791 161.379 413.42 161.343 415.22C160.917 414.516 160.511 413.811 160.12 413.114C158.27 409.82 156.911 406.37 155.972 402.55C156.143 400.843 156.52 399.192 157.125 397.499C157.409 396.716 157.744 395.934 158.064 395.173C158.533 394.084 159.017 392.953 159.359 391.786C159.757 390.406 160.198 386.871 158.918 385.363C158.469 384.836 157.843 384.608 157.075 384.701C156.164 384.808 155.489 385.284 154.969 385.939C153.646 387.618 153.418 390.52 153.376 391.616C153.262 394.938 153.561 398.189 154.272 401.284C154.279 401.326 154.286 401.362 154.293 401.39C154.948 404.734 156.072 408.077 157.637 411.329C157.95 411.976 158.284 412.623 158.633 413.264H158.597C156.762 412.189 155.581 411.165 154.535 409.721C153.995 408.974 153.49 408.191 153.013 407.43C152.302 406.32 151.569 405.161 150.687 404.122C149.755 403.012 147.649 401.376 146.013 401.675C145.23 401.817 144.661 402.372 144.313 403.347C143.324 406.114 146.561 408.96 149.435 410.866C152.181 412.68 155.19 413.719 158.377 413.961C158.647 414.053 158.882 414.11 159.117 414.146C160.668 416.92 162.475 419.609 164.217 422.206C165.185 423.636 166.174 425.115 167.12 426.588C168.152 428.21 169.062 429.718 169.902 431.177C167.148 430.984 164.63 430.252 162.218 428.943C160.76 428.153 159.359 427.207 158 426.289C157.239 425.777 156.449 425.244 155.652 424.738C155.489 424.639 155.318 424.525 155.14 424.411C153.582 423.401 151.441 422.021 149.52 422.576C147.905 423.038 147.485 424.653 147.628 426.012C148.211 431.426 154.791 432.848 157.594 433.211C160.184 433.538 162.923 433.481 165.96 433.019C166.779 432.898 167.604 432.905 168.393 432.912C168.934 432.919 169.496 432.927 170.051 432.891C170.378 432.877 170.599 432.841 170.791 432.763C172.797 436.391 174.362 439.82 175.607 443.242C176.119 444.658 176.567 446.095 176.966 447.503C176.226 447.041 175.365 446.706 174.526 446.386L174.191 446.244C171.189 445.077 169.204 443.007 167.511 440.937C166.48 439.685 163.342 435.879 160.49 435.865C159.529 435.858 158.69 436.284 157.986 437.117C156.869 438.454 157.509 439.898 158.384 441.264C159.551 443.107 160.924 444.949 163.051 445.938C165.292 446.984 167.988 447.404 170.35 447.766L170.57 447.802C171.118 447.88 171.723 447.937 172.363 447.98C174.134 448.115 176.133 448.271 177.421 449.296C177.649 450.242 177.855 451.181 178.019 452.099L178.054 452.319C178.531 454.923 179.1 458.082 178.502 460.764H178.801C179.399 458.032 178.823 454.88 178.346 452.27L178.31 452.042C178.14 451.11 177.933 450.142 177.698 449.175L177.684 449.125L177.649 449.097C176.29 447.98 174.22 447.823 172.384 447.681C171.751 447.631 171.154 447.589 170.613 447.503L170.4 447.475C167.931 447.091 165.377 446.699 163.179 445.668C161.123 444.707 159.778 442.908 158.633 441.101C157.893 439.948 157.196 438.611 158.163 437.38C158.178 437.352 158.206 437.33 158.22 437.316C158.861 436.548 159.629 436.156 160.49 436.163C163.2 436.163 166.266 439.898 167.277 441.122C169.005 443.228 171.018 445.333 174.077 446.529L174.412 446.664C175.415 447.048 176.354 447.411 177.122 447.98L177.471 448.236L177.364 447.823C176.944 446.28 176.446 444.7 175.884 443.135C174.625 439.664 173.025 436.178 170.983 432.5L170.919 432.372L170.791 432.443C170.606 432.528 170.392 432.578 170.037 432.592C169.489 432.628 168.927 432.621 168.393 432.614C167.59 432.614 166.757 432.599 165.911 432.727C162.909 433.176 160.191 433.247 157.63 432.912C154.891 432.564 148.481 431.177 147.919 425.983C147.862 425.379 147.791 423.387 149.605 422.867C151.398 422.355 153.468 423.693 154.976 424.667C155.161 424.781 155.332 424.888 155.489 424.995C156.278 425.492 157.075 426.026 157.836 426.538C159.195 427.456 160.611 428.409 162.076 429.206C164.609 430.586 167.255 431.333 170.165 431.49L170.435 431.504L170.3 431.269C169.425 429.732 168.472 428.146 167.369 426.424C166.423 424.945 165.434 423.472 164.466 422.042C162.716 419.424 160.902 416.728 159.344 413.946L159.302 413.875H159.231C158.996 413.833 158.747 413.762 158.455 413.662H158.412C155.268 413.434 152.309 412.41 149.605 410.61C144.547 407.274 144.085 404.869 144.59 403.446C144.903 402.585 145.401 402.087 146.07 401.967C147.5 401.703 149.499 403.183 150.459 404.321C151.327 405.339 152.053 406.484 152.764 407.601C153.241 408.362 153.746 409.152 154.293 409.899C155.368 411.378 156.584 412.438 158.477 413.548L158.533 413.562C158.633 413.577 158.74 413.584 158.846 413.591L159.159 413.612L159.024 413.37C158.633 412.659 158.256 411.926 157.907 411.201C156.357 407.971 155.233 404.649 154.585 401.312C154.585 401.291 154.571 401.276 154.571 401.234C153.86 398.153 153.561 394.924 153.675 391.63C153.724 390.157 154.123 385.348 157.111 385C157.772 384.921 158.306 385.106 158.69 385.562C159.821 386.899 159.501 390.228 159.067 391.701C158.74 392.854 158.256 393.97 157.794 395.059C157.466 395.82 157.125 396.603 156.847 397.399C156.228 399.121 155.844 400.807 155.674 402.543V402.593C156.62 406.455 157.993 409.941 159.857 413.264C160.326 414.11 160.831 414.964 161.351 415.81L161.628 416.244V415.739C161.685 413.719 161.628 411.919 161.45 410.226C161.358 409.372 161.222 408.497 161.094 407.644C160.888 406.256 160.668 404.826 160.625 403.418C160.582 402.002 161.123 400.145 162.226 399.313C162.844 398.858 163.57 398.758 164.374 399.014C167.405 399.996 166.024 405.125 165.861 405.716C165.498 406.953 164.972 408.149 164.459 409.308C164.246 409.792 164.025 410.276 163.826 410.767C163.286 412.068 162.937 413.427 162.603 414.743C162.432 415.426 162.247 416.138 162.048 416.821L162.026 416.892L162.062 416.949C163.136 418.649 164.274 420.349 165.377 421.992C166.316 423.394 167.284 424.845 168.208 426.282L168.628 426.93L168.486 426.175C167.981 423.501 168.834 420.683 169.674 417.952C169.83 417.425 169.994 416.906 170.143 416.394C170.57 414.914 170.812 413.698 170.905 412.545C170.926 412.289 170.933 412.033 170.94 411.777C170.969 411.08 170.997 410.361 171.232 409.714C171.573 408.782 172.413 407.729 173.651 407.821C174.511 407.892 175.201 408.326 175.678 409.13C176.795 410.98 176.56 414.345 175.906 415.846C175.223 417.432 173.942 418.834 172.712 420.193C170.798 422.284 168.82 424.468 168.941 427.392L168.984 427.499C169.368 428.103 169.745 428.729 170.136 429.398C170.613 430.209 170.99 430.871 171.331 431.475L171.353 431.511L171.388 431.532C171.388 431.532 171.417 431.561 171.41 431.575V431.618L171.431 431.653C172.897 434.278 174.184 436.875 175.23 439.343L175.657 440.354L175.514 439.265C175.358 438.049 175.322 436.79 175.294 435.708C175.258 433.652 175.002 431.618 174.419 428.921C173.608 425.044 174.085 423.543 174.632 422.967C174.974 422.611 175.443 422.483 176.055 422.583C178.723 422.995 179.143 428.295 179.079 430.302C179.022 432.044 178.595 433.795 177.748 435.808C177.663 436.021 177.57 436.22 177.485 436.434C176.802 438.02 176.112 439.649 176.077 441.399V441.456C176.667 442.993 177.179 444.537 177.613 446.045C178.282 448.378 179.007 451.138 179.32 453.899L179.463 455.165L179.612 453.899C180.067 450.221 180.971 447.503 182.479 445.348C183.852 443.398 186.755 440.887 189.102 442.018C189.885 442.388 190.34 442.964 190.447 443.719C190.461 443.832 190.475 443.953 190.475 444.081C190.475 445.383 189.558 446.913 188.604 447.781C187.381 448.898 186.015 449.936 184.699 450.932C184.421 451.138 184.158 451.338 183.895 451.537C183.66 451.722 183.404 451.907 183.134 452.099C181.704 453.137 179.918 454.432 179.477 456.196V456.232C179.52 457.882 179.342 459.398 178.965 460.764H179.285C179.648 459.398 179.811 457.89 179.783 456.246C180.196 454.603 181.853 453.401 183.319 452.341C183.582 452.149 183.845 451.964 184.08 451.772C184.343 451.579 184.606 451.373 184.877 451.174C186.2 450.164 187.573 449.132 188.811 447.994C189.935 446.97 190.959 445.156 190.746 443.669Z" fill="#F3E4FF"/>
<path d="M176.624 379.479C174.383 378.149 172.185 380.717 171.275 381.862C171.21 381.948 171.154 382.019 171.104 382.083C169.446 384.224 167.533 390.278 167.454 390.819C167.433 390.961 167.533 391.089 167.675 391.111C167.81 391.139 167.924 391.061 167.945 390.94C167.959 390.919 169.354 388.151 175.571 384.182C176.596 383.534 177.67 382.218 177.649 381.073C177.649 380.418 177.293 379.878 176.624 379.479ZM175.415 383.925C170.136 387.29 168.315 389.766 167.817 390.577C168.173 389.254 169.859 384.182 171.346 382.268C172.078 381.322 174.305 378.455 176.468 379.735C177.044 380.077 177.343 380.532 177.35 381.08C177.357 381.649 177.058 382.275 176.631 382.816C176.283 383.257 175.842 383.655 175.415 383.925Z" fill="#F3E4FF"/>
<path d="M188.526 392.654C188.12 392.185 187.622 391.929 187.032 391.907C186.427 391.879 185.936 392.071 185.574 392.469C185.545 392.512 185.51 392.541 185.481 392.576C184.606 393.693 184.862 395.813 184.926 396.233C185.104 397.492 185.488 398.73 185.865 399.925C186.42 401.71 186.996 403.56 186.868 405.452L186.292 407.437C186.242 407.594 186.321 407.743 186.47 407.786C186.612 407.828 186.797 407.779 186.854 407.608C187.637 405.616 188.241 403.83 188.697 402.187C189.138 400.544 189.429 399.043 189.586 397.627C189.728 396.282 189.557 393.857 188.526 392.654ZM189.28 397.591C188.981 400.401 188.12 403.546 186.577 407.523L187.153 405.516V405.481C187.309 403.539 186.719 401.654 186.15 399.832C185.787 398.651 185.403 397.421 185.218 396.19C185.054 395.052 185.104 393.437 185.794 392.676C186.093 392.341 186.506 392.185 187.018 392.206C187.523 392.228 187.957 392.441 188.298 392.846C189.273 393.978 189.415 396.297 189.28 397.591Z" fill="#F3E4FF"/>
<path d="M149.37 392.227C149.086 390.854 148.751 389.638 148.332 388.535C148.118 387.973 147.727 387.212 147.222 386.551C147.165 386.622 147.115 386.693 147.065 386.757C147.535 387.376 147.898 388.094 148.097 388.621C148.915 390.805 149.456 393.444 149.79 396.958L149.477 395.258L149.463 395.23C148.851 393.743 147.713 392.569 146.624 391.438C146.069 390.862 145.493 390.278 144.988 389.638C144.938 389.709 144.889 389.773 144.839 389.844C145.337 390.47 145.892 391.047 146.447 391.616C147.514 392.725 148.63 393.871 149.235 395.315L149.548 397.001C149.57 397.129 149.683 397.214 149.811 397.186C149.932 397.172 150.046 397.065 150.025 396.916C149.868 395.151 149.648 393.615 149.37 392.227Z" fill="#F3E4FF"/>
<path d="M186.278 383.463C206.375 409.038 213.958 454.987 202.804 458.565C192.609 461.838 150.687 451.345 138.202 447.105C134.531 445.86 145.863 417.34 149.783 418.67C154.528 420.278 180.452 426.417 180.957 426.432C182.031 426.453 176.268 398.168 173.8 385.348C170.357 367.492 178.73 373.859 186.278 383.463Z" fill="#FFC4C0"/>
<path d="M180.579 425.272C180.907 425.08 174.881 397.776 172.861 383.527C170.84 369.278 177.207 370.651 186.363 382.83C196.173 395.877 213.631 431.191 207.584 457.342C205.628 465.807 144.96 453.948 144.96 453.948L153.134 419.076C153.134 419.076 180.081 425.571 180.587 425.265L180.579 425.272Z" fill="#E6A2B5"/>
<path d="M176.624 379.479C175.116 378.583 173.622 379.458 172.534 380.475C172.548 380.603 172.555 380.731 172.562 380.866C173.594 379.849 175.045 378.896 176.468 379.735C177.044 380.077 177.343 380.532 177.35 381.08C177.357 381.649 177.058 382.275 176.631 382.816C176.283 383.257 175.842 383.655 175.415 383.925C174.576 384.459 173.821 384.971 173.146 385.462C173.167 385.569 173.181 385.683 173.203 385.796C173.9 385.284 174.689 384.744 175.571 384.182C176.596 383.534 177.67 382.218 177.649 381.073C177.649 380.418 177.293 379.878 176.624 379.479Z" fill="#F3E4FF"/>
<path d="M188.526 392.654C188.121 392.185 187.623 391.929 187.032 391.907C186.427 391.879 185.937 392.071 185.574 392.469C185.545 392.512 185.51 392.541 185.481 392.576C184.606 393.693 184.862 395.813 184.926 396.233C185.104 397.492 185.488 398.73 185.865 399.925C186.42 401.71 186.997 403.56 186.868 405.452L186.292 407.437C186.242 407.594 186.321 407.743 186.47 407.786C186.612 407.828 186.797 407.779 186.854 407.608C187.637 405.616 188.241 403.83 188.697 402.187C189.138 400.544 189.429 399.043 189.586 397.627C189.728 396.282 189.558 393.857 188.526 392.654ZM189.28 397.591C188.981 400.401 188.121 403.546 186.577 407.523L187.153 405.516V405.481C187.31 403.539 186.719 401.654 186.15 399.832C185.787 398.651 185.403 397.421 185.218 396.19C185.054 395.052 185.104 393.437 185.794 392.676C186.093 392.341 186.506 392.185 187.018 392.206C187.523 392.228 187.957 392.441 188.298 392.846C189.273 393.978 189.415 396.297 189.28 397.591Z" fill="#F3E4FF"/>
<path d="M180.281 425.549C180.302 425.493 176.809 407.38 176.439 406.726C176.062 406.05 175.251 404.549 174.917 403.845C174.248 402.429 173.665 400.985 173.046 399.555C172.996 399.434 173.174 399.349 173.224 399.462C173.892 400.85 174.675 402.173 175.472 403.482C175.863 404.122 176.261 404.777 176.653 405.41C176.681 405.452 174.746 395.194 174.476 393.394C174.454 393.259 174.597 393.223 174.639 393.337C175.223 395.151 180.715 423.358 181.27 425.635C181.27 425.635 180.885 425.635 180.274 425.542L180.281 425.549Z" fill="#3C3575"/>
<path d="M154.734 375.104C154.734 375.104 155.545 383.129 162.197 384.374C168.849 385.626 181.277 376.89 181.277 376.89C181.277 376.89 176.283 370.174 167.269 370.153C158.597 370.131 154.734 375.104 154.734 375.104Z" fill="#FFC4C0"/>
<path d="M173.836 372.863C173.48 374.066 167.198 381.663 161.628 381.08C159.814 380.888 160.426 370.942 160.426 370.942L160.305 370.195L158.59 359.774L171.118 352.709L172.925 351.785C172.925 351.785 173.203 354.666 173.523 358.258C173.537 358.422 173.551 358.593 173.565 358.77C173.587 358.97 173.615 359.162 173.622 359.354C173.679 359.887 173.729 360.435 173.772 360.983C173.807 361.395 173.836 361.801 173.857 362.242C173.886 362.683 173.907 363.11 173.935 363.544C174.135 367.876 173.985 372.344 173.836 372.856V372.863Z" fill="#FFC4C0"/>
<path d="M173.516 358.265C170.101 366.283 163.371 369.249 160.305 370.203L158.59 359.781L171.118 352.716L172.925 351.792C172.925 351.792 173.203 354.673 173.523 358.265H173.516Z" fill="#3C3575"/>
<path d="M144.761 345.254C143.523 363.743 154.457 366.574 158.448 366.838C162.069 367.08 174.426 367.428 177.563 349.167C180.708 330.905 172.498 324.481 164.246 323.499C155.994 322.518 145.999 326.765 144.761 345.261V345.254Z" fill="#FFC4C0"/>
<path d="M150.381 340.552C150.815 340.516 151.213 340.409 151.64 340.331C152.124 340.246 152.515 340.224 152.885 339.861C153.084 339.669 153.084 339.264 152.913 339.058C152.522 338.574 151.903 338.531 151.32 338.617C150.687 338.709 150.217 338.937 149.783 339.413C149.363 339.869 149.804 340.594 150.381 340.552Z" fill="#3C3575"/>
<path d="M163.229 339.776C162.795 339.719 162.403 339.591 161.984 339.484C161.507 339.371 161.116 339.328 160.767 338.944C160.582 338.745 160.603 338.339 160.781 338.14C161.201 337.677 161.82 337.67 162.403 337.791C163.036 337.919 163.485 338.175 163.897 338.673C164.296 339.15 163.805 339.854 163.236 339.776H163.229Z" fill="#3C3575"/>
<path d="M160.355 346.186C160.369 346.136 160.447 346.25 160.447 346.3C160.355 347.559 160.454 349.017 161.578 349.487C161.614 349.501 161.607 349.565 161.564 349.558C160.184 349.302 160.063 347.367 160.355 346.186Z" fill="#3C3575"/>
<path d="M161.536 344.92C163.57 344.855 163.556 348.925 161.671 348.989C159.814 349.053 159.835 344.976 161.536 344.92Z" fill="#3C3575"/>
<path d="M162.332 345.14C162.688 345.375 163.036 345.78 163.463 345.823C163.961 345.873 164.338 345.446 164.666 345.04C164.701 344.998 164.737 345.04 164.737 345.09C164.744 345.873 164.445 346.67 163.606 346.783C162.844 346.883 162.297 346.193 162.105 345.41C162.069 345.268 162.197 345.048 162.339 345.147L162.332 345.14Z" fill="#3C3575"/>
<path d="M152.657 345.254C152.65 345.204 152.558 345.311 152.558 345.361C152.579 346.62 152.394 348.071 151.249 348.476C151.213 348.491 151.213 348.555 151.256 348.548C152.65 348.37 152.878 346.442 152.657 345.254Z" fill="#3C3575"/>
<path d="M151.548 343.924C149.52 343.746 149.307 347.808 151.185 347.979C153.034 348.142 153.248 344.073 151.548 343.924Z" fill="#3C3575"/>
<path d="M150.68 344.144C150.345 344.343 150.011 344.72 149.62 344.72C149.172 344.72 148.866 344.272 148.602 343.831C148.574 343.788 148.538 343.817 148.538 343.874C148.474 344.649 148.688 345.474 149.428 345.659C150.104 345.83 150.637 345.19 150.865 344.429C150.907 344.286 150.808 344.066 150.673 344.144H150.68Z" fill="#3C3575"/>
<path d="M159.11 355.975C158.818 356.281 158.533 356.7 158.078 356.757C157.644 356.814 157.118 356.636 156.712 356.494C156.669 356.48 156.634 356.522 156.662 356.558C157.011 357.028 157.708 357.305 158.291 357.177C158.861 357.056 159.117 356.551 159.238 356.024C159.252 355.953 159.159 355.925 159.117 355.975H159.11Z" fill="#3C3575"/>
<path d="M153.909 351.329C153.909 351.329 153.618 353.207 153.603 354.097C153.603 354.182 153.817 354.225 154.116 354.246C154.13 354.246 154.137 354.253 154.151 354.246C155.716 354.516 157.303 353.997 158.277 352.731C158.341 352.645 158.227 352.553 158.149 352.603C156.961 353.442 155.666 353.648 154.272 353.648C154.215 353.399 154.877 350.447 154.734 350.433C154.251 350.383 153.29 350.696 152.707 350.86C153.198 346.926 154.315 343.105 154.749 339.179C154.763 339.036 154.564 338.994 154.521 339.115C153.063 343.041 152.401 347.552 151.789 351.607C151.711 352.112 153.546 351.471 153.909 351.329Z" fill="#3C3575"/>
<path d="M154.4 353.912C154.4 353.912 155.176 355.107 156.307 355.59C156.727 355.768 157.182 355.861 157.666 355.761C158.669 355.562 158.754 354.659 158.619 353.869C158.512 353.222 158.249 352.652 158.249 352.652C158.249 352.652 156.719 353.912 154.4 353.919V353.912Z" fill="#3C3575"/>
<path d="M156.307 355.59C156.726 355.768 157.182 355.861 157.666 355.761C158.669 355.562 158.754 354.659 158.619 353.869C157.552 353.912 156.456 354.566 156.307 355.59Z" fill="#E6A2B5"/>
<path d="M176.525 349.067C174.526 348.79 169.731 342.835 170.343 333.11C170.343 333.11 170.392 341.882 170.947 343.212C171.502 344.542 168.265 339.861 168.657 332.015C168.657 332.015 164.068 334.796 160.283 335.536C156.499 336.276 154.244 336.063 154.002 335.771C153.76 335.479 159.337 334.206 160.945 332.627C160.945 332.627 150.737 336.411 146.176 336.397C145.65 336.397 145.885 325.555 153.262 321.536C160.639 317.516 171.353 323.35 174.106 326.473C174.106 326.473 177.57 327.255 180.971 332.747C184.364 338.239 178.673 349.373 176.518 349.067H176.525Z" fill="#3C3575"/>
<path d="M173.893 349.999C173.893 349.999 177.82 344.137 180.473 345.524C183.127 346.911 180.253 355.356 177.194 356.565C174.135 357.774 172.961 354.964 172.961 354.964L173.893 349.999Z" fill="#FFC4C0"/>
<path d="M179.591 347.922C179.641 347.922 179.655 347.986 179.612 348.007C177.471 348.925 176.368 350.952 175.614 353.044C176.24 352.233 177.108 351.777 178.196 352.517C178.253 352.553 178.196 352.645 178.14 352.631C177.25 352.46 176.617 352.631 176.034 353.342C175.621 353.855 175.344 354.495 175.052 355.078C174.952 355.27 174.604 355.178 174.675 354.95C174.675 354.936 174.689 354.915 174.689 354.9C174.583 352.147 176.646 348.249 179.598 347.914L179.591 347.922Z" fill="#3C3575"/>
</g>
<path d="M185 88C209.301 88 229 68.3005 229 44C229 19.6995 209.301 0 185 0C160.699 0 141 19.6995 141 44C141 68.3005 160.699 88 185 88Z" fill="#E0F8F3"/>
<mask id="mask1_83_492" style="mask-type:luminance" maskUnits="userSpaceOnUse" x="141" y="0" width="88" height="88">
<path d="M185 88C209.301 88 229 68.3005 229 44C229 19.6995 209.301 0 185 0C160.699 0 141 19.6995 141 44C141 68.3005 160.699 88 185 88Z" fill="white"/>
</mask>
<g mask="url(#mask1_83_492)">
<path d="M227.065 148.028H150.91C150.59 145.118 162.257 83.2336 175.958 63.3358C177.516 61.0807 190.826 59.4374 195.721 65.0503C221.616 94.7867 227.691 147.309 227.065 148.021V148.028Z" fill="#E6A2B5"/>
<path d="M174.151 68.4792C171.989 74.0779 163.836 93.7125 159.404 107.805C156.43 117.26 155.299 125.199 154.645 127.283C154.645 127.283 177.132 120.063 182.197 120.049C189.994 120.027 202.5 136.311 199.434 138.353C194.611 141.561 171.619 152.474 153.257 155.896C143.277 157.76 124.474 145.076 125.961 134.988C128.046 120.831 153.62 83.5253 163.352 72.9468C168.403 67.4548 176.783 61.6569 174.151 68.4792Z" fill="#EB9481"/>
<path d="M124.588 137.976C125.058 148.17 137.813 156.757 145.211 157.205C157.967 157.98 196.24 146.833 196.24 146.833L181.365 118.17C181.365 118.17 155.328 127.006 154.666 127.255V127.241C154.894 126.48 161.31 102.37 164.184 94.3741C164.341 93.9331 164.512 93.4849 164.682 93.0082C165.508 90.7958 166.639 87.8719 167.891 84.7133L167.905 84.692C168.595 82.9419 169.328 81.1208 170.054 79.3138V79.2996C173.198 71.4884 176.264 64.0543 176.264 64.0543C171.882 64.7728 167.549 67.0778 160.443 74.5403C153.35 81.9887 123.827 121.144 124.602 137.962L124.588 137.976Z" fill="#E6A2B5"/>
<path d="M146.698 131.495L154.652 127.276L154.666 127.262V127.248C154.894 126.487 161.31 102.377 164.185 94.3813C164.341 93.9402 164.512 93.492 164.683 93.0154C165.508 90.8029 166.639 87.8791 167.891 84.7205L146.705 131.481L146.698 131.495Z" fill="#3C3575"/>
<path d="M145.901 128.82C147.901 128.848 159.944 125.626 161.702 127.283C172.394 137.364 175.78 135.336 178.057 136.645C195.678 146.783 219.211 158.692 227.613 158.77C240.354 158.877 245.426 148.184 243.306 138.082C239.123 118.113 212.19 79.1786 200.003 68.8349C193.544 63.3571 194.056 71.6165 196.724 80.6014C198.289 85.8658 201.035 93.6983 203.831 101.381C206.306 108.225 212.873 125.711 212.986 126.124V126.138C212.986 126.138 213.008 126.174 213.008 126.188C213.015 126.238 212.972 126.245 212.865 126.216C212.303 126.117 197.236 119.01 182.083 115.111C176.741 113.738 165.621 111.775 161.638 113.561C159.269 114.621 159.226 116.036 159.226 116.036C159.226 116.036 157.327 115.865 155.32 117.516C153.99 118.611 153.577 120.162 153.577 120.162C153.577 120.162 151.5 120.454 150.419 121.656C149.131 123.093 149.017 124.616 149.017 124.616C146.215 125.363 145.916 128.834 145.916 128.834L145.901 128.82Z" fill="#EB9481"/>
<path d="M193.359 118.128C190.57 117.182 189.311 117.182 189.311 117.182L173.454 143.959C173.454 143.959 217.127 159.68 226.09 160.598C235.054 161.516 245.255 154.459 245.426 143.197C245.668 127.376 219.866 89.3801 206.89 74.6897C200.942 67.9527 194.006 63.0654 192.235 64.1681C190.143 65.47 193.942 73.9356 195.941 80.2528C199.633 91.9126 212.858 126.202 212.858 126.202C212.858 126.202 196.674 119.252 193.352 118.128H193.359Z" fill="#E6A2B5"/>
<path d="M177.409 74.5617C181.514 76.0343 189.482 70.4142 192.932 65.5198C193.167 65.1855 193.046 61.3439 193.117 56.6771C193.174 53.8458 193.302 50.6943 193.629 47.8273L175.147 50.1536C175.147 50.1536 176.236 56.3641 175.638 61.3652C175.581 61.785 175.496 62.1691 175.382 62.5248C175.368 62.5746 175.346 62.6386 175.332 62.7169C174.713 64.908 173.447 73.1318 177.417 74.5617H177.409Z" fill="#EB9481"/>
<path d="M175.318 62.7169C175.282 62.8378 175.247 62.9659 175.225 63.1224C186.295 62.6529 190.499 57.7869 193.224 53.1201C193.309 51.3416 193.423 49.5347 193.629 47.8273L175.14 50.1536C175.14 50.1536 176.228 56.3712 175.624 61.3652C175.574 61.7779 175.481 62.162 175.361 62.5248C175.346 62.5746 175.339 62.6458 175.311 62.7169H175.318Z" fill="#3C3575"/>
<path d="M198.623 24.8421C200.566 31.266 197.115 49.805 192.534 53.924C185.897 59.8998 175.055 60.4333 169.99 52.4657C165.074 44.7399 169.997 20.6662 175.112 16.9242C182.638 11.4109 195.757 15.3591 198.623 24.8492V24.8421Z" fill="#EB9481"/>
<path d="M182.852 35.2284C182.873 35.1858 182.937 35.3067 182.93 35.3565C182.667 36.6015 182.567 38.0669 183.627 38.6859C183.663 38.7072 183.641 38.7641 183.606 38.757C182.261 38.3159 182.411 36.3667 182.859 35.2284H182.852Z" fill="#3C3575"/>
<path d="M184.203 34.1258C186.238 34.3392 185.669 38.3942 183.784 38.2021C181.927 38.01 182.496 33.9479 184.203 34.1258Z" fill="#3C3575"/>
<path d="M175.19 34.076C175.19 34.0262 175.083 34.1187 175.076 34.1756C174.941 35.4419 174.571 36.8647 173.376 37.1208C173.34 37.1279 173.333 37.1919 173.376 37.1919C174.792 37.1919 175.261 35.2996 175.19 34.0831V34.076Z" fill="#3C3575"/>
<path d="M174.251 32.6034C172.252 32.1623 171.519 36.1959 173.376 36.6014C175.197 36.9998 175.93 32.9662 174.251 32.6034Z" fill="#3C3575"/>
<path d="M186.067 32.4967C185.534 32.2762 185.078 31.9916 184.573 31.7213C184.004 31.4154 183.52 31.2375 183.2 30.64C183.03 30.3198 183.193 29.8147 183.485 29.6227C184.168 29.1674 184.957 29.3665 185.662 29.708C186.423 30.0779 186.914 30.5546 187.269 31.3158C187.618 32.0556 186.772 32.7884 186.067 32.5038V32.4967Z" fill="#3C3575"/>
<path d="M172.97 30.3411C173.547 30.3269 174.073 30.2202 174.642 30.1491C175.282 30.0708 175.802 30.0708 176.314 29.6297C176.584 29.395 176.62 28.8614 176.413 28.5769C175.937 27.9082 175.126 27.8157 174.35 27.8797C173.511 27.9508 172.878 28.2212 172.273 28.8045C171.683 29.3736 172.216 30.3625 172.977 30.3411H172.97Z" fill="#3C3575"/>
<path d="M182.148 46.4543C181.899 46.8029 181.671 47.2582 181.223 47.372C180.796 47.4858 180.248 47.372 179.821 47.2938C179.779 47.2867 179.743 47.3365 179.779 47.3649C180.191 47.7846 180.924 47.9696 181.486 47.7633C182.034 47.5641 182.226 47.0234 182.276 46.4828C182.276 46.4045 182.183 46.3974 182.148 46.4472V46.4543Z" fill="#3C3575"/>
<path d="M180.881 42.8689C180.02 43.8577 178.903 44.313 177.758 44.3699C177.246 44.3984 176.719 44.3415 176.207 44.2205C176.108 44.2063 176.008 44.1778 175.915 44.1423C175.823 44.1209 175.745 44.0925 175.645 44.064C175.503 44.0213 175.439 43.8862 175.432 43.7439C175.439 43.687 175.446 43.6514 175.46 43.6087L175.474 43.4878C175.581 42.5132 175.887 41.0548 175.887 41.0548C175.51 41.1828 173.589 41.7377 173.689 41.2398C174.528 37.0852 175.46 32.4682 177.175 28.52C177.224 28.3848 177.431 28.4488 177.402 28.584C176.755 32.6034 175.403 36.4876 174.685 40.5141C175.289 40.379 176.285 40.1015 176.79 40.1869C176.926 40.2438 176.157 42.9969 176.143 43.438C176.143 43.438 176.143 43.4593 176.143 43.4878C177.737 43.9217 179.039 43.6087 180.767 42.7337C180.874 42.6768 180.959 42.7764 180.867 42.8617L180.881 42.8689Z" fill="#3C3575"/>
<path d="M176.869 44.2845C176.869 44.2845 177.651 45.4726 178.783 45.9492C179.202 46.1271 179.658 46.2124 180.148 46.1128C181.152 45.9065 181.23 45.0031 181.087 44.2134C180.974 43.566 180.71 42.9969 180.71 42.9969C180.71 42.9969 179.188 44.2703 176.869 44.2774V44.2845Z" fill="#3C3575"/>
<path d="M178.782 45.9493C179.202 46.1271 179.657 46.2125 180.148 46.1129C181.151 45.9066 181.23 45.0031 181.087 44.2134C180.02 44.2632 178.932 44.9248 178.782 45.9493Z" fill="#E6A2B5"/>
<path d="M197.3 38.8851C193.772 38.9633 193.885 32.8168 193.885 32.8168C193.885 32.8168 186.814 31.8066 185.996 22.6936C185.996 22.6936 175.823 26.336 170.495 21.1072C165.166 15.8784 179.074 2.682 195.5 14.8754C195.5 14.8754 203.247 16.1345 204.485 22.4446C205.723 28.7547 201.561 38.7926 197.3 38.8851Z" fill="#3C3575"/>
<path d="M186.224 21.6479C186.266 21.5554 186.409 21.5981 186.395 21.6977C185.299 27.7446 189.233 33.2152 195.678 32.7386C195.892 32.7244 195.934 33.0374 195.721 33.0729C189.354 34.1898 183.385 27.8726 186.224 21.6479Z" fill="#3C3575"/>
<path d="M180.404 9.84576C180.404 9.84576 180.419 9.86711 180.404 9.86711C178.242 10.1872 176.029 10.5785 174.045 11.546C171.064 12.9902 167.187 16.6965 169.321 20.2962C172.252 25.2404 179.743 23.8176 184.317 22.5869C184.616 22.5087 184.794 22.9142 184.502 23.0493C179.906 25.1551 170.303 25.8238 168.289 19.7555C166.056 13.0328 175.624 10.0236 180.404 9.85289V9.84576Z" fill="#3C3575"/>
<path d="M194.611 39.945C194.611 39.945 198.944 34.0475 201.626 35.6055C204.315 37.1635 200.957 45.7785 197.734 46.8954C194.512 48.0123 193.423 45.0458 193.423 45.0458L194.611 39.945Z" fill="#EB9481"/>
<path d="M200.601 38.0456C200.651 38.0456 200.658 38.1167 200.615 38.131C198.353 38.9846 197.13 41.0335 196.255 43.1676C196.937 42.3567 197.855 41.9227 198.951 42.7408C199.008 42.7835 198.951 42.876 198.887 42.8618C197.976 42.6412 197.307 42.7906 196.674 43.5091C196.226 44.0213 195.906 44.6687 195.579 45.2663C195.472 45.4655 195.109 45.3517 195.195 45.1169C195.195 45.1027 195.209 45.0813 195.216 45.0671C195.223 42.2073 197.535 38.2661 200.608 38.0527L200.601 38.0456Z" fill="#3C3575"/>
<path d="M173.931 66.7789C173.938 66.7362 174.002 66.7434 173.995 66.7861C173.604 70.7485 172.963 79.954 179.216 79.6197C181.735 79.4845 184.082 77.9977 186.046 76.5322C188.066 75.0241 189.88 73.2598 191.531 71.3603C193.359 69.2546 195.244 67.035 196.703 64.6519C196.767 64.5523 196.916 64.6661 196.852 64.7657C195.287 67.1418 193.964 69.6174 192.171 71.8512C190.442 73.9925 188.493 75.9773 186.252 77.5851C184.146 79.0861 181.657 80.5658 178.996 80.5801C176.463 80.5943 174.678 78.9652 174.023 76.6033C173.162 73.5016 173.34 69.9091 173.938 66.7789H173.931Z" fill="#3C3575"/>
<path d="M175.19 62.8805L180.105 73.7151L193.195 59.1599L197.279 63.4638C197.279 63.4638 184.851 86.2215 184.722 85.2255L179.757 75.9204L173.489 82.821L173.29 66.1956L175.197 62.8805H175.19Z" fill="#E0F8F3"/>
<path d="M172.92 74.6044C172.977 71.8584 172.963 69.091 173.148 66.3522C173.148 66.2526 173.305 66.2028 173.333 66.3166C174.002 68.9345 173.717 79.4348 173.838 81.946C173.845 81.9389 173.86 81.9247 173.867 81.9176C174.13 81.6188 179.693 75.828 179.75 75.9134C180.803 77.3788 184.445 84.1514 184.701 84.7774C186.665 81.1635 194.227 68.0026 196.589 64.5666C196.66 64.467 196.809 64.5381 196.759 64.6519C195.052 68.4508 185.057 86.1646 184.893 86.1219C184.787 86.2144 180.262 77.8697 179.7 76.2833C178.768 77.5354 173.184 84.0375 173.148 83.6249C172.892 80.886 172.871 77.3504 172.928 74.6044H172.92Z" fill="#3C3575"/>
</g>
<path d="M44 243C68.3005 243 88 223.301 88 199C88 174.699 68.3005 155 44 155C19.6995 155 0 174.699 0 199C0 223.301 19.6995 243 44 243Z" fill="#FFE2E2"/>
<mask id="mask2_83_492" style="mask-type:luminance" maskUnits="userSpaceOnUse" x="0" y="155" width="88" height="88">
<path d="M44 243C68.3005 243 88 223.301 88 199C88 174.699 68.3005 155 44 155C19.6995 155 0 174.699 0 199C0 223.301 19.6995 243 44 243Z" fill="white"/>
</mask>
<g mask="url(#mask2_83_492)">
<path d="M26.0728 197.029C25.6886 200.963 25.2974 204.912 25.0626 208.86C24.9203 211.272 24.9274 213.662 25.0057 216.059C25.7171 216.892 26.5779 217.703 27.6165 218.464C27.5881 217.852 27.5738 217.247 27.5525 216.657C27.4529 213.79 27.5881 210.959 27.7517 208.106C27.7517 208.006 27.8868 208.035 27.8797 208.134C27.8086 211.072 27.9366 214.053 28.1003 216.991C28.1358 217.632 28.1856 218.272 28.2497 218.912C29.082 219.474 30.021 220.015 31.0739 220.52C31.017 219.816 30.9743 219.111 30.9316 218.428C30.8249 216.806 30.7467 215.177 30.7182 213.548C30.6613 210.333 30.7822 207.138 31.0597 203.951C31.0668 203.816 31.2375 203.859 31.2375 203.987C31.1451 207.274 31.1593 210.582 31.2731 213.875C31.33 215.433 31.4012 216.998 31.515 218.556C31.5719 219.303 31.643 220.05 31.7213 220.804C33.3006 221.502 35.1289 222.128 37.2489 222.64C42.6413 223.956 48.3822 223.266 53.6893 221.871C58.228 220.676 62.6102 218.464 66.2312 215.006C64.7444 212.652 63.6417 209.856 62.8592 207.21C62.8379 207.117 62.9375 207.074 62.973 207.16C63.7271 208.896 64.5452 210.582 65.4274 212.239C65.84 213.015 66.2881 213.769 66.7363 214.516C66.7932 214.459 66.843 214.409 66.8928 214.352C67.2414 214.003 67.6042 213.626 67.9599 213.221C67.0849 211.677 66.3522 209.998 65.655 208.369C64.6448 206.029 63.7769 203.645 63.158 201.148C63.1153 200.985 63.3074 200.899 63.3714 201.056C64.3318 203.347 65.2282 205.659 66.217 207.928C66.9142 209.529 67.7038 211.08 68.4366 212.659C69.461 211.385 70.2933 209.863 70.151 208.035C70.0301 206.527 69.3187 205.189 68.7282 203.88C68.0595 202.408 67.4691 200.899 66.9426 199.356C65.8542 196.183 65.0645 192.875 64.595 189.517C64.1611 186.401 64.1966 183.235 63.7129 180.134C63.3003 177.466 62.3399 175.019 60.5258 173.283C58.9821 171.81 57.1324 170.957 55.233 170.509C55.1974 170.43 45.4228 161.773 33.6136 168.026C23.9742 173.126 21.5341 205.424 21.8613 208.632C22.0605 210.525 22.6652 212.858 24.3014 215.127C24.2445 213.1 24.3299 211.072 24.4437 209.102C24.6856 205.011 25.2831 200.999 25.9092 196.973C25.9305 196.844 26.1012 196.88 26.087 197.008L26.0728 197.029Z" fill="#3C3575"/>
<path d="M30.7609 222.889C12.108 243.868 -10.4718 287.142 -5.41371 295.409C0.220567 304.621 27.1328 274.743 26.208 273.391C25.4254 272.238 34.1685 246.358 40.5213 227.427C46.867 208.519 35.3779 217.696 30.7609 222.889Z" fill="#F7A9A0"/>
<path d="M30.7609 222.889C12.108 243.868 -10.4718 287.142 -5.41371 295.409C0.220567 304.621 27.1328 274.743 26.208 273.391C25.4254 272.238 34.1685 246.358 40.5213 227.427C46.867 208.519 35.3779 217.696 30.7609 222.889Z" fill="#BB4D9B"/>
<path d="M39.3261 227.492C39.3617 227.307 39.4328 227.114 39.5111 226.944C39.5965 226.752 39.6818 226.56 39.7885 226.375C39.8383 226.289 39.881 226.204 39.9379 226.126C39.9664 226.083 39.9877 226.047 40.0233 226.012C40.0304 226.005 40.0446 225.998 40.0518 225.99C40.0518 225.983 40.0446 225.976 40.0518 225.969C40.0944 225.912 40.13 225.919 40.194 225.905C40.2581 225.891 40.3079 225.919 40.3434 225.969C40.4572 226.126 40.4217 226.332 40.4146 226.517C40.4075 226.709 40.379 226.901 40.3505 227.1C40.315 227.321 40.2794 227.548 40.194 227.755C40.1514 227.847 40.13 227.911 40.0589 227.99C40.0304 228.032 39.9948 228.061 39.945 228.082C39.9166 228.103 39.9095 228.103 39.9379 228.082C39.8952 228.11 39.8668 228.146 39.8241 228.174C39.7459 228.196 39.7316 228.203 39.7672 228.203C39.7601 228.217 39.7459 228.231 39.7387 228.246C39.6605 228.374 39.4542 228.31 39.4542 228.16C39.4542 228.146 39.4542 228.125 39.4542 228.11C39.4897 228.132 39.4755 228.11 39.4257 228.061C39.3973 228.011 39.3973 227.968 39.3759 227.918C39.383 227.954 39.383 227.954 39.3759 227.918C39.3546 227.883 39.3404 227.84 39.3332 227.797C39.3048 227.691 39.3261 227.605 39.3404 227.499L39.3261 227.492Z" fill="#3C3575"/>
<path d="M37.7751 229.498C37.7751 229.498 37.7751 229.483 37.7823 229.476C37.7894 229.455 37.7894 229.455 37.7751 229.498Z" fill="#3C3575"/>
<path d="M37.3057 228.423C37.4053 228.274 37.4978 228.125 37.6045 227.982C37.7183 227.819 37.8322 227.641 38.01 227.541C38.1381 227.47 38.2732 227.57 38.2803 227.705C38.2803 227.897 38.195 228.082 38.1381 228.26C38.0812 228.431 38.0314 228.594 37.9887 228.765C37.946 228.95 37.9104 229.135 37.8535 229.32C37.8393 229.37 37.8108 229.419 37.7895 229.469C37.7681 229.512 37.7112 229.64 37.7255 229.626C37.6045 229.825 37.3128 229.917 37.1137 229.789C36.6086 229.476 37.0852 228.765 37.3128 228.423H37.3057Z" fill="#3C3575"/>
<path d="M26.0799 234.392C26.0372 234.115 26.3218 233.894 26.4925 233.709C26.5494 233.645 26.6134 233.574 26.6703 233.51C26.6988 233.481 26.7272 233.446 26.7557 233.41C26.7272 233.446 26.7699 233.396 26.7699 233.389C26.7913 233.361 26.8126 233.339 26.8411 233.325C26.8909 233.275 26.9407 233.225 26.9833 233.183C27.0545 233.112 27.1541 233.183 27.1612 233.261C27.1612 233.304 27.1754 233.339 27.1754 233.382C27.1754 233.417 27.1754 233.46 27.1754 233.496C27.1683 233.46 27.1612 233.425 27.147 233.389C27.2039 233.51 27.1612 233.645 27.1327 233.773C27.1114 233.873 27.0829 233.965 27.0474 234.058C26.9549 234.314 26.8126 234.705 26.4996 234.726C26.4711 234.734 26.4427 234.741 26.4142 234.741C26.3858 234.741 26.3573 234.755 26.3289 234.755C26.2719 234.755 26.2221 234.734 26.1723 234.698C26.1012 234.641 26.087 234.563 26.0799 234.485C26.0799 234.456 26.0728 234.428 26.0728 234.399L26.0799 234.392Z" fill="#3C3575"/>
<path d="M12.7695 304.977L17.4505 273.242C17.4505 273.242 9.94529 260.13 14.299 250.726C16.4973 245.959 31.5718 222.675 39.696 216.778C47.3151 211.25 57.7513 216.294 61.3011 221.103C71.5097 234.933 76.4824 259.832 82.1807 304.977H12.7695Z" fill="#BB4D9B"/>
<path d="M39.3261 227.492C39.3617 227.307 39.4328 227.114 39.5111 226.944C39.5965 226.752 39.6818 226.56 39.7885 226.375C39.8383 226.289 39.881 226.204 39.9379 226.126C39.9664 226.083 39.9877 226.047 40.0233 226.012C40.0304 226.005 40.0446 225.998 40.0518 225.99C40.0518 225.983 40.0446 225.976 40.0518 225.969C40.0944 225.912 40.13 225.919 40.194 225.905C40.2581 225.891 40.3079 225.919 40.3434 225.969C40.4572 226.126 40.4217 226.332 40.4146 226.517C40.4075 226.709 40.379 226.901 40.3505 227.1C40.315 227.321 40.2794 227.548 40.194 227.755C40.1514 227.847 40.13 227.911 40.0589 227.99C40.0304 228.032 39.9948 228.061 39.945 228.082C39.9166 228.103 39.9095 228.103 39.9379 228.082C39.8952 228.11 39.8668 228.146 39.8241 228.174C39.7459 228.196 39.7316 228.203 39.7672 228.203C39.7601 228.217 39.7459 228.231 39.7387 228.246C39.6605 228.374 39.4542 228.31 39.4542 228.16C39.4542 228.146 39.4542 228.125 39.4542 228.11C39.4897 228.132 39.4755 228.11 39.4257 228.061C39.3973 228.011 39.3973 227.968 39.3759 227.918C39.383 227.954 39.383 227.954 39.3759 227.918C39.3546 227.883 39.3404 227.84 39.3332 227.797C39.3048 227.691 39.3261 227.605 39.3404 227.499L39.3261 227.492Z" fill="#3C3575"/>
<path d="M37.7751 229.498C37.7751 229.498 37.7751 229.483 37.7823 229.476C37.7894 229.455 37.7894 229.455 37.7751 229.498Z" fill="#3C3575"/>
<path d="M37.3057 228.423C37.4053 228.274 37.4978 228.125 37.6045 227.982C37.7183 227.819 37.8322 227.641 38.01 227.541C38.1381 227.47 38.2732 227.57 38.2803 227.705C38.2803 227.897 38.195 228.082 38.1381 228.26C38.0812 228.431 38.0314 228.594 37.9887 228.765C37.946 228.95 37.9104 229.135 37.8535 229.32C37.8393 229.37 37.8108 229.419 37.7895 229.469C37.7681 229.512 37.7112 229.64 37.7255 229.626C37.6045 229.825 37.3128 229.917 37.1137 229.789C36.6086 229.476 37.0852 228.765 37.3128 228.423H37.3057Z" fill="#3C3575"/>
<path d="M39.2337 232.386C39.3119 232.144 39.4186 231.924 39.5396 231.703C39.6463 231.511 39.7743 231.354 39.9309 231.198C40.0091 231.12 40.0802 231.041 40.1798 230.992C40.2794 230.935 40.379 230.913 40.4929 230.899C40.6138 230.885 40.6849 231.027 40.6565 231.127C40.6351 231.205 40.6138 231.276 40.5853 231.354C40.5711 231.39 40.5569 231.418 40.5427 231.454C40.5427 231.454 40.5284 231.475 40.5284 231.482C40.5284 231.497 40.5071 231.532 40.5071 231.532C40.5071 231.554 40.5 231.575 40.4929 231.589C40.4929 231.589 40.4929 231.603 40.4857 231.618C40.4857 231.618 40.4857 231.625 40.4857 231.639C40.4857 231.639 40.4857 231.639 40.4857 231.646C40.4715 231.717 40.4644 231.781 40.4431 231.852C40.4217 231.945 40.4004 232.03 40.379 232.123C40.3363 232.322 40.3008 232.514 40.2296 232.699C40.1656 232.863 40.0874 232.998 39.9735 233.133C39.9593 233.147 39.9451 233.168 39.9237 233.183C39.9237 233.183 39.8526 233.247 39.8811 233.218C39.8953 233.197 39.8882 233.204 39.8597 233.247C39.8455 233.261 39.8313 233.282 39.817 233.297C39.7886 233.332 39.7459 233.361 39.7032 233.375C39.5396 233.446 39.3546 233.41 39.2621 233.247C39.2337 233.197 39.2195 233.147 39.2123 233.09C39.2123 233.09 39.2123 233.04 39.2123 233.019C39.2123 233.033 39.2123 233.04 39.2123 233.019C39.2123 233.019 39.2123 233.019 39.2123 233.005C39.2123 232.969 39.2052 232.927 39.1981 232.891C39.1981 232.863 39.1981 232.841 39.1981 232.813C39.1839 232.67 39.2052 232.514 39.2479 232.372L39.2337 232.386Z" fill="#3C3575"/>
<path d="M26.0798 234.392C26.0371 234.115 26.3216 233.894 26.4924 233.709C26.5493 233.645 26.6133 233.574 26.6702 233.51C26.6987 233.481 26.7271 233.446 26.7556 233.41C26.7271 233.446 26.7698 233.396 26.7698 233.389C26.7912 233.361 26.8125 233.339 26.8409 233.325C26.8907 233.275 26.9405 233.225 26.9832 233.183C27.0544 233.112 27.154 233.183 27.1611 233.261C27.1611 233.304 27.1753 233.339 27.1753 233.382C27.1753 233.417 27.1753 233.46 27.1753 233.496C27.1682 233.46 27.1611 233.425 27.1469 233.389C27.2038 233.51 27.1611 233.645 27.1326 233.773C27.1113 233.873 27.0828 233.965 27.0473 234.058C26.9548 234.314 26.8125 234.705 26.4995 234.726C26.471 234.734 26.4426 234.741 26.4141 234.741C26.3857 234.741 26.3572 234.755 26.3287 234.755C26.2718 234.755 26.222 234.734 26.1722 234.698C26.1011 234.641 26.0869 234.563 26.0798 234.485C26.0798 234.456 26.0726 234.428 26.0726 234.399L26.0798 234.392Z" fill="#3C3575"/>
<path d="M55.9728 226.979C56.3783 227.356 56.6842 227.861 56.9759 228.331C57.1324 228.573 57.2462 228.872 57.3245 229.149C57.3672 229.284 57.3956 229.434 57.4099 229.576C57.417 229.654 57.4383 229.74 57.4312 229.825C57.4312 229.903 57.3885 229.96 57.3743 230.038C57.3387 230.209 57.1111 230.238 57.0044 230.124C56.9901 230.109 56.983 230.102 56.9688 230.088C57.0044 230.109 57.0399 230.131 57.0755 230.152C56.8052 230.053 56.6842 229.683 56.5775 229.441C56.4708 229.178 56.3712 228.9 56.3001 228.623C56.2361 228.367 56.1649 228.103 56.0938 227.847C56.0226 227.577 55.923 227.307 55.8732 227.029C55.859 226.972 55.923 226.937 55.9657 226.979H55.9728Z" fill="#3C3575"/>
<path d="M54.9626 229.875C54.9839 229.619 54.9768 229.355 55.0124 229.099C55.0195 229.049 55.0906 229.021 55.1191 229.071C55.2258 229.298 55.3041 229.533 55.4108 229.761C55.5246 230.003 55.6455 230.252 55.7451 230.501C55.8447 230.757 55.8945 230.999 55.9301 231.269C55.9585 231.475 56.0226 231.945 55.7309 232.016C55.4534 232.087 55.2685 231.703 55.1902 231.504C55.0693 231.219 54.9839 230.949 54.9626 230.636C54.9483 230.387 54.9483 230.117 54.9626 229.868V229.875Z" fill="#3C3575"/>
<path d="M67.4051 235.21C67.4051 235.139 67.3908 235.068 67.3908 235.004C67.398 234.89 67.4051 234.769 67.4335 234.662C67.4549 234.57 67.59 234.541 67.6541 234.613C67.7252 234.698 67.7963 234.798 67.8532 234.897C67.8888 234.954 67.903 235.025 67.9457 235.082C67.9742 235.125 68.0097 235.16 68.0382 235.21C68.1662 235.416 68.2516 235.651 68.3512 235.872C68.4579 236.128 68.586 236.377 68.6571 236.64C68.7069 236.804 68.7994 237.031 68.6998 237.181L68.6856 237.223C68.6785 237.159 68.6713 237.188 68.6642 237.309C68.65 237.359 68.6287 237.401 68.6073 237.437C68.6073 237.437 68.6073 237.437 68.6073 237.444C68.6073 237.565 68.5148 237.679 68.3939 237.707C68.273 237.736 68.1805 237.679 68.1022 237.593C68.0453 237.565 67.9884 237.529 67.9315 237.48C67.9599 237.501 67.9671 237.501 67.9386 237.48C67.8959 237.451 67.8532 237.423 67.8177 237.387C67.6825 237.252 67.6327 237.081 67.5829 236.903C67.5118 236.661 67.4904 236.405 67.4549 236.163C67.4193 235.9 67.3695 235.63 67.3837 235.367C67.3837 235.317 67.4051 235.267 67.4051 235.21Z" fill="#3C3575"/>
<path d="M26.4286 231.411C24.8848 233.524 23.3909 235.673 21.9183 237.835C22.3167 236.996 22.7222 236.149 23.1206 235.31C23.149 235.246 23.0566 235.196 23.0281 235.26C22.4803 236.32 21.9752 237.394 21.4844 238.468C19.5209 241.378 17.6072 244.33 15.7718 247.318C14.9893 248.584 14.2708 249.879 13.7443 251.274C13.2321 252.625 12.9191 254.048 12.7484 255.485C12.5777 256.922 12.5705 258.366 12.6772 259.803C12.7911 261.29 12.9689 262.756 13.3033 264.214C13.6803 265.85 14.1925 267.486 14.8541 269.03C15.1814 269.791 15.53 270.545 15.8999 271.278C16.2414 271.947 16.9385 273.327 16.9314 273.377C16.7891 274.138 16.6469 274.671 16.5544 275.312C16.4548 275.966 16.3552 276.614 16.2627 277.268C16.0635 278.57 14.3775 291.247 14.1854 292.549C13.8084 295.138 13.4811 297.728 13.161 300.324C12.976 301.811 12.8764 303.319 12.6701 304.799C12.663 304.856 12.7555 304.885 12.7626 304.821C12.976 303.526 13.2962 302.252 13.5309 300.958C13.7657 299.663 14.0076 298.375 14.2494 297.08C14.7403 294.47 16.6255 280.462 17.031 277.844C17.1448 277.119 17.2587 276.393 17.3725 275.667C17.4863 274.949 17.6784 273.974 17.6499 273.249C17.6499 273.249 15.3237 268.475 14.4202 265.124C14.0431 263.716 13.6519 262.258 13.4954 260.806C13.3389 259.383 13.3246 257.946 13.4456 256.517C13.5594 255.087 13.8297 253.671 14.2708 252.305C14.719 250.896 15.3734 249.588 16.092 248.3C17.6072 245.604 19.2221 242.957 20.8583 240.332C22.7151 237.351 24.5861 234.385 26.5068 231.454C26.5424 231.404 26.4642 231.361 26.4286 231.411Z" fill="#3C3575"/>
<path d="M66.2952 227.676C86.3922 253.251 93.9757 299.201 82.821 302.779C72.6267 306.051 30.7039 295.558 18.2189 291.318C14.5481 290.073 25.8806 261.553 29.8005 262.884C34.5455 264.491 60.4688 270.631 60.9739 270.645C62.0482 270.666 56.2858 242.381 53.8173 229.562C50.3741 211.706 58.7473 218.073 66.2952 227.676Z" fill="#F7A9A0"/>
<path d="M60.6042 269.478C60.9315 269.286 54.9059 241.983 52.8856 227.733C50.8652 213.484 57.2322 214.857 66.3879 227.036C76.1981 240.083 93.6558 275.397 87.6089 301.548C85.6526 310.014 24.9845 298.155 24.9845 298.155L33.1585 263.282C33.1585 263.282 60.1063 269.777 60.6113 269.471L60.6042 269.478Z" fill="#BB4D9B"/>
<path d="M37.7754 229.498C37.7754 229.498 37.7754 229.483 37.7825 229.476C37.7896 229.455 37.7896 229.455 37.7754 229.498Z" fill="#3C3575"/>
<path d="M55.9731 226.979C56.3786 227.356 56.6845 227.861 56.9762 228.331C57.1327 228.573 57.2465 228.872 57.3247 229.149C57.3674 229.284 57.3959 229.434 57.4101 229.576C57.4172 229.654 57.4386 229.74 57.4314 229.825C57.4314 229.903 57.3888 229.96 57.3745 230.038C57.339 230.209 57.1113 230.238 57.0046 230.124C56.9904 230.11 56.9833 230.102 56.969 230.088C57.0046 230.109 57.0402 230.131 57.0757 230.152C56.8054 230.053 56.6845 229.683 56.5778 229.441C56.4711 229.178 56.3715 228.9 56.3003 228.623C56.2363 228.367 56.1652 228.103 56.094 227.847C56.0229 227.577 55.9233 227.307 55.8735 227.029C55.8593 226.972 55.9233 226.937 55.966 226.979H55.9731Z" fill="#3C3575"/>
<path d="M54.9628 229.875C54.9842 229.619 54.9771 229.355 55.0126 229.099C55.0197 229.05 55.0909 229.021 55.1193 229.071C55.226 229.298 55.3043 229.533 55.411 229.761C55.5248 230.003 55.6458 230.252 55.7454 230.501C55.845 230.757 55.8948 230.999 55.9303 231.269C55.9588 231.475 56.0228 231.945 55.7311 232.016C55.4537 232.087 55.2687 231.703 55.1905 231.504C55.0695 231.219 54.9842 230.949 54.9628 230.636C54.9486 230.387 54.9486 230.117 54.9628 229.868V229.875Z" fill="#3C3575"/>
<path d="M67.4052 235.21C67.4052 235.139 67.391 235.068 67.391 235.004C67.3981 234.89 67.4052 234.769 67.4336 234.662C67.455 234.57 67.5901 234.541 67.6542 234.613C67.7253 234.698 67.7965 234.798 67.8534 234.897C67.8889 234.954 67.9032 235.025 67.9458 235.082C67.9743 235.125 68.0099 235.16 68.0383 235.21C68.1664 235.417 68.2517 235.651 68.3513 235.872C68.458 236.128 68.5861 236.377 68.6572 236.64C68.707 236.804 68.7995 237.031 68.6999 237.181L68.6857 237.223C68.6786 237.159 68.6715 237.188 68.6643 237.309C68.6501 237.359 68.6288 237.401 68.6074 237.437C68.6074 237.437 68.6074 237.437 68.6074 237.444C68.6074 237.565 68.515 237.679 68.394 237.707C68.2731 237.736 68.1806 237.679 68.1024 237.593C68.0454 237.565 67.9885 237.529 67.9316 237.48C67.9601 237.501 67.9672 237.501 67.9387 237.48C67.896 237.451 67.8534 237.423 67.8178 237.387C67.6826 237.252 67.6328 237.081 67.583 236.903C67.5119 236.661 67.4906 236.405 67.455 236.163C67.4194 235.9 67.3696 235.63 67.3838 235.367C67.3838 235.317 67.4052 235.267 67.4052 235.21Z" fill="#3C3575"/>
<path d="M60.2982 269.763C60.3195 269.706 56.4495 250.064 56.0796 249.41C55.7025 248.734 54.8915 247.233 54.5572 246.529C53.8885 245.113 53.3051 243.669 52.6862 242.239C52.6364 242.118 52.8142 242.033 52.864 242.146C53.5328 243.534 54.3153 244.857 55.1121 246.166C55.5033 246.813 55.9017 247.46 56.293 248.094C56.3215 248.136 54.3864 237.878 54.1161 236.078C54.0948 235.943 54.2371 235.907 54.2797 236.021C54.8631 237.835 60.7321 267.572 61.287 269.848C61.287 269.848 60.9029 269.848 60.2911 269.756L60.2982 269.763Z" fill="#3C3575"/>
<path d="M53.8529 217.07C53.4972 218.272 47.2156 225.87 41.6453 225.286C39.8313 225.094 40.4431 215.149 40.4431 215.149L40.3221 214.402L38.6077 203.98L51.1354 196.916L52.9423 195.991C52.9423 195.991 53.2198 198.872 53.5399 202.465C53.5541 202.628 53.5684 202.799 53.5826 202.977C53.6039 203.176 53.6324 203.368 53.6395 203.56C53.6964 204.094 53.7462 204.641 53.7889 205.189C53.8245 205.602 53.8529 206.007 53.8743 206.448C53.9027 206.889 53.9241 207.316 53.9525 207.75C54.1517 212.083 54.0023 216.55 53.8529 217.062V217.07Z" fill="#F7A9A0"/>
<path d="M53.5328 202.472C50.1181 210.489 43.3883 213.456 40.3151 214.409L38.6006 203.987L51.1283 196.923L52.9353 195.998C52.9353 195.998 53.2127 198.879 53.5328 202.472Z" fill="#3C3575"/>
<path d="M24.7781 189.467C23.5403 207.956 34.4745 210.788 38.4654 211.051C42.0864 211.286 54.4434 211.642 57.5807 193.373C60.7251 175.111 52.5156 168.687 44.2633 167.706C36.0111 166.724 26.016 170.971 24.7781 189.467Z" fill="#F7A9A0"/>
<path d="M30.3979 184.765C30.8319 184.729 31.2303 184.623 31.6571 184.544C32.1409 184.459 32.5321 184.438 32.902 184.075C33.1012 183.883 33.1012 183.477 32.9305 183.271C32.5392 182.787 31.9203 182.745 31.337 182.83C30.7038 182.922 30.2343 183.15 29.8004 183.627C29.3806 184.082 29.8217 184.808 30.3979 184.765Z" fill="#3C3575"/>
<path d="M43.4025 185.683C42.9685 185.626 42.5772 185.498 42.1575 185.391C41.6809 185.277 41.2896 185.234 40.941 184.857C40.7561 184.658 40.7774 184.253 40.9553 184.053C41.375 183.591 41.9939 183.584 42.5773 183.705C43.2104 183.833 43.6586 184.089 44.0712 184.587C44.4696 185.064 43.9787 185.768 43.4096 185.69L43.4025 185.683Z" fill="#3C3575"/>
<path d="M40.372 190.399C40.3862 190.349 40.4645 190.463 40.4645 190.513C40.372 191.772 40.4716 193.231 41.5956 193.7C41.6311 193.714 41.624 193.778 41.5813 193.771C40.2012 193.515 40.0803 191.58 40.372 190.399Z" fill="#3C3575"/>
<path d="M41.5528 189.133C43.5874 189.069 43.5731 193.138 41.6879 193.202C39.8312 193.266 39.8525 189.19 41.5528 189.133Z" fill="#3C3575"/>
<path d="M42.3496 189.346C42.7053 189.581 43.0539 189.987 43.4807 190.029C43.9787 190.079 44.3558 189.652 44.683 189.247C44.7186 189.204 44.7542 189.247 44.7542 189.296C44.7613 190.079 44.4625 190.876 43.623 190.99C42.8618 191.096 42.3141 190.399 42.122 189.617C42.0864 189.474 42.2145 189.254 42.3567 189.353L42.3496 189.346Z" fill="#3C3575"/>
<path d="M32.6745 189.467C32.6674 189.417 32.5749 189.524 32.5749 189.574C32.5963 190.833 32.4113 192.284 31.266 192.69C31.2304 192.704 31.2304 192.768 31.2731 192.761C32.6674 192.583 32.8951 190.655 32.6745 189.467Z" fill="#3C3575"/>
<path d="M31.5647 188.137C29.5372 187.959 29.3238 192.021 31.2019 192.192C33.0515 192.356 33.265 188.286 31.5647 188.137Z" fill="#3C3575"/>
<path d="M30.7039 188.357C30.3696 188.557 30.0352 188.934 29.6439 188.934C29.1958 188.934 28.8899 188.486 28.6266 188.044C28.5982 188.002 28.5626 188.03 28.5626 188.087C28.4986 188.863 28.712 189.688 29.4519 189.873C30.1277 190.043 30.6612 189.403 30.8889 188.642C30.9316 188.5 30.832 188.279 30.6968 188.357H30.7039Z" fill="#3C3575"/>
<path d="M39.127 200.188C38.8353 200.494 38.5508 200.914 38.0955 200.971C37.6615 201.027 37.1351 200.85 36.7296 200.707C36.6869 200.693 36.6513 200.736 36.6798 200.771C37.0284 201.241 37.7255 201.518 38.3089 201.39C38.878 201.269 39.1341 200.764 39.255 200.238C39.2693 200.167 39.1768 200.138 39.1341 200.188H39.127Z" fill="#3C3575"/>
<path d="M33.9265 195.543C33.9265 195.543 33.6348 197.421 33.6206 198.31C33.6206 198.395 33.834 198.438 34.1328 198.459C34.147 198.459 34.1541 198.466 34.1684 198.459C35.7334 198.73 37.3199 198.21 38.2945 196.944C38.3585 196.859 38.2447 196.766 38.1664 196.816C36.9784 197.655 35.6836 197.862 34.2893 197.862C34.2324 197.613 34.894 194.66 34.7517 194.646C34.268 194.596 33.3076 194.909 32.7242 195.073C33.2151 191.139 34.332 187.319 34.7659 183.392C34.7802 183.25 34.581 183.207 34.5383 183.328C33.0799 187.255 32.4183 191.765 31.8065 195.82C31.7283 196.325 33.5637 195.685 33.9265 195.543Z" fill="#3C3575"/>
<path d="M35.7192 171.426C35.7192 171.426 35.2284 174.329 36.3879 176.285C38.7711 180.312 43.7438 178.754 45.629 180.262C47.3933 181.677 47.1158 184.957 48.7236 186.387C50.9503 188.365 53.6465 187.283 54.116 188.706C54.5784 190.129 55.9585 194.675 57.8651 195.094C59.7716 195.521 65.534 163.971 41.3891 167.101C41.3891 167.101 37.9388 166.041 33.0159 169.1C27.5808 172.472 25.9375 182.054 25.9375 182.054C25.9375 182.054 26.0442 181.919 26.8125 181.115C27.8867 179.977 28.2567 178.988 29.0534 178.241C30.3055 177.075 31.0809 177.402 32.3899 176.257C34.3818 174.507 35.7264 171.433 35.7264 171.433L35.7192 171.426Z" fill="#3C3575"/>
<path d="M35.9684 170.053C35.6981 171.291 35.5629 172.564 35.5914 173.824C35.6056 175.069 35.7835 176.356 36.4308 177.381C37.0782 178.369 38.2378 178.981 39.4045 179.294C40.5925 179.614 41.873 179.621 43.1607 180.006C43.7938 180.219 44.427 180.532 44.8965 181.08C45.3589 181.621 45.5794 182.268 45.7715 182.88C46.1414 184.096 46.5114 185.298 47.4148 186.117C48.3041 186.928 49.549 187.354 50.7869 187.191C52.0105 187.084 53.3266 186.622 54.5644 187.049C53.291 186.721 52.0887 187.269 50.8224 187.475C49.5277 187.71 48.1333 187.319 47.116 186.458C46.0418 185.59 45.6363 184.217 45.2593 183.05C45.0601 182.46 44.8396 181.884 44.4625 181.457C44.0997 181.037 43.5448 180.76 42.9828 180.582C41.8304 180.212 40.5285 180.176 39.2693 179.821C38.6362 179.65 38.0173 179.387 37.4553 179.031C36.9075 178.682 36.3597 178.227 36.0396 177.622C35.3709 176.442 35.2641 175.097 35.2997 173.824C35.3709 172.543 35.6127 171.277 35.9755 170.06L35.9684 170.053Z" fill="#3C3575"/>
<path d="M35.5985 171.199C35.4704 172.372 35.1645 173.532 34.7235 174.642C34.2895 175.751 33.5568 176.819 32.5324 177.53C32.0202 177.893 31.4155 178.106 30.9175 178.327C30.4408 178.547 29.9429 178.903 29.6868 179.323C29.4093 179.799 29.1674 180.39 28.7619 180.845C28.3565 181.3 27.8514 181.656 27.3036 181.877C27.7802 181.535 28.2284 181.151 28.5272 180.66C28.8616 180.191 29.0252 179.664 29.2813 179.095C29.5872 178.469 30.1207 178.128 30.6756 177.815C31.2376 177.544 31.7569 177.359 32.198 177.032C33.1157 176.392 33.7844 175.467 34.2895 174.435C34.8088 173.404 35.2143 172.308 35.6056 171.191L35.5985 171.199Z" fill="#3C3575"/>
<path d="M36.6513 190.918L37.2631 190.285C36.3667 189.332 34.2183 187.959 32.4967 189.56L33.0658 190.236C34.6096 188.799 36.5659 190.833 36.6513 190.918Z" fill="#6F84F0"/>
<path d="M63.0727 195.457L63.9122 195.123C63.7557 194.732 62.3186 191.296 60.3409 190.783C58.4913 190.307 50.3245 190.3 49.8123 190.307V191.21C53.2981 191.21 58.6905 191.288 60.1133 191.658C61.4152 192 62.6957 194.518 63.0727 195.464V195.457Z" fill="#6F84F0"/>
<path d="M37.3058 194.433C36.4237 193.48 35.7549 190.328 37.0924 189.062C39.5823 186.707 50.3173 186.743 50.7726 186.75H51.3701L51.2421 187.333C51.1852 187.589 49.8193 193.558 47.6566 195.151C46.8741 195.735 45.5082 196.041 44.0072 196.105C41.4034 196.218 38.4013 195.607 37.3058 194.433ZM37.7469 189.759C36.8861 190.577 37.3912 193.124 38.003 193.785C39.2835 195.166 45.2023 195.777 47.0804 194.383C48.4747 193.351 49.6628 189.638 50.1536 187.71C46.7816 187.739 39.4613 188.137 37.7397 189.766L37.7469 189.759Z" fill="#6F84F0"/>
<path d="M27.9296 194.006C26.5495 193.8 25.5037 193.181 25.0769 192.327C24.1805 190.527 24.1094 184.921 24.1094 184.687V184.11L24.6714 184.203C25.4112 184.331 31.9348 185.512 32.8952 188.172C33.5496 189.979 32.7315 192.206 31.9205 193.06C31.2589 193.75 30.199 194.027 29.203 194.07C28.7548 194.091 28.3209 194.063 27.9367 194.006H27.9296ZM25.9306 191.9C26.2151 192.469 27.0119 192.903 28.0719 193.06C29.3595 193.259 30.6614 192.982 31.2234 192.398C31.7711 191.822 32.5252 189.979 31.9917 188.5C31.3941 186.849 27.2253 185.69 25.0769 185.256C25.1267 187.12 25.3401 190.705 25.9377 191.893L25.9306 191.9Z" fill="#6F84F0"/>
<path d="M53.9098 194.006C53.9098 194.006 57.8368 188.144 60.4903 189.531C63.1438 190.919 60.2697 199.363 57.2107 200.572C54.1517 201.782 52.9779 198.972 52.9779 198.972L53.9098 194.006Z" fill="#F7A9A0"/>
<path d="M59.6081 191.936C59.6579 191.936 59.665 192 59.6295 192.021C57.4881 192.939 56.3855 194.966 55.6314 197.058C56.2574 196.247 57.1253 195.792 58.2138 196.531C58.2707 196.567 58.2138 196.659 58.1569 196.645C57.2676 196.475 56.6345 196.645 56.0511 197.357C55.6385 197.869 55.3611 198.509 55.0694 199.092C54.9698 199.285 54.6212 199.192 54.6924 198.964C54.6924 198.95 54.7066 198.929 54.7066 198.915C54.5999 196.161 56.6629 192.263 59.6152 191.929L59.6081 191.936Z" fill="#3C3575"/>
<path d="M55.4677 216.372C55.4677 216.372 55.5033 210.809 55.0338 210.219C54.5643 209.628 47.5356 214.38 45.2378 214.629C42.94 214.878 39.6462 214.153 39.0985 214.366C38.5507 214.58 38.3942 219.808 38.4226 220.093C38.4511 220.378 39.8597 225.777 41.4816 226.033C43.1036 226.289 50.4168 225.115 55.4749 216.372H55.4677Z" fill="#BB4D9B"/>
<path d="M54.0023 211.706C53.8529 212.346 53.8601 212.894 53.8672 213.463C53.9027 214.025 53.9454 214.58 54.1588 215.206C54.5501 214.665 54.6426 214.039 54.6284 213.434C54.5928 212.83 54.4363 212.204 53.9952 211.713L54.0023 211.706Z" fill="#3C3575"/>
<path d="M52.2452 212.872C52.0602 213.591 52.0531 214.238 52.0531 214.9C52.0744 215.561 52.1242 216.216 52.3519 216.92C52.7289 216.28 52.8214 215.576 52.8143 214.885C52.7858 214.195 52.6578 213.491 52.2452 212.879V212.872Z" fill="#3C3575"/>
<path d="M50.3599 214.117C50.2105 214.914 50.2105 215.64 50.2177 216.379C50.2461 217.119 50.2888 217.852 50.5022 218.635C50.8935 217.916 50.9931 217.134 50.986 216.358C50.9575 215.59 50.801 214.8 50.3599 214.117Z" fill="#3C3575"/>
<path d="M48.5316 215.298C48.3751 216.18 48.3822 216.998 48.3893 217.824C48.4178 218.656 48.4605 219.474 48.6668 220.342C49.0651 219.531 49.1647 218.663 49.1505 217.802C49.1221 216.949 48.9727 216.074 48.5316 215.291V215.298Z" fill="#3C3575"/>
<path d="M38.9919 220.463C39.12 219.602 39.1484 218.777 39.1911 217.945C39.2124 217.112 39.2409 216.28 39.1555 215.412C38.7856 216.209 38.6575 217.07 38.6149 217.923C38.5864 218.777 38.6718 219.652 38.9919 220.463Z" fill="#3C3575"/>
<path d="M46.2695 216.187C46.0348 217.055 46.0277 217.902 46.0775 218.741C46.1557 219.581 46.2838 220.42 46.6537 221.238C46.8956 220.37 46.8956 219.524 46.8458 218.684C46.7675 217.845 46.6395 217.005 46.2695 216.187Z" fill="#3C3575"/>
<path d="M40.6565 215.896C40.3791 216.863 40.2795 217.845 40.2226 218.82C40.1799 219.801 40.1799 220.783 40.3577 221.772C40.6352 220.804 40.7348 219.823 40.7917 218.848C40.8344 217.866 40.8272 216.885 40.6565 215.896Z" fill="#3C3575"/>
<path d="M44.1351 216.145C43.9146 217.212 43.9004 218.25 43.9217 219.296C43.9644 220.335 44.0498 221.373 44.313 222.426C44.4979 221.907 44.5833 221.381 44.6402 220.854C44.6971 220.328 44.7043 219.801 44.6971 219.275C44.6473 218.222 44.5193 217.169 44.1423 216.152L44.1351 216.145Z" fill="#3C3575"/>
<path d="M42.0863 215.931C41.695 217.084 41.5883 218.279 41.5954 219.467C41.6239 220.655 41.7448 221.843 42.1645 222.988C42.3566 221.793 42.3708 220.626 42.3637 219.46C42.3353 218.293 42.2997 217.133 42.0934 215.938L42.0863 215.931Z" fill="#3C3575"/>
</g>
<defs>
<radialGradient id="paint0_radial_83_492" cx="0" cy="0" r="1" gradientUnits="userSpaceOnUse" gradientTransform="translate(34 203.5) scale(164.5 271.636)">
<stop stop-color="#806BFF"/>
<stop offset="1" stop-color="#806BFF" stop-opacity="0"/>
</radialGradient>
</defs>
</svg>
