<svg width="194" height="194" viewBox="0 0 194 194" fill="none" xmlns="http://www.w3.org/2000/svg">
<g opacity="0.35" clip-path="url(#clip0_112_106)">
<path opacity="0.05" fill-rule="evenodd" clip-rule="evenodd" d="M62.979 14.868C73.4594 10.522 84.9507 8.12372 97 8.12372C109.049 8.12372 120.541 10.522 131.021 14.868C131.454 15.0476 131.659 15.5442 131.48 15.9772C131.3 16.4102 130.804 16.6156 130.371 16.4361C120.093 12.174 108.822 9.82122 97 9.82122C85.1777 9.82122 73.9071 12.174 63.6292 16.4361C63.1962 16.6156 62.6997 16.4102 62.5201 15.9772C62.3405 15.5442 62.546 15.0476 62.979 14.868ZM15.9772 62.5201C16.4102 62.6997 16.6156 63.1962 16.4361 63.6292C12.174 73.9071 9.82122 85.1777 9.82122 97C9.82122 108.822 12.174 120.093 16.4361 130.371C16.6156 130.804 16.4102 131.3 15.9772 131.48C15.5442 131.659 15.0476 131.454 14.868 131.021C10.522 120.541 8.12372 109.049 8.12372 97C8.12372 84.9507 10.522 73.4594 14.868 62.979C15.0476 62.546 15.5442 62.3405 15.9772 62.5201ZM178.023 62.5201C178.456 62.3405 178.952 62.546 179.132 62.979C183.478 73.4594 185.876 84.9507 185.876 97C185.876 109.049 183.478 120.541 179.132 131.021C178.952 131.454 178.456 131.659 178.023 131.48C177.59 131.3 177.384 130.804 177.564 130.371C181.826 120.093 184.179 108.822 184.179 97C184.179 85.1777 181.826 73.9071 177.564 63.6292C177.384 63.1962 177.59 62.6997 178.023 62.5201ZM62.5201 178.023C62.6997 177.59 63.1962 177.384 63.6292 177.564C73.9071 181.826 85.1777 184.179 97 184.179C108.822 184.179 120.093 181.826 130.371 177.564C130.804 177.384 131.3 177.59 131.48 178.023C131.659 178.456 131.454 178.952 131.021 179.132C120.541 183.478 109.049 185.876 97 185.876C84.9507 185.876 73.4594 183.478 62.979 179.132C62.546 178.952 62.3405 178.456 62.5201 178.023Z" fill="#6C54FF"/>
<path opacity="0.1" fill-rule="evenodd" clip-rule="evenodd" d="M42.9983 31.4919C51.3561 24.5966 61.1809 19.1979 72.1849 15.8336C83.1889 12.4694 94.353 11.4511 105.138 12.4939C105.604 12.5391 105.946 12.9539 105.901 13.4204C105.856 13.887 105.441 14.2287 104.974 14.1836C94.4078 13.1618 83.4681 14.1591 72.6812 17.457C61.8944 20.7548 52.2673 26.0455 44.0786 32.8013C43.717 33.0996 43.182 33.0483 42.8837 32.6867C42.5854 32.3251 42.6367 31.7902 42.9983 31.4919ZM13.4204 88.0991C13.887 88.1443 14.2286 88.5591 14.1835 89.0256C13.1618 99.5921 14.1591 110.532 17.4569 121.319C20.7548 132.106 26.0455 141.733 32.8012 149.921C33.0995 150.283 33.0483 150.818 32.6867 151.116C32.3251 151.415 31.7901 151.363 31.4918 151.002C24.5966 142.644 19.1979 132.819 15.8336 121.815C12.4693 110.811 11.4511 99.647 12.4939 88.8623C12.539 88.3957 12.9538 88.054 13.4204 88.0991ZM161.313 42.8837C161.675 42.5854 162.21 42.6367 162.508 42.9983C169.403 51.3561 174.802 61.181 178.166 72.185C181.531 83.1889 182.549 94.353 181.506 105.138C181.461 105.604 181.046 105.946 180.58 105.901C180.113 105.856 179.771 105.441 179.816 104.974C180.838 94.4079 179.841 83.4681 176.543 72.6813C173.245 61.8944 167.954 52.2673 161.199 44.0786C160.9 43.717 160.952 43.1821 161.313 42.8837ZM88.0991 180.58C88.1442 180.113 88.559 179.771 89.0256 179.816C99.5921 180.838 110.532 179.841 121.319 176.543C132.106 173.245 141.733 167.954 149.921 161.199C150.283 160.9 150.818 160.952 151.116 161.313C151.415 161.675 151.363 162.21 151.002 162.508C142.644 169.403 132.819 174.802 121.815 178.166C110.811 181.531 99.6469 182.549 88.8622 181.506C88.3957 181.461 88.054 181.046 88.0991 180.58Z" fill="#6C54FF"/>
<path opacity="0.14" fill-rule="evenodd" clip-rule="evenodd" d="M29.5427 52.3518C35.2376 43.7402 42.6862 36.0837 51.7759 29.9526C60.8657 23.8215 70.755 19.7834 80.8729 17.7291C81.3322 17.6359 81.7802 17.9327 81.8735 18.392C81.9668 18.8514 81.67 19.2994 81.2106 19.3927C71.3076 21.4034 61.6267 25.3557 52.7252 31.3599C43.8236 37.3641 36.5325 44.8594 30.9585 53.2882C30.7 53.6791 30.1734 53.7865 29.7824 53.5279C29.3914 53.2694 29.2841 52.7428 29.5427 52.3518ZM140.472 29.7824C140.731 29.3914 141.257 29.2841 141.648 29.5427C150.26 35.2376 157.916 42.6862 164.047 51.776C170.178 60.8657 174.217 70.755 176.271 80.8729C176.364 81.3322 176.067 81.7803 175.608 81.8735C175.149 81.9668 174.701 81.67 174.607 81.2106C172.597 71.3076 168.644 61.6267 162.64 52.7252C156.636 43.8236 149.141 36.5325 140.712 30.9586C140.321 30.7 140.213 30.1734 140.472 29.7824ZM18.392 112.126C18.8514 112.033 19.2994 112.33 19.3927 112.789C21.4034 122.692 25.3557 132.373 31.3599 141.275C37.3641 150.176 44.8594 157.467 53.2881 163.041C53.6791 163.3 53.7865 163.827 53.5279 164.218C53.2694 164.609 52.7428 164.716 52.3518 164.457C43.7402 158.762 36.0837 151.314 29.9526 142.224C23.8215 133.134 19.7834 123.245 17.7291 113.127C17.6359 112.668 17.9327 112.22 18.392 112.126ZM112.126 175.608C112.033 175.149 112.33 174.701 112.789 174.607C122.692 172.597 132.373 168.644 141.275 162.64C150.176 156.636 157.467 149.141 163.041 140.712C163.3 140.321 163.827 140.213 164.218 140.472C164.609 140.731 164.716 141.257 164.457 141.648C158.762 150.26 151.314 157.916 142.224 164.047C133.134 170.178 123.245 174.217 113.127 176.271C112.668 176.364 112.22 176.067 112.126 175.608Z" fill="#6C54FF"/>
<path opacity="0.19" fill-rule="evenodd" clip-rule="evenodd" d="M23.2739 75.162C26.0573 65.7515 30.7003 56.7217 37.2588 48.6225C43.8174 40.5234 51.6845 34.1045 60.3107 29.4253C60.7228 29.2018 61.238 29.3546 61.4615 29.7667C61.685 30.1787 61.5322 30.6939 61.1201 30.9174C52.6866 35.4921 44.9938 41.7681 38.578 49.6908C32.1623 57.6136 27.6229 66.4432 24.9016 75.6435C24.7687 76.093 24.2965 76.3496 23.847 76.2167C23.3975 76.0837 23.1409 75.6115 23.2739 75.162ZM29.7667 132.539C30.1787 132.315 30.6939 132.468 30.9174 132.88C35.4921 141.313 41.7681 149.006 49.6908 155.422C57.6136 161.838 66.4432 166.377 75.6435 169.098C76.093 169.231 76.3496 169.703 76.2167 170.153C76.0837 170.602 75.6115 170.859 75.162 170.726C65.7515 167.943 56.7218 163.3 48.6226 156.741C40.5234 150.183 34.1045 142.315 29.4253 133.689C29.2018 133.277 29.3546 132.762 29.7667 132.539ZM117.783 23.847C117.916 23.3975 118.388 23.1409 118.838 23.2738C128.249 26.0573 137.278 30.7002 145.377 37.2588C153.477 43.8174 159.896 51.6845 164.575 60.3107C164.798 60.7228 164.645 61.238 164.233 61.4615C163.821 61.685 163.306 61.5321 163.083 61.1201C158.508 52.6866 152.232 44.9937 144.309 38.578C136.386 32.1623 127.557 27.6229 118.356 24.9016C117.907 24.7687 117.65 24.2965 117.783 23.847ZM132.539 164.233C132.315 163.821 132.468 163.306 132.88 163.083C141.313 158.508 149.006 152.232 155.422 144.309C161.838 136.386 166.377 127.557 169.098 118.356C169.231 117.907 169.703 117.65 170.153 117.783C170.602 117.916 170.859 118.388 170.726 118.838C167.943 128.248 163.3 137.278 156.741 145.377C150.183 153.477 142.315 159.896 133.689 164.575C133.277 164.798 132.762 164.645 132.539 164.233Z" fill="#6C54FF"/>
<path opacity="0.23" fill-rule="evenodd" clip-rule="evenodd" d="M24.1349 98.9087C23.8876 89.6092 25.4284 80.1083 28.9688 70.8853C32.5092 61.6623 37.7215 53.5707 44.1278 46.8253C44.4506 46.4854 44.9878 46.4715 45.3277 46.7943C45.6676 47.1171 45.6815 47.6544 45.3587 47.9943C39.1033 54.5808 34.0125 62.4826 30.5535 71.4936C27.0945 80.5046 25.5903 89.7832 25.8318 98.8636C25.8442 99.3322 25.4745 99.7221 25.0059 99.7346C24.5373 99.7471 24.1473 99.3773 24.1349 98.9087ZM46.7943 148.672C47.1171 148.332 47.6543 148.318 47.9942 148.641C54.5807 154.897 62.4825 159.987 71.4936 163.446C80.5046 166.905 89.7832 168.41 98.8635 168.168C99.3321 168.156 99.7221 168.525 99.7346 168.994C99.747 169.463 99.3773 169.853 98.9087 169.865C89.6091 170.112 80.1082 168.572 70.8852 165.031C61.6622 161.491 53.5707 156.278 46.8252 149.872C46.4853 149.549 46.4715 149.012 46.7943 148.672ZM94.2653 25.0059C94.2529 24.5373 94.6227 24.1474 95.0912 24.1349C104.391 23.8877 113.892 25.4285 123.115 28.9688C132.338 32.5092 140.429 37.7215 147.175 44.1279C147.515 44.4507 147.528 44.9879 147.206 45.3278C146.883 45.6677 146.346 45.6815 146.006 45.3587C139.419 39.1033 131.517 34.0126 122.506 30.5536C113.495 27.0946 104.217 25.5904 95.1364 25.8318C94.6678 25.8443 94.2778 25.4745 94.2653 25.0059ZM148.672 147.206C148.332 146.883 148.318 146.346 148.641 146.006C154.897 139.419 159.987 131.517 163.446 122.506C166.905 113.495 168.41 104.217 168.168 95.1364C168.156 94.6678 168.525 94.2778 168.994 94.2654C169.463 94.2529 169.853 94.6227 169.865 95.0913C170.112 104.391 168.571 113.892 165.031 123.115C161.491 132.338 156.278 140.429 149.872 147.175C149.549 147.515 149.012 147.528 148.672 147.206Z" fill="#6C54FF"/>
<path opacity="0.28" fill-rule="evenodd" clip-rule="evenodd" d="M31.6722 118.859C28.8791 110.522 27.6464 101.51 28.2977 92.1958C28.949 82.8819 31.424 74.1286 35.3502 66.2618C35.5595 65.8424 36.0692 65.672 36.4886 65.8814C36.908 66.0907 37.0784 66.6004 36.869 67.0198C33.0408 74.6904 30.6265 83.2268 29.9911 92.3142C29.3556 101.402 30.5583 110.191 33.2818 118.32C33.4307 118.764 33.1911 119.245 32.7467 119.394C32.3022 119.543 31.8212 119.303 31.6722 118.859ZM65.8814 157.511C66.0907 157.092 66.6004 156.922 67.0198 157.131C74.6904 160.959 83.2268 163.373 92.3142 164.009C101.402 164.644 110.191 163.442 118.32 160.718C118.764 160.569 119.245 160.809 119.394 161.253C119.543 161.698 119.303 162.179 118.859 162.328C110.522 165.121 101.51 166.353 92.1958 165.702C82.8819 165.051 74.1286 162.576 66.2618 158.65C65.8424 158.44 65.6721 157.931 65.8814 157.511ZM74.6058 32.7467C74.4569 32.3022 74.6965 31.8211 75.1409 31.6722C83.4775 28.8791 92.4902 27.6464 101.804 28.2977C111.118 28.949 119.871 31.424 127.738 35.3502C128.158 35.5595 128.328 36.0692 128.119 36.4886C127.909 36.9081 127.4 37.0784 126.98 36.869C119.309 33.0408 110.773 30.6265 101.686 29.9911C92.5983 29.3556 83.8089 30.5583 75.6802 33.2818C75.2357 33.4307 74.7547 33.1911 74.6058 32.7467ZM157.511 128.119C157.092 127.909 156.922 127.4 157.131 126.98C160.959 119.309 163.373 110.773 164.009 101.686C164.644 92.5983 163.442 83.8089 160.718 75.6802C160.569 75.2357 160.809 74.7547 161.253 74.6058C161.698 74.4569 162.179 74.6965 162.328 75.1409C165.121 83.4775 166.353 92.4902 165.702 101.804C165.051 111.118 162.576 119.871 158.65 127.738C158.44 128.158 157.931 128.328 157.511 128.119Z" fill="#6C54FF"/>
<path opacity="0.32" fill-rule="evenodd" clip-rule="evenodd" d="M44.1761 134.68C39.3644 127.94 35.7721 120.161 33.7938 111.592C31.8156 103.024 31.6344 94.4574 33.0045 86.2902C33.082 85.8279 33.5196 85.516 33.9819 85.5935C34.4442 85.6711 34.7561 86.1087 34.6786 86.571C33.3447 94.522 33.5206 102.863 35.4478 111.21C37.375 119.558 40.8733 127.132 45.5576 133.693C45.83 134.075 45.7415 134.605 45.36 134.877C44.9785 135.15 44.4484 135.061 44.1761 134.68ZM59.1226 45.36C58.8503 44.9785 58.9388 44.4484 59.3203 44.1761C66.0603 39.3644 73.839 35.7721 82.4077 33.7938C90.9764 31.8156 99.5426 31.6344 107.71 33.0045C108.172 33.082 108.484 33.5196 108.406 33.9819C108.329 34.4442 107.891 34.7561 107.429 34.6786C99.4779 33.3447 91.137 33.5207 82.7895 35.4478C74.4421 37.375 66.8682 40.8733 60.3066 45.5576C59.925 45.83 59.395 45.7415 59.1226 45.36ZM85.5935 160.018C85.6711 159.556 86.1087 159.244 86.571 159.321C94.522 160.655 102.863 160.479 111.21 158.552C119.558 156.625 127.132 153.127 133.693 148.442C134.075 148.17 134.605 148.258 134.877 148.64C135.15 149.021 135.061 149.552 134.68 149.824C127.94 154.636 120.161 158.228 111.592 160.206C103.024 162.184 94.4574 162.366 86.2902 160.996C85.8279 160.918 85.516 160.48 85.5935 160.018ZM148.64 59.1226C149.021 58.8503 149.552 58.9388 149.824 59.3203C154.636 66.0603 158.228 73.839 160.206 82.4077C162.184 90.9764 162.366 99.5426 160.996 107.71C160.918 108.172 160.48 108.484 160.018 108.406C159.556 108.329 159.244 107.891 159.321 107.429C160.655 99.478 160.479 91.137 158.552 82.7896C156.625 74.4421 153.127 66.8682 148.442 60.3066C148.17 59.9251 148.258 59.395 148.64 59.1226Z" fill="#6C54FF"/>
<path opacity="0.37" fill-rule="evenodd" clip-rule="evenodd" d="M58.749 144.367C53.0814 139.793 48.1456 134.117 44.2872 127.434C40.4287 120.751 37.9811 113.638 36.853 106.443C36.7804 105.979 37.097 105.545 37.5601 105.473C38.0232 105.4 38.4574 105.717 38.53 106.18C39.6263 113.172 42.0049 120.086 45.7573 126.585C49.5096 133.084 54.3075 138.601 59.8152 143.047C60.1799 143.341 60.237 143.875 59.9425 144.24C59.6481 144.605 59.1137 144.662 58.749 144.367ZM105.473 156.44C105.4 155.977 105.717 155.542 106.18 155.47C113.172 154.374 120.086 151.995 126.585 148.243C133.084 144.49 138.601 139.692 143.047 134.185C143.341 133.82 143.875 133.763 144.24 134.057C144.605 134.352 144.662 134.886 144.368 135.251C139.793 140.919 134.117 145.854 127.434 149.713C120.751 153.571 113.638 156.019 106.443 157.147C105.979 157.22 105.545 156.903 105.473 156.44ZM49.7598 59.9425C49.3951 59.648 49.3381 59.1137 49.6325 58.7489C54.2073 53.0813 59.8832 48.1456 66.5662 44.2871C73.2493 40.4287 80.3617 37.981 87.5574 36.853C88.0205 36.7803 88.4548 37.0969 88.5274 37.56C88.6 38.0231 88.2834 38.4574 87.8203 38.53C80.8277 39.6262 73.9143 42.0048 67.415 45.7572C60.9157 49.5096 55.399 54.3074 50.9534 59.8151C50.659 60.1799 50.1246 60.2369 49.7598 59.9425ZM156.44 88.5273C155.977 88.5999 155.543 88.2833 155.47 87.8203C154.374 80.8276 151.995 73.9142 148.243 67.4149C144.49 60.9156 139.692 55.399 134.185 50.9533C133.82 50.6589 133.763 50.1245 134.057 49.7598C134.352 49.395 134.886 49.338 135.251 49.6324C140.919 54.2072 145.854 59.8831 149.713 66.5662C153.571 73.2492 156.019 80.3616 157.147 87.5573C157.22 88.0204 156.903 88.4547 156.44 88.5273Z" fill="#6C54FF"/>
<path opacity="0.41" fill-rule="evenodd" clip-rule="evenodd" d="M74.3103 149.16C68.5355 146.648 63.0835 143.127 58.2173 138.589C53.3511 134.051 49.4583 128.858 46.5496 123.273C46.3331 122.857 46.4946 122.345 46.9104 122.128C47.3261 121.912 47.8387 122.073 48.0552 122.489C50.876 127.906 54.6518 132.943 59.375 137.348C64.0982 141.752 69.387 145.167 74.9874 147.603C75.4172 147.79 75.6141 148.291 75.4271 148.72C75.2402 149.15 74.7401 149.347 74.3103 149.16ZM122.128 147.09C121.912 146.674 122.073 146.161 122.489 145.945C127.906 143.124 132.943 139.348 137.348 134.625C141.752 129.902 145.167 124.613 147.604 119.013C147.791 118.583 148.291 118.386 148.72 118.573C149.15 118.76 149.347 119.26 149.16 119.69C146.648 125.464 143.127 130.916 138.589 135.783C134.051 140.649 128.858 144.542 123.273 147.45C122.857 147.667 122.345 147.505 122.128 147.09ZM45.2796 75.4271C44.8497 75.2401 44.6528 74.7401 44.8398 74.3102C47.3518 68.5354 50.8728 63.0835 55.4106 58.2172C59.9485 53.351 65.1415 49.4583 70.727 46.5495C71.1428 46.333 71.6554 46.4946 71.8719 46.9103C72.0884 47.3261 71.9269 47.8386 71.5111 48.0551C66.0943 50.876 61.0565 54.6517 56.6521 59.3749C52.2477 64.0981 48.8325 69.387 46.3964 74.9873C46.2094 75.4172 45.7094 75.614 45.2796 75.4271ZM147.09 71.8718C146.674 72.0883 146.161 71.9268 145.945 71.511C143.124 66.0942 139.348 61.0565 134.625 56.652C129.902 52.2476 124.613 48.8324 119.013 46.3963C118.583 46.2094 118.386 45.7093 118.573 45.2795C118.76 44.8496 119.26 44.6528 119.69 44.8397C125.465 47.3517 130.916 50.8727 135.783 55.4106C140.649 59.9484 144.542 65.1414 147.45 70.727C147.667 71.1427 147.505 71.6553 147.09 71.8718Z" fill="#6C54FF"/>
<path opacity="0.46" fill-rule="evenodd" clip-rule="evenodd" d="M89.4676 149.34C84.1673 148.576 78.8947 146.987 73.8255 144.515C68.7562 142.042 64.2583 138.865 60.393 135.159C60.0546 134.835 60.0434 134.297 60.3678 133.959C60.6922 133.621 61.2295 133.609 61.5678 133.934C65.3075 137.52 69.6605 140.595 74.5696 142.989C79.4787 145.383 84.5817 146.92 89.7098 147.66C90.1738 147.727 90.4957 148.157 90.4288 148.621C90.3619 149.085 89.9316 149.407 89.4676 149.34ZM133.959 133.632C133.621 133.308 133.609 132.77 133.934 132.432C137.52 128.692 140.595 124.339 142.989 119.43C145.383 114.521 146.92 109.418 147.66 104.29C147.726 103.826 148.157 103.504 148.621 103.571C149.085 103.638 149.407 104.068 149.34 104.532C148.576 109.833 146.987 115.105 144.515 120.174C142.042 125.244 138.865 129.742 135.159 133.607C134.835 133.945 134.297 133.957 133.959 133.632ZM45.3791 90.4288C44.9152 90.3619 44.5933 89.9316 44.6602 89.4677C45.4242 84.1673 47.0128 78.8947 49.4852 73.8255C51.9576 68.7562 55.1345 64.2583 58.8408 60.393C59.1652 60.0547 59.7025 60.0434 60.0409 60.3678C60.3792 60.6922 60.3905 61.2295 60.0661 61.5679C56.4801 65.3075 53.4052 69.6605 51.0109 74.5696C48.6166 79.4787 47.0795 84.5817 46.3403 89.7098C46.2734 90.1738 45.8431 90.4957 45.3791 90.4288ZM133.632 60.0409C133.308 60.3792 132.77 60.3905 132.432 60.0661C128.692 56.4801 124.339 53.4052 119.43 51.0109C114.521 48.6166 109.418 47.0795 104.29 46.3403C103.826 46.2734 103.504 45.8431 103.571 45.3792C103.638 44.9152 104.068 44.5933 104.532 44.6602C109.833 45.4242 115.105 47.0128 120.174 49.4852C125.244 51.9577 129.742 55.1345 133.607 58.8408C133.945 59.1653 133.957 59.7025 133.632 60.0409Z" fill="#6C54FF"/>
<path opacity="0.5" fill-rule="evenodd" clip-rule="evenodd" d="M102.994 145.507C98.563 146.053 93.9833 145.995 89.356 145.262C84.7287 144.529 80.3554 143.169 76.3097 141.281C75.8849 141.083 75.7013 140.578 75.8995 140.153C76.0977 139.728 76.6028 139.544 77.0275 139.743C80.9311 141.564 85.1523 142.878 89.6216 143.586C94.0908 144.293 98.5113 144.349 102.787 143.822C103.252 143.765 103.676 144.096 103.733 144.561C103.79 145.026 103.459 145.45 102.994 145.507ZM140.153 118.1C139.728 117.902 139.544 117.397 139.743 116.972C141.564 113.069 142.878 108.848 143.586 104.378C144.293 99.9092 144.349 95.4887 143.822 91.2132C143.765 90.748 144.096 90.3244 144.561 90.2672C145.026 90.2099 145.45 90.5406 145.507 91.0059C146.053 95.437 145.995 100.017 145.262 104.644C144.529 109.271 143.169 113.645 141.281 117.69C141.083 118.115 140.578 118.299 140.153 118.1ZM49.4389 103.733C48.9736 103.79 48.55 103.459 48.4928 102.994C47.9474 98.563 48.0049 93.9833 48.7378 89.356C49.4707 84.7287 50.8312 80.3554 52.7192 76.3097C52.9174 75.8849 53.4224 75.7013 53.8472 75.8995C54.272 76.0977 54.4556 76.6028 54.2574 77.0276C52.4357 80.9311 51.1223 85.1523 50.4144 89.6216C49.7066 94.0908 49.6513 98.5113 50.1776 102.787C50.2348 103.252 49.9041 103.676 49.4389 103.733ZM118.1 53.8472C117.902 54.272 117.397 54.4557 116.972 54.2574C113.069 52.4358 108.848 51.1223 104.378 50.4144C99.9092 49.7066 95.4887 49.6513 91.2132 50.1776C90.748 50.2348 90.3244 49.9041 90.2672 49.4389C90.2099 48.9736 90.5406 48.5501 91.0059 48.4928C95.437 47.9474 100.017 48.0049 104.644 48.7378C109.271 49.4707 113.645 50.8312 117.69 52.7192C118.115 52.9174 118.299 53.4225 118.1 53.8472Z" fill="#6C54FF"/>
<path opacity="0.55" fill-rule="evenodd" clip-rule="evenodd" d="M114.692 138.238C111.348 139.67 107.774 140.715 104.018 141.31C100.262 141.905 96.5406 142.015 92.9169 141.687C92.4501 141.645 92.1059 141.232 92.1482 140.765C92.1906 140.298 92.6033 139.954 93.0701 139.996C96.5553 140.312 100.136 140.206 103.753 139.634C107.369 139.061 110.807 138.055 114.024 136.677C114.455 136.493 114.954 136.693 115.138 137.124C115.323 137.555 115.123 138.053 114.692 138.238ZM140.765 101.852C140.298 101.809 139.954 101.397 139.996 100.93C140.312 97.4447 140.206 93.8636 139.634 90.2475C139.061 86.6314 138.055 83.1928 136.678 79.9759C136.493 79.5449 136.693 79.046 137.124 78.8615C137.555 78.677 138.053 78.8768 138.238 79.3077C139.67 82.6525 140.715 86.2262 141.31 89.9819C141.905 93.7377 142.015 97.4595 141.687 101.083C141.645 101.55 141.232 101.894 140.765 101.852ZM56.8764 115.138C56.4455 115.323 55.9466 115.123 55.7621 114.692C54.3299 111.347 53.2847 107.774 52.6899 104.018C52.095 100.262 51.9847 96.5405 52.3132 92.9168C52.3555 92.45 52.7683 92.1059 53.2351 92.1482C53.7019 92.1905 54.0461 92.6033 54.0038 93.0701C53.6879 96.5553 53.7937 100.136 54.3665 103.752C54.9392 107.369 55.9451 110.807 57.3225 114.024C57.5071 114.455 57.3073 114.954 56.8764 115.138ZM101.852 53.235C101.81 53.7019 101.397 54.046 100.93 54.0037C97.4448 53.6878 93.8637 53.7937 90.2475 54.3664C86.6314 54.9392 83.1929 55.9451 79.9759 57.3225C79.545 57.507 79.0461 57.3073 78.8616 56.8763C78.6771 56.4454 78.8768 55.9465 79.3077 55.762C82.6526 54.3299 86.2263 53.2847 89.982 52.6898C93.7377 52.095 97.4595 51.9847 101.083 52.3131C101.55 52.3555 101.894 52.7682 101.852 53.235Z" fill="#6C54FF"/>
<path opacity="0.59" fill-rule="evenodd" clip-rule="evenodd" d="M122.356 129.053C120.093 130.839 117.607 132.411 114.912 133.726C112.218 135.04 109.448 136.031 106.648 136.715C106.193 136.826 105.733 136.546 105.622 136.091C105.511 135.636 105.79 135.176 106.246 135.065C108.928 134.411 111.583 133.461 114.168 132.2C116.753 130.939 119.136 129.432 121.304 127.721C121.672 127.431 122.205 127.493 122.496 127.861C122.786 128.229 122.723 128.763 122.356 129.053ZM136.091 88.3776C135.636 88.4887 135.176 88.2096 135.065 87.7542C134.411 85.0715 133.461 82.4166 132.2 79.8317C130.939 77.2468 129.432 74.8636 127.721 72.6963C127.431 72.3283 127.493 71.7946 127.861 71.5042C128.229 71.2137 128.763 71.2765 129.053 71.6444C130.839 73.9065 132.411 76.3927 133.726 79.0876C135.04 81.7824 136.031 84.5519 136.715 87.3519C136.826 87.8073 136.546 88.2666 136.091 88.3776ZM66.1386 122.496C65.7706 122.786 65.2369 122.723 64.9465 122.356C63.1605 120.093 61.5884 117.607 60.2741 114.912C58.9597 112.218 57.9684 109.448 57.2854 106.648C57.1743 106.193 57.4534 105.733 57.9088 105.622C58.3642 105.511 58.8234 105.79 58.9345 106.246C59.5889 108.928 60.539 111.583 61.7998 114.168C63.0606 116.753 64.5677 119.136 66.2788 121.304C66.5692 121.672 66.5065 122.205 66.1386 122.496ZM88.3776 57.9088C88.4887 58.3642 88.2096 58.8235 87.7542 58.9345C85.0715 59.589 82.4166 60.5391 79.8317 61.7998C77.2467 63.0606 74.8636 64.5677 72.6962 66.2788C72.3283 66.5693 71.7946 66.5065 71.5041 66.1386C71.2137 65.7707 71.2765 65.2369 71.6444 64.9465C73.9065 63.1605 76.3927 61.5885 79.0875 60.2741C81.7824 58.9598 84.5519 57.9684 87.3519 57.2854C87.8073 57.1743 88.2665 57.4534 88.3776 57.9088Z" fill="#6C54FF"/>
<path opacity="0.64" fill-rule="evenodd" clip-rule="evenodd" d="M126.828 118.667C125.462 120.543 123.898 122.317 122.138 123.958C120.379 125.599 118.501 127.035 116.534 128.267C116.136 128.515 115.613 128.395 115.364 127.998C115.115 127.6 115.235 127.077 115.633 126.828C117.509 125.653 119.301 124.283 120.981 122.716C122.661 121.149 124.153 119.457 125.455 117.668C125.731 117.289 126.262 117.205 126.641 117.481C127.02 117.757 127.104 118.288 126.828 118.667ZM127.998 78.6363C127.6 78.8851 127.077 78.7647 126.828 78.3674C125.653 76.4915 124.283 74.6994 122.716 73.0192C121.149 71.339 119.457 69.8473 117.668 68.5445C117.289 68.2686 117.205 67.7378 117.481 67.3588C117.757 66.9798 118.288 66.8963 118.667 67.1722C120.543 68.5383 122.317 70.1018 123.958 71.8615C125.599 73.6212 127.035 75.4994 128.267 77.4665C128.515 77.8637 128.395 78.3875 127.998 78.6363ZM76.5188 126.641C76.2429 127.02 75.712 127.104 75.3331 126.828C73.4567 125.462 71.6833 123.898 70.0423 122.138C68.4014 120.379 66.9654 118.501 65.7335 116.533C65.4847 116.136 65.6051 115.612 66.0024 115.364C66.3996 115.115 66.9234 115.235 67.1722 115.633C68.3469 117.508 69.717 119.301 71.2838 120.981C72.8506 122.661 74.5428 124.153 76.3322 125.455C76.7111 125.731 76.7947 126.262 76.5188 126.641ZM78.6363 66.0023C78.8851 66.3996 78.7647 66.9233 78.3675 67.1721C76.4916 68.3469 74.6994 69.717 73.0193 71.2838C71.3391 72.8505 69.8473 74.5427 68.5446 76.3321C68.2687 76.7111 67.7378 76.7946 67.3589 76.5187C66.9799 76.2428 66.8963 75.712 67.1722 75.333C68.5383 73.4566 70.1019 71.6832 71.8616 70.0423C73.6212 68.4014 75.4994 66.9653 77.4665 65.7334C77.8638 65.4846 78.3875 65.605 78.6363 66.0023Z" fill="#6C54FF"/>
<path opacity="0.68" fill-rule="evenodd" clip-rule="evenodd" d="M127.87 108.272C127.227 110.029 126.424 111.754 125.456 113.429C124.489 115.104 123.397 116.662 122.197 118.099C121.897 118.458 121.361 118.506 121.002 118.206C120.642 117.905 120.594 117.37 120.894 117.01C122.032 115.649 123.068 114.171 123.986 112.581C124.904 110.991 125.666 109.354 126.277 107.688C126.438 107.248 126.925 107.022 127.366 107.183C127.806 107.344 128.032 107.832 127.87 108.272ZM118.206 72.9983C117.905 73.3581 117.37 73.4061 117.01 73.1056C115.649 71.9682 114.171 70.9316 112.581 70.0135C110.991 69.0955 109.354 68.3338 107.688 67.7234C107.248 67.5621 107.022 67.0746 107.183 66.6344C107.344 66.1943 107.832 65.9682 108.272 66.1295C110.029 66.7734 111.754 67.5764 113.429 68.5435C115.104 69.5105 116.662 70.6032 118.099 71.8028C118.458 72.1033 118.506 72.6386 118.206 72.9983ZM86.8168 127.366C86.6555 127.806 86.168 128.032 85.7279 127.87C83.9709 127.227 82.2456 126.424 80.5706 125.456C78.8956 124.489 77.3375 123.397 75.9014 122.197C75.5417 121.897 75.4937 121.361 75.7942 121.002C76.0947 120.642 76.63 120.594 76.9897 120.894C78.3512 122.032 79.8293 123.068 81.4194 123.986C83.0094 124.904 84.6462 125.666 86.3119 126.277C86.7521 126.438 86.9781 126.925 86.8168 127.366ZM72.9983 75.7942C73.3581 76.0947 73.4061 76.63 73.1056 76.9897C71.9682 78.3512 70.9316 79.8293 70.0135 81.4194C69.0955 83.0094 68.3338 84.6462 67.7234 86.3119C67.5621 86.7521 67.0746 86.9781 66.6344 86.8168C66.1943 86.6555 65.9682 86.168 66.1295 85.7279C66.7734 83.9709 67.5764 82.2456 68.5435 80.5706C69.5105 78.8956 70.6032 77.3375 71.8028 75.9014C72.1033 75.5417 72.6386 75.4937 72.9983 75.7942Z" fill="#6C54FF"/>
<path opacity="0.73" fill-rule="evenodd" clip-rule="evenodd" d="M125.783 99.1242C125.674 100.574 125.455 102.033 125.118 103.492C124.781 104.95 124.339 106.358 123.801 107.709C123.628 108.144 123.134 108.357 122.699 108.183C122.263 108.01 122.051 107.516 122.224 107.081C122.73 105.81 123.146 104.484 123.464 103.11C123.781 101.735 123.988 100.361 124.09 98.9972C124.125 98.5298 124.533 98.1793 125 98.2143C125.468 98.2494 125.818 98.6567 125.783 99.1242ZM108.183 71.3012C108.01 71.7367 107.516 71.9492 107.081 71.7758C105.81 71.2699 104.484 70.8535 103.11 70.5361C101.735 70.2187 100.361 70.0119 98.9972 69.9096C98.5297 69.8745 98.1792 69.4672 98.2143 68.9997C98.2493 68.5323 98.6567 68.1818 99.1241 68.2168C100.574 68.3256 102.033 68.5453 103.491 68.8821C104.95 69.2189 106.358 69.661 107.708 70.1987C108.144 70.3721 108.356 70.8657 108.183 71.3012ZM95.7857 125C95.7506 125.468 95.3432 125.818 94.8758 125.783C93.4264 125.674 91.9673 125.455 90.5084 125.118C89.0496 124.781 87.6418 124.339 86.2914 123.801C85.8559 123.628 85.6435 123.134 85.8169 122.699C85.9903 122.263 86.4839 122.051 86.9194 122.224C88.1901 122.73 89.5156 123.147 90.8903 123.464C92.265 123.781 93.6389 123.988 95.0028 124.09C95.4702 124.126 95.8207 124.533 95.7857 125ZM71.3012 85.8169C71.7367 85.9903 71.9491 86.4839 71.7757 86.9194C71.2698 88.1901 70.8535 89.5156 70.5361 90.8903C70.2187 92.2651 70.0118 93.639 69.9095 95.0028C69.8745 95.4703 69.4671 95.8208 68.9997 95.7857C68.5322 95.7506 68.1817 95.3433 68.2168 94.8759C68.3255 93.4265 68.5453 91.9674 68.8821 90.5085C69.2189 89.0496 69.661 87.6419 70.1987 86.2915C70.372 85.856 70.8657 85.6435 71.3012 85.8169Z" fill="#6C54FF"/>
<path opacity="0.77" fill-rule="evenodd" clip-rule="evenodd" d="M121.353 92.0092C121.569 93.0703 121.718 94.1574 121.796 95.2661C121.873 96.3748 121.877 97.4721 121.81 98.5529C121.782 99.0208 121.379 99.3768 120.911 99.3481C120.443 99.3194 120.087 98.9168 120.116 98.449C120.178 97.442 120.175 96.419 120.102 95.3845C120.03 94.35 119.891 93.3365 119.689 92.348C119.596 91.8886 119.892 91.4405 120.352 91.3469C120.811 91.2534 121.259 91.5499 121.353 92.0092ZM99.3481 73.0887C99.3194 73.5566 98.9168 73.9126 98.4489 73.8839C97.442 73.8221 96.419 73.8253 95.3845 73.8976C94.35 73.97 93.3365 74.1091 92.3479 74.3105C91.8886 74.404 91.4404 74.1075 91.3469 73.6482C91.2533 73.1889 91.5498 72.7407 92.0092 72.6471C93.0703 72.431 94.1573 72.2818 95.2661 72.2043C96.3748 72.1268 97.4721 72.1232 98.5529 72.1895C99.0208 72.2183 99.3768 72.6208 99.3481 73.0887ZM102.653 120.352C102.747 120.811 102.45 121.259 101.991 121.353C100.93 121.569 99.8426 121.718 98.7338 121.796C97.6251 121.873 96.5278 121.877 95.447 121.81C94.9791 121.782 94.6231 121.379 94.6518 120.911C94.6805 120.443 95.0831 120.087 95.551 120.116C96.5579 120.178 97.5809 120.175 98.6154 120.102C99.6499 120.03 100.663 119.891 101.652 119.689C102.111 119.596 102.559 119.892 102.653 120.352ZM73.0887 94.6519C73.5565 94.6806 73.9125 95.0831 73.8838 95.551C73.822 96.558 73.8253 97.5809 73.8976 98.6155C73.97 99.65 74.1091 100.663 74.3104 101.652C74.404 102.111 74.1075 102.56 73.6482 102.653C73.1888 102.747 72.7406 102.45 72.6471 101.991C72.431 100.93 72.2818 99.8426 72.2042 98.7339C72.1267 97.6251 72.1232 96.5279 72.1895 95.447C72.2182 94.9792 72.6208 94.6231 73.0887 94.6519Z" fill="#6C54FF"/>
<path opacity="0.82" fill-rule="evenodd" clip-rule="evenodd" d="M115.537 87.441C115.882 88.1114 116.194 88.8069 116.47 89.5262C116.746 90.2455 116.98 90.971 117.172 91.6999C117.292 92.1531 117.021 92.6175 116.568 92.7371C116.115 92.8568 115.65 92.5864 115.531 92.1332C115.354 91.4635 115.139 90.7965 114.885 90.1345C114.631 89.4726 114.344 88.8331 114.028 88.2172C113.813 87.8003 113.977 87.2886 114.394 87.0743C114.811 86.8599 115.323 87.0241 115.537 87.441ZM106.926 114.394C107.14 114.811 106.976 115.323 106.559 115.537C105.889 115.882 105.193 116.194 104.474 116.47C103.754 116.746 103.029 116.98 102.3 117.172C101.847 117.292 101.383 117.021 101.263 116.568C101.143 116.115 101.414 115.65 101.867 115.531C102.536 115.354 103.204 115.139 103.865 114.885C104.527 114.631 105.167 114.344 105.783 114.028C106.2 113.813 106.711 113.977 106.926 114.394ZM92.7372 77.4319C92.8569 77.8851 92.5864 78.3495 92.1332 78.4692C91.4636 78.646 90.7965 78.8608 90.1346 79.1149C89.4727 79.369 88.8332 79.6557 88.2173 79.9724C87.8004 80.1867 87.2887 80.0226 87.0743 79.6057C86.86 79.1888 87.0242 78.6771 87.4411 78.4628C88.1114 78.1181 88.8069 77.8063 89.5263 77.5302C90.2456 77.254 90.9711 77.0203 91.6999 76.8279C92.1531 76.7083 92.6175 76.9787 92.7372 77.4319ZM77.432 101.263C77.8852 101.143 78.3496 101.414 78.4693 101.867C78.646 102.536 78.8609 103.203 79.115 103.865C79.3691 104.527 79.6558 105.167 79.9724 105.783C80.1868 106.2 80.0226 106.711 79.6057 106.926C79.1889 107.14 78.6772 106.976 78.4628 106.559C78.1181 105.889 77.8063 105.193 77.5302 104.474C77.2541 103.754 77.0204 103.029 76.828 102.3C76.7083 101.847 76.9787 101.382 77.432 101.263Z" fill="#6C54FF"/>
<path opacity="0.86" fill-rule="evenodd" clip-rule="evenodd" d="M109.157 85.3258C109.483 85.6656 109.797 86.0216 110.098 86.3936C110.399 86.7656 110.682 87.1468 110.947 87.5359C111.21 87.9235 111.11 88.4514 110.722 88.715C110.335 88.9786 109.807 88.8781 109.543 88.4905C109.305 88.1404 109.05 87.7972 108.779 87.4619C108.507 87.1266 108.224 86.806 107.931 86.5003C107.607 86.1618 107.619 85.6245 107.957 85.3002C108.295 84.9759 108.833 84.9874 109.157 85.3258ZM88.715 83.2778C88.9787 83.6654 88.8782 84.1933 88.4906 84.4569C88.1404 84.6951 87.7972 84.9499 87.4619 85.2214C87.1266 85.4929 86.806 85.7757 86.5003 86.0686C86.1618 86.393 85.6246 86.3815 85.3003 86.0431C84.9759 85.7046 84.9874 85.1673 85.3258 84.843C85.6656 84.5174 86.0216 84.2035 86.3936 83.9022C86.7657 83.6009 87.1468 83.318 87.5359 83.0533C87.9235 82.7897 88.4514 82.8902 88.715 83.2778ZM108.7 107.957C109.024 108.295 109.013 108.833 108.674 109.157C108.334 109.483 107.978 109.797 107.606 110.098C107.234 110.399 106.853 110.682 106.464 110.947C106.077 111.21 105.549 111.11 105.285 110.722C105.021 110.335 105.122 109.807 105.51 109.543C105.86 109.305 106.203 109.05 106.538 108.779C106.873 108.507 107.194 108.224 107.5 107.931C107.838 107.607 108.376 107.619 108.7 107.957ZM83.2778 105.285C83.6654 105.021 84.1934 105.122 84.457 105.509C84.6951 105.86 84.9499 106.203 85.2214 106.538C85.4929 106.873 85.7757 107.194 86.0687 107.5C86.393 107.838 86.3815 108.375 86.0431 108.7C85.7046 109.024 85.1674 109.013 84.843 108.674C84.5175 108.334 84.2035 107.978 83.9022 107.606C83.6009 107.234 83.318 106.853 83.0534 106.464C82.7897 106.077 82.8902 105.549 83.2778 105.285Z" fill="#6C54FF"/>
<path opacity="0.91" fill-rule="evenodd" clip-rule="evenodd" d="M103.553 85.9431C103.767 86.0701 103.978 86.204 104.187 86.3448C104.396 86.4856 104.599 86.6315 104.797 86.7823C105.17 87.0663 105.242 87.5989 104.958 87.9718C104.674 88.3447 104.141 88.4167 103.768 88.1326C103.596 88.0016 103.42 87.8747 103.238 87.7521C103.056 87.6295 102.872 87.5131 102.686 87.4026C102.283 87.1633 102.15 86.6426 102.39 86.2395C102.629 85.8365 103.15 85.7037 103.553 85.9431ZM87.9718 89.0421C88.3447 89.3261 88.4167 89.8587 88.1327 90.2316C88.0016 90.4036 87.8747 90.5805 87.7521 90.7622C87.6296 90.9439 87.5131 91.1279 87.4027 91.3138C87.1633 91.7169 86.6426 91.8496 86.2395 91.6103C85.8365 91.3709 85.7038 90.8502 85.9431 90.4471C86.0701 90.2332 86.204 90.0217 86.3448 89.813C86.4856 89.6042 86.6316 89.4009 86.7823 89.2029C87.0664 88.8301 87.5989 88.758 87.9718 89.0421ZM107.761 102.39C108.164 102.629 108.296 103.15 108.057 103.553C107.93 103.767 107.796 103.978 107.655 104.187C107.514 104.396 107.369 104.599 107.218 104.797C106.934 105.17 106.401 105.242 106.028 104.958C105.655 104.674 105.583 104.141 105.867 103.768C105.998 103.596 106.125 103.42 106.248 103.238C106.371 103.056 106.487 102.872 106.597 102.686C106.837 102.283 107.357 102.15 107.761 102.39ZM89.0421 106.028C89.3262 105.655 89.8587 105.583 90.2316 105.867C90.4036 105.998 90.5805 106.125 90.7622 106.248C90.944 106.37 91.1279 106.487 91.3139 106.597C91.7169 106.837 91.8496 107.357 91.6103 107.761C91.371 108.164 90.8502 108.296 90.4472 108.057C90.2332 107.93 90.0218 107.796 89.813 107.655C89.6043 107.514 89.4009 107.368 89.203 107.218C88.8301 106.934 88.7581 106.401 89.0421 106.028Z" fill="#6C54FF"/>
<path opacity="0.95" fill-rule="evenodd" clip-rule="evenodd" d="M99.3392 88.4634C99.4221 88.4861 99.505 88.5102 99.5878 88.5355C99.6706 88.5608 99.7527 88.5872 99.8342 88.6147C100.278 88.7646 100.517 89.2462 100.367 89.6903C100.217 90.1344 99.7356 90.373 99.2915 90.2231C99.2253 90.2008 99.1587 90.1794 99.0915 90.1588C99.0243 90.1383 98.957 90.1188 98.8898 90.1003C98.4377 89.9762 98.1719 89.5091 98.296 89.0571C98.4201 88.6051 98.8871 88.3393 99.3392 88.4634ZM89.6903 93.6329C90.1344 93.7828 90.3729 94.2643 90.2231 94.7085C90.2007 94.7746 90.1793 94.8412 90.1588 94.9084C90.1382 94.9756 90.1187 95.0429 90.1002 95.1102C89.9761 95.5622 89.5091 95.828 89.0571 95.7039C88.605 95.5798 88.3392 95.1128 88.4633 94.6607C88.4861 94.5778 88.5101 94.4949 88.5354 94.4121C88.5607 94.3294 88.5872 94.2472 88.6147 94.1657C88.7646 93.7215 89.2461 93.483 89.6903 93.6329ZM104.943 98.296C105.395 98.4201 105.661 98.8872 105.537 99.3392C105.514 99.4222 105.49 99.5051 105.464 99.5878C105.439 99.6706 105.413 99.7528 105.385 99.8343C105.235 100.278 104.754 100.517 104.31 100.367C103.865 100.217 103.627 99.7356 103.777 99.2915C103.799 99.2254 103.821 99.1587 103.841 99.0915C103.862 99.0243 103.881 98.9571 103.9 98.8898C104.024 98.4378 104.491 98.1719 104.943 98.296ZM93.6328 104.31C93.7827 103.866 94.2643 103.627 94.7084 103.777C94.7745 103.799 94.8412 103.821 94.9084 103.841C94.9756 103.862 95.0428 103.881 95.1101 103.9C95.5621 104.024 95.828 104.491 95.7039 104.943C95.5798 105.395 95.1127 105.661 94.6607 105.537C94.5777 105.514 94.4948 105.49 94.4121 105.464C94.3293 105.439 94.2472 105.413 94.1656 105.385C93.7215 105.235 93.4829 104.754 93.6328 104.31Z" fill="#6C54FF"/>
<path fill-rule="evenodd" clip-rule="evenodd" d="M97 93.8475C95.2589 93.8475 93.8475 95.2589 93.8475 97C93.8475 98.741 95.2589 100.152 97 100.152C98.7411 100.152 100.153 98.741 100.153 97C100.153 95.2589 98.7411 93.8475 97 93.8475ZM92.15 97C92.15 94.3214 94.3214 92.15 97 92.15C99.6786 92.15 101.85 94.3214 101.85 97C101.85 99.6785 99.6786 101.85 97 101.85C94.3214 101.85 92.15 99.6785 92.15 97Z" fill="#6C54FF"/>
</g>
<defs>
<clipPath id="clip0_112_106">
<rect width="194" height="194" fill="white"/>
</clipPath>
</defs>
</svg>
