<svg width="240" height="41" viewBox="0 0 240 41" fill="none" xmlns="http://www.w3.org/2000/svg">
<path d="M54.9446 29.4151C52.0535 32.2874 47.157 32.276 45.7895 28.4478C45.5218 27.6983 45.3077 26.9277 45.1503 26.1413C44.5074 22.9306 44.8374 19.6027 46.0983 16.5782C47.3593 13.5539 49.4946 10.9689 52.2343 9.15023C54.9741 7.33154 58.1951 6.36081 61.4901 6.36081C64.7851 6.36081 68.0062 7.33154 70.7458 9.15023C73.4856 10.9689 75.6209 13.5539 76.8819 16.5783C78.1428 19.6027 78.4727 22.9306 77.8299 26.1413C77.6725 26.9277 77.4584 27.6983 77.1906 28.4478C75.8232 32.276 70.9267 32.2874 68.0355 29.4151L63.5726 24.9812C63.1462 24.5576 63.1902 23.859 63.3079 23.2715C63.3793 22.9143 63.3426 22.5441 63.2023 22.2076C63.062 21.8712 62.8246 21.5836 62.5198 21.3813C62.215 21.179 61.8567 21.071 61.4901 21.071C61.1236 21.071 60.7652 21.179 60.4604 21.3813C60.1556 21.5836 59.9181 21.8712 59.7778 22.2076C59.6375 22.5441 59.6008 22.9143 59.6724 23.2715C59.79 23.859 59.8339 24.5576 59.4076 24.9812L54.9446 29.4151Z" fill="#B04AFF"/>
<path d="M91.7041 25.4413H96.1822V28.063H88.2855V14.1201H91.7041V25.4413Z" fill="white"/>
<path d="M102.291 28.222C101.198 28.222 100.212 27.9903 99.3322 27.5269C98.466 27.0634 97.7796 26.4014 97.2731 25.5407C96.78 24.68 96.5334 23.6737 96.5334 22.5217C96.5334 21.383 96.7866 20.3832 97.2931 19.5225C97.7996 18.6487 98.4926 17.98 99.3722 17.5165C100.252 17.0531 101.238 16.8214 102.331 16.8214C103.424 16.8214 104.41 17.0531 105.29 17.5165C106.17 17.98 106.863 18.6487 107.369 19.5225C107.875 20.3832 108.129 21.383 108.129 22.5217C108.129 23.6604 107.869 24.6667 107.349 25.5407C106.843 26.4014 106.143 27.0634 105.25 27.5269C104.37 27.9903 103.384 28.222 102.291 28.222ZM102.291 25.2824C102.944 25.2824 103.497 25.0442 103.95 24.5675C104.417 24.0908 104.65 23.4089 104.65 22.5217C104.65 21.6345 104.424 20.9526 103.97 20.4759C103.531 19.9992 102.984 19.7609 102.331 19.7609C101.665 19.7609 101.112 19.9992 100.672 20.4759C100.232 20.9394 100.012 21.6212 100.012 22.5217C100.012 23.4089 100.225 24.0908 100.652 24.5675C101.092 25.0442 101.638 25.2824 102.291 25.2824Z" fill="white"/>
<path d="M113.581 16.8214C114.367 16.8214 115.054 16.9803 115.64 17.2981C116.24 17.6158 116.7 18.033 117.02 18.5493V16.9803H120.438V28.0432C120.438 29.0628 120.232 29.9831 119.818 30.804C119.419 31.6382 118.799 32.3003 117.959 32.7902C117.133 33.2801 116.1 33.5251 114.86 33.5251C113.208 33.5251 111.868 33.1345 110.842 32.3533C109.816 31.5852 109.229 30.5392 109.083 29.2151H112.461C112.568 29.6388 112.821 29.9699 113.221 30.2082C113.621 30.4597 114.114 30.5855 114.701 30.5855C115.407 30.5855 115.967 30.3803 116.38 29.9699C116.806 29.5726 117.02 28.9304 117.02 28.0432V26.4742C116.686 26.9905 116.227 27.4143 115.64 27.7453C115.054 28.0631 114.367 28.222 113.581 28.222C112.661 28.222 111.828 27.9903 111.082 27.5269C110.336 27.0502 109.742 26.3815 109.303 25.5208C108.876 24.6469 108.663 23.6406 108.663 22.5018C108.663 21.3631 108.876 20.3634 109.303 19.5027C109.742 18.642 110.336 17.98 111.082 17.5165C111.828 17.0531 112.661 16.8214 113.581 16.8214ZM117.02 22.5217C117.02 21.6742 116.78 21.0055 116.3 20.5157C115.833 20.0258 115.26 19.7808 114.581 19.7808C113.901 19.7808 113.321 20.0258 112.841 20.5157C112.375 20.9924 112.142 21.6544 112.142 22.5018C112.142 23.3493 112.375 24.0246 112.841 24.5277C113.321 25.0176 113.901 25.2626 114.581 25.2626C115.26 25.2626 115.833 25.0176 116.3 24.5277C116.78 24.0378 117.02 23.3692 117.02 22.5217Z" fill="white"/>
<path d="M127.39 28.222C126.297 28.222 125.31 27.9903 124.431 27.5269C123.565 27.0634 122.878 26.4014 122.372 25.5407C121.879 24.68 121.632 23.6737 121.632 22.5217C121.632 21.383 121.885 20.3832 122.392 19.5225C122.898 18.6487 123.591 17.98 124.471 17.5165C125.35 17.0531 126.337 16.8214 127.43 16.8214C128.522 16.8214 129.509 17.0531 130.388 17.5165C131.268 17.98 131.961 18.6487 132.468 19.5225C132.974 20.3832 133.227 21.383 133.227 22.5217C133.227 23.6604 132.967 24.6667 132.448 25.5407C131.941 26.4014 131.241 27.0634 130.348 27.5269C129.469 27.9903 128.482 28.222 127.39 28.222ZM127.39 25.2824C128.043 25.2824 128.596 25.0442 129.049 24.5675C129.515 24.0908 129.749 23.4089 129.749 22.5217C129.749 21.6345 129.522 20.9526 129.069 20.4759C128.629 19.9992 128.083 19.7609 127.43 19.7609C126.763 19.7609 126.21 19.9992 125.77 20.4759C125.33 20.9394 125.111 21.6212 125.111 22.5217C125.111 23.4089 125.324 24.0908 125.75 24.5675C126.19 25.0442 126.737 25.2824 127.39 25.2824Z" fill="white"/>
<path d="M136.16 15.8283C135.561 15.8283 135.067 15.6561 134.681 15.3119C134.308 14.9544 134.121 14.5174 134.121 14.001C134.121 13.4713 134.308 13.0344 134.681 12.6901C135.067 12.3326 135.561 12.1538 136.16 12.1538C136.747 12.1538 137.227 12.3326 137.6 12.6901C137.986 13.0344 138.179 13.4713 138.179 14.001C138.179 14.5174 137.986 14.9544 137.6 15.3119C137.227 15.6561 136.747 15.8283 136.16 15.8283ZM137.86 16.9803V28.0631H134.441V16.9803H137.86Z" fill="white"/>
<path d="M143.156 18.5493C143.489 18.033 143.949 17.6158 144.535 17.2981C145.122 16.9803 145.808 16.8214 146.595 16.8214C147.514 16.8214 148.347 17.0531 149.094 17.5165C149.84 17.98 150.427 18.642 150.853 19.5027C151.292 20.3634 151.513 21.3631 151.513 22.5018C151.513 23.6406 151.292 24.6469 150.853 25.5208C150.427 26.3815 149.84 27.0502 149.094 27.5269C148.347 27.9903 147.514 28.222 146.595 28.222C145.821 28.222 145.136 28.0631 144.535 27.7453C143.949 27.4275 143.489 27.0171 143.156 26.5139V33.3463H139.737V16.9803H143.156V18.5493ZM148.034 22.5018C148.034 21.6544 147.794 20.9924 147.314 20.5157C146.847 20.0258 146.268 19.7808 145.575 19.7808C144.895 19.7808 144.316 20.0258 143.835 20.5157C143.37 21.0055 143.136 21.6742 143.136 22.5217C143.136 23.3692 143.37 24.0378 143.835 24.5277C144.316 25.0176 144.895 25.2626 145.575 25.2626C146.255 25.2626 146.835 25.0176 147.314 24.5277C147.794 24.0246 148.034 23.3493 148.034 22.5018Z" fill="white"/>
<path d="M157.245 28.222C156.272 28.222 155.405 28.0565 154.645 27.7255C153.886 27.3944 153.286 26.9443 152.846 26.3748C152.407 25.7922 152.16 25.1434 152.107 24.4284H155.486C155.525 24.8124 155.705 25.1235 156.025 25.3619C156.345 25.6002 156.738 25.7194 157.205 25.7194C157.631 25.7194 157.957 25.64 158.184 25.4811C158.424 25.309 158.544 25.0904 158.544 24.8256C158.544 24.5078 158.377 24.2761 158.044 24.1305C157.711 23.9716 157.171 23.7995 156.425 23.6141C155.625 23.4287 154.959 23.2367 154.425 23.0381C153.893 22.8263 153.433 22.5018 153.047 22.0649C152.659 21.6147 152.467 21.0122 152.467 20.2575C152.467 19.6219 152.64 19.0459 152.987 18.5295C153.346 17.9999 153.866 17.5827 154.545 17.2782C155.239 16.9736 156.059 16.8214 157.005 16.8214C158.404 16.8214 159.503 17.1656 160.303 17.8541C161.116 18.5428 161.583 19.4563 161.703 20.5951H158.544C158.491 20.2111 158.317 19.9066 158.024 19.6814C157.744 19.4563 157.372 19.3438 156.905 19.3438C156.505 19.3438 156.198 19.4233 155.985 19.5822C155.772 19.7278 155.666 19.9331 155.666 20.1979C155.666 20.5157 155.832 20.754 156.165 20.9129C156.512 21.0718 157.044 21.2307 157.765 21.3895C158.59 21.6014 159.263 21.8133 159.783 22.0251C160.303 22.2238 160.756 22.5547 161.143 23.0183C161.542 23.4684 161.75 24.0775 161.763 24.8456C161.763 25.4943 161.576 26.0769 161.203 26.5934C160.843 27.0965 160.317 27.4938 159.624 27.785C158.944 28.0764 158.151 28.222 157.245 28.222Z" fill="white"/>
<path d="M174.27 16.9802V28.063H170.851V26.5536C170.505 27.0434 170.031 27.4407 169.432 27.7452C168.845 28.0366 168.193 28.1822 167.472 28.1822C166.62 28.1822 165.866 27.9969 165.214 27.6261C164.56 27.2421 164.054 26.6926 163.695 25.9776C163.334 25.2625 163.154 24.4218 163.154 23.4551V16.9802H166.553V22.9983C166.553 23.7398 166.746 24.3158 167.133 24.7263C167.519 25.1367 168.039 25.342 168.692 25.342C169.358 25.342 169.885 25.1367 170.271 24.7263C170.658 24.3158 170.851 23.7398 170.851 22.9983V16.9802H174.27Z" fill="white"/>
<path d="M190.36 16.861C191.746 16.861 192.846 17.2781 193.659 18.1123C194.485 18.9464 194.898 20.105 194.898 21.588V28.063H191.5V22.0449C191.5 21.3299 191.306 20.7804 190.92 20.3964C190.546 19.9991 190.027 19.8005 189.36 19.8005C188.694 19.8005 188.167 19.9991 187.781 20.3964C187.408 20.7804 187.221 21.3299 187.221 22.0449V28.063H183.822V22.0449C183.822 21.3299 183.629 20.7804 183.243 20.3964C182.869 19.9991 182.35 19.8005 181.683 19.8005C181.017 19.8005 180.491 19.9991 180.104 20.3964C179.731 20.7804 179.545 21.3299 179.545 22.0449V28.063H176.126V16.9802H179.545V18.3705C179.891 17.907 180.344 17.5429 180.904 17.2781C181.464 17 182.097 16.861 182.803 16.861C183.643 16.861 184.389 17.0397 185.042 17.3972C185.708 17.7548 186.228 18.2646 186.602 18.9266C186.988 18.3175 187.515 17.8209 188.181 17.437C188.847 17.053 189.574 16.861 190.36 16.861Z" fill="white"/>
</svg>
