<svg version="1.2" xmlns="http://www.w3.org/2000/svg" viewBox="0 0 133 55" width="133" height="55">
	<title>logo-dark-svg</title>
	<defs>
		<linearGradient id="g1" x1="15.1" y1="8.3" x2="15.1" y2="54.4" gradientUnits="userSpaceOnUse">
			<stop offset="0" stop-color="#806bff" stop-opacity="1"/>
			<stop offset="1" stop-color="#806bff" stop-opacity="0"/>
		</linearGradient>
		<linearGradient id="g2" x1="24.3" y1="-0.5" x2="24.3" y2="45.7" gradientUnits="userSpaceOnUse">
			<stop offset="0" stop-color="#806bff" stop-opacity="0"/>
			<stop offset="1" stop-color="#806bff" stop-opacity="1"/>
		</linearGradient>
	</defs>
	<style>
		.s0 { fill: url(#g1) } 
		.s1 { fill: url(#g2) } 
		.s2 { fill: #ffffff } 
		.s3 { fill: #806bff } 
	</style>
	<path id="Layer" class="s0" d="m25 11.2v10.2c0 0.4-0.5 0.7-0.9 0.4l-19.4-13.1c-1.8-1.2-4.3 0.1-4.3 2.3v32c0 1.9 0.5 3.8 1.4 5.5q1.8 3.4 5.6 5c2.5 1 5.5 1.2 8.2 0.5 5.2-1.4 7.6-5.5 7.9-11.6 0-2.5-4.3-3-4.8 0q-0.4 5.7-4.4 6.9c-1.5 0.5-3.1 0.4-4.6-0.2q-2.8-1-3.9-3.4c-0.4-0.9-0.5-1.8-0.5-2.8v-26.2c0-0.7 0.7-1.1 1.3-0.7l19.7 12.9c1.5 1 3.5-0.1 3.5-1.9v-15.9c0-2.8-4.8-3.8-4.8 0.1z"/>
	<path id="Layer" class="s1" d="m14.4 42.7v-10.1c0-0.5 0.5-0.7 0.9-0.5l19.4 13.1c1.8 1.2 4.2-0.1 4.2-2.3v-31.9c0-2-0.4-3.9-1.3-5.6q-1.8-3.3-5.6-4.9c-2.6-1.1-5.5-1.3-8.2-0.6-5.2 1.4-7.6 5.5-8 11.7 0 2.4 4.4 2.9 4.9 0q0.4-5.7 4.4-7c1.5-0.4 3.1-0.3 4.6 0.2q2.8 1 3.9 3.5c0.4 0.8 0.5 1.8 0.5 2.7v26.2c0 0.7-0.7 1.1-1.3 0.8l-19.7-13c-1.5-0.9-3.5 0.1-3.5 2v15.8c0 2.9 4.8 3.8 4.8-0.1z"/>
	<path id="Layer" fill-rule="evenodd" class="s2" d="m63.7 27.3c0 5.1-4.1 9.2-9.1 9.2-5.1 0-9.1-4.1-9.1-9.2 0-5.1 4-9.3 9.1-9.3 5 0 9.1 4.2 9.1 9.3zm-3.3 0c0-3.3-2.6-5.9-5.8-5.9-3.2 0-5.8 2.6-5.8 5.9 0 3.2 2.6 5.8 5.8 5.8 3.2 0 5.8-2.6 5.8-5.8z"/>
	<path id="Layer" fill-rule="evenodd" class="s2" d="m79.8 27.1c3.7 3.1 2.7 7.5-2.1 8.9h-10.7v-17.9l10.7-0.1c4.3 2 4.8 6.3 2.2 9.1zm-1.7 3.6c0-1.1-0.9-2-1.9-2h-6l0.1 3.9h5.9c1 0 1.9-0.8 1.9-1.9zm0.1-7.3c0-1.1-0.9-2-2-2h-5.9l0.1 3.9h5.8c1.1 0 2-0.9 2-1.9z"/>
	<path id="Layer" fill-rule="evenodd" class="s2" d="m98.1 27.1c3.7 3.1 2.7 7.5-2.1 8.9h-10.7v-17.9l10.7-0.1c4.3 2 4.8 6.3 2.1 9.1zm-1.6 3.6c0-1.1-0.9-2-2-2h-5.9l0.1 3.9h5.8c1.1 0 2-0.8 2-1.9zm0-7.3c0-1.1-0.8-2-1.9-2h-5.9l0.1 3.9h5.8c1.1 0 1.9-0.9 1.9-1.9z"/>
	<path id="Layer" class="s2" d="m103.2 18v18h12.6v-3.4h-9.3v-14.6z"/>
	<path id="Layer" class="s3" d="m132 18h-13.3v3.4h13.3z"/>
	<path id="Layer" class="s2" d="m118.7 25.3v10.7h13.4v-3.4h-10.2v-3.9h10.2v-3.4z"/>
</svg>