<svg width="240" height="41" viewBox="0 0 240 41" fill="none" xmlns="http://www.w3.org/2000/svg">
<path d="M45.6863 29.8535L45.6863 11.5456L54.855 16.6312V24.8188L62.1901 28.9381L69.525 24.8188V16.6312L78.6938 11.5456V29.8535L62.1901 39.0074L45.6863 29.8535Z" fill="#E0F8F3"/>
<path fill-rule="evenodd" clip-rule="evenodd" d="M50.2707 14.0885L45.6863 11.5457L62.1901 2.39175L78.6938 11.5457L74.1094 14.0885V27.565L62.1901 34.4305L50.2707 27.565L50.2707 14.0885ZM73.6128 14.3639L69.525 16.6312V16.5803L62.1901 12.461L54.855 16.5803V16.6312L50.7673 14.3639V27.2834L62.1901 33.8628L73.6128 27.2834V14.3639Z" fill="#31D2AC"/>
<path d="M87.481 28.4066V13.028H90.3857V25.7702H97.4274V28.4066H87.481Z" fill="white"/>
<path d="M103.699 28.7142C102.613 28.7142 101.637 28.4946 100.772 28.0551C99.9064 27.6157 99.2243 26.9786 98.7255 26.1438C98.2267 25.309 97.9773 24.3057 97.9773 23.134V22.7824C97.9773 21.6108 98.2267 20.6075 98.7255 19.7726C99.2243 18.9378 99.9064 18.3007 100.772 17.8614C101.637 17.4219 102.613 17.2022 103.699 17.2022C104.784 17.2022 105.76 17.4219 106.625 17.8614C107.491 18.3007 108.173 18.9378 108.672 19.7726C109.17 20.6075 109.42 21.6108 109.42 22.7824V23.134C109.42 24.3057 109.17 25.309 108.672 26.1438C108.173 26.9786 107.491 27.6157 106.625 28.0551C105.76 28.4946 104.784 28.7142 103.699 28.7142ZM103.699 26.2536C104.549 26.2536 105.254 25.9827 105.811 25.4407C106.369 24.8842 106.647 24.0933 106.647 23.068V22.8484C106.647 21.8232 106.369 21.0395 105.811 20.4976C105.268 19.9411 104.564 19.6628 103.699 19.6628C102.848 19.6628 102.144 19.9411 101.586 20.4976C101.029 21.0395 100.75 21.8232 100.75 22.8484V23.068C100.75 24.0933 101.029 24.8842 101.586 25.4407C102.144 25.9827 102.848 26.2536 103.699 26.2536Z" fill="white"/>
<path d="M110.461 23.0022V22.6507C110.461 21.5082 110.688 20.5343 111.143 19.7287C111.598 18.9085 112.199 18.286 112.947 17.8614C113.71 17.4219 114.539 17.2022 115.434 17.2022C116.432 17.2022 117.187 17.378 117.7 17.7295C118.214 18.081 118.588 18.4472 118.823 18.828H119.219V17.5098H121.947V30.34C121.947 31.0869 121.727 31.68 121.287 32.1195C120.847 32.5735 120.26 32.8006 119.527 32.8006H112.221V30.3839H118.559C118.969 30.3839 119.175 30.1642 119.175 29.7248V26.8907H118.779C118.632 27.1251 118.427 27.3667 118.163 27.6157C117.899 27.8501 117.546 28.0478 117.106 28.209C116.666 28.37 116.109 28.4506 115.434 28.4506C114.539 28.4506 113.71 28.2382 112.947 27.8134C112.199 27.374 111.598 26.7516 111.143 25.9461C110.688 25.1259 110.461 24.1446 110.461 23.0022ZM116.226 26.034C117.077 26.034 117.789 25.763 118.361 25.2211C118.933 24.6792 119.219 23.9176 119.219 22.9363V22.7166C119.219 21.7206 118.933 20.959 118.361 20.4318C117.803 19.8899 117.092 19.6189 116.226 19.6189C115.375 19.6189 114.664 19.8899 114.092 20.4318C113.52 20.959 113.233 21.7206 113.233 22.7166V22.9363C113.233 23.9176 113.52 24.6792 114.092 25.2211C114.664 25.763 115.375 26.034 116.226 26.034Z" fill="white"/>
<path d="M129.224 28.7142C128.139 28.7142 127.163 28.4946 126.298 28.0551C125.432 27.6157 124.75 26.9786 124.251 26.1438C123.753 25.309 123.503 24.3057 123.503 23.134V22.7824C123.503 21.6108 123.753 20.6075 124.251 19.7726C124.75 18.9378 125.432 18.3007 126.298 17.8614C127.163 17.4219 128.139 17.2022 129.224 17.2022C130.31 17.2022 131.286 17.4219 132.151 17.8614C133.017 18.3007 133.699 18.9378 134.198 19.7726C134.696 20.6075 134.946 21.6108 134.946 22.7824V23.134C134.946 24.3057 134.696 25.309 134.198 26.1438C133.699 26.9786 133.017 27.6157 132.151 28.0551C131.286 28.4946 130.31 28.7142 129.224 28.7142ZM129.224 26.2536C130.075 26.2536 130.779 25.9827 131.337 25.4407C131.894 24.8842 132.173 24.0933 132.173 23.068V22.8484C132.173 21.8232 131.894 21.0395 131.337 20.4976C130.794 19.9411 130.09 19.6628 129.224 19.6628C128.374 19.6628 127.669 19.9411 127.112 20.4976C126.555 21.0395 126.276 21.8232 126.276 22.8484V23.068C126.276 24.0933 126.555 24.8842 127.112 25.4407C127.669 25.9827 128.374 26.2536 129.224 26.2536Z" fill="white"/>
<path d="M136.515 28.4066V17.5097H139.287V28.4066H136.515ZM137.901 16.2355C137.402 16.2355 136.977 16.0744 136.625 15.7522C136.287 15.4299 136.119 15.0052 136.119 14.478C136.119 13.9507 136.287 13.5259 136.625 13.2037C136.977 12.8815 137.402 12.7204 137.901 12.7204C138.415 12.7204 138.84 12.8815 139.177 13.2037C139.515 13.5259 139.683 13.9507 139.683 14.478C139.683 15.0052 139.515 15.4299 139.177 15.7522C138.84 16.0744 138.415 16.2355 137.901 16.2355Z" fill="white"/>
<path d="M141.37 32.8006V17.5098H144.098V18.828H144.495C144.744 18.4033 145.132 18.0297 145.661 17.7075C146.189 17.3706 146.945 17.2022 147.927 17.2022C148.808 17.2022 149.622 17.4219 150.369 17.8614C151.118 18.286 151.719 18.9158 152.174 19.7507C152.629 20.5855 152.856 21.5961 152.856 22.7824V23.134C152.856 24.3203 152.629 25.3309 152.174 26.1657C151.719 27.0006 151.118 27.6377 150.369 28.0771C149.622 28.5019 148.808 28.7142 147.927 28.7142C147.267 28.7142 146.709 28.6336 146.255 28.4725C145.814 28.3261 145.455 28.1357 145.177 27.9013C144.912 27.6523 144.7 27.4034 144.539 27.1544H144.142V32.8006H141.37ZM147.091 26.2976C147.957 26.2976 148.668 26.0266 149.226 25.4847C149.797 24.9282 150.083 24.1226 150.083 23.068V22.8484C150.083 21.7939 149.797 20.9956 149.226 20.4537C148.654 19.8972 147.942 19.6189 147.091 19.6189C146.24 19.6189 145.528 19.8972 144.956 20.4537C144.384 20.9956 144.098 21.7939 144.098 22.8484V23.068C144.098 24.1226 144.384 24.9282 144.956 25.4847C145.528 26.0266 146.24 26.2976 147.091 26.2976Z" fill="white"/>
<path d="M158.945 28.7142C157.522 28.7142 156.355 28.4067 155.446 27.7915C154.537 27.1763 153.987 26.2976 153.795 25.1551L156.349 24.4961C156.451 25.0087 156.62 25.4115 156.854 25.7044C157.104 25.9973 157.405 26.2097 157.757 26.3415C158.123 26.4586 158.519 26.5173 158.945 26.5173C159.59 26.5173 160.067 26.4074 160.376 26.1877C160.683 25.9534 160.837 25.6678 160.837 25.3309C160.837 24.994 160.691 24.7378 160.397 24.562C160.104 24.3716 159.635 24.2178 158.989 24.1007L158.373 23.9907C157.61 23.8443 156.913 23.6466 156.282 23.3976C155.652 23.134 155.145 22.7751 154.763 22.3211C154.383 21.867 154.192 21.2812 154.192 20.5635C154.192 19.4797 154.588 18.6522 155.38 18.081C156.172 17.4952 157.214 17.2022 158.505 17.2022C159.723 17.2022 160.735 17.4732 161.541 18.0151C162.348 18.557 162.876 19.2674 163.126 20.1462L160.551 20.937C160.434 20.3805 160.192 19.985 159.825 19.7507C159.473 19.5164 159.033 19.3991 158.505 19.3991C157.977 19.3991 157.573 19.4943 157.294 19.6848C157.016 19.8605 156.877 20.1095 156.877 20.4318C156.877 20.7832 157.023 21.0468 157.317 21.2226C157.61 21.3837 158.006 21.5082 158.505 21.5961L159.12 21.706C159.942 21.8524 160.683 22.0501 161.344 22.2991C162.018 22.5335 162.546 22.8776 162.928 23.3317C163.324 23.7711 163.522 24.3716 163.522 25.1332C163.522 26.2756 163.104 27.1617 162.267 27.7915C161.446 28.4067 160.339 28.7142 158.945 28.7142Z" fill="white"/>
<path d="M169.12 28.5823C168.27 28.5823 167.521 28.3919 166.876 28.0112C166.246 27.6157 165.754 27.0738 165.401 26.3854C165.05 25.6971 164.873 24.9061 164.873 24.0127V17.5097H167.646V23.793C167.646 24.6132 167.844 25.2284 168.241 25.6384C168.65 26.0486 169.23 26.2536 169.979 26.2536C170.829 26.2536 171.49 25.9753 171.959 25.4188C172.429 24.8475 172.663 24.0567 172.663 23.0461V17.5097H175.436V28.4066H172.707V26.9786H172.312C172.135 27.3448 171.805 27.7036 171.321 28.055C170.837 28.4066 170.103 28.5823 169.12 28.5823Z" fill="white"/>
<path d="M177.531 28.4067V17.5098H180.259V18.6962H180.656C180.846 18.33 181.162 18.0151 181.601 17.7514C182.042 17.4732 182.621 17.3341 183.341 17.3341C184.118 17.3341 184.741 17.4878 185.211 17.7954C185.68 18.0883 186.039 18.4764 186.289 18.9598H186.685C186.934 18.4911 187.287 18.103 187.742 17.7954C188.196 17.4878 188.842 17.3341 189.678 17.3341C190.352 17.3341 190.961 17.4805 191.504 17.7735C192.061 18.0517 192.502 18.4837 192.825 19.0697C193.161 19.6408 193.33 20.3658 193.33 21.2446V28.4067H190.557V21.4424C190.557 20.8418 190.404 20.3951 190.096 20.1022C189.787 19.7947 189.355 19.6408 188.798 19.6408C188.167 19.6408 187.675 19.8459 187.323 20.256C186.986 20.6514 186.817 21.2226 186.817 21.9696V28.4067H184.044V21.4424C184.044 20.8418 183.89 20.3951 183.583 20.1022C183.274 19.7947 182.842 19.6408 182.284 19.6408C181.653 19.6408 181.162 19.8459 180.81 20.256C180.472 20.6514 180.303 21.2226 180.303 21.9696V28.4067H177.531Z" fill="white"/>
</svg>
