<svg width="240" height="41" viewBox="0 0 240 41" fill="none" xmlns="http://www.w3.org/2000/svg">
<path d="M70.4409 0.906281L42.5002 24.046H61.3663L53.8179 40.8826L82.0055 17.8971H62.356L70.4409 0.906281Z" fill="#6C54FF"/>
<path d="M70.4409 0.906281L57.8201 19.5882L76.5728 19.5882L53.8179 40.8826L82.0055 17.8971L62.356 17.8971L70.4409 0.906281Z" fill="#FFD02C"/>
<path d="M70.4409 0.906281L42.5002 24.046H61.3663L53.8179 40.8826L65.8082 22.3549H48.0787L70.4409 0.906281Z" fill="#31D2AC"/>
<path d="M93.6067 24.5349H98.2769V27.2699H90.0415V12.7245H93.6067V24.5349Z" fill="white"/>
<path d="M104.184 27.2699C103.063 27.2699 102.051 27.0297 101.148 26.5492C100.26 26.0689 99.5554 25.3825 99.0358 24.4904C98.5299 23.5982 98.277 22.555 98.277 21.3608C98.277 20.1804 98.5367 19.144 99.0563 18.2519C99.5759 17.3459 100.287 16.6528 101.189 16.1724C102.092 15.692 103.104 15.4518 104.225 15.4518C105.346 15.4518 106.358 15.692 107.26 16.1724C108.163 16.6528 108.874 17.3459 109.393 18.2519C109.913 19.144 110.173 20.1804 110.173 21.3608C110.173 22.5412 109.906 23.5844 109.373 24.4904C108.853 25.3825 108.135 26.0689 107.219 26.5492C106.317 27.0297 105.305 27.2699 104.184 27.2699ZM104.184 24.2227C104.854 24.2227 105.421 23.9756 105.886 23.4815C106.365 22.9874 106.604 22.2805 106.604 21.3608C106.604 20.4412 106.371 19.7343 105.907 19.2402C105.455 18.746 104.895 18.499 104.225 18.499C103.541 18.499 102.974 18.746 102.523 19.2402C102.071 19.7206 101.846 20.4275 101.846 21.3608C101.846 22.2805 102.064 22.9874 102.502 23.4815C102.953 23.9756 103.514 24.2227 104.184 24.2227Z" fill="white"/>
<path d="M115.141 15.4518C115.935 15.4518 116.629 15.6161 117.221 15.9447C117.827 16.2733 118.292 16.7046 118.615 17.2386V15.6161H122.068V27.0559C122.068 28.1102 121.86 29.0618 121.442 29.9107C121.038 30.7733 120.412 31.4579 119.564 31.9645C118.729 32.4712 117.686 32.7245 116.433 32.7245C114.764 32.7245 113.411 32.3205 112.374 31.5127C111.337 30.7185 110.745 29.6369 110.597 28.2676H114.01C114.118 28.7058 114.373 29.0481 114.777 29.2945C115.181 29.5547 115.679 29.6848 116.272 29.6848C116.986 29.6848 117.551 29.4726 117.968 29.0481C118.399 28.6373 118.615 27.9733 118.615 27.0559V25.4334C118.278 25.9673 117.814 26.4055 117.221 26.7478C116.629 27.0764 115.935 27.2408 115.141 27.2408C114.212 27.2408 113.37 27.0012 112.616 26.5218C111.862 26.0289 111.263 25.3376 110.819 24.4475C110.388 23.5439 110.173 22.5033 110.173 21.3257C110.173 20.1482 110.388 19.1144 110.819 18.2244C111.263 17.3345 111.862 16.6498 112.616 16.1706C113.37 15.6914 114.212 15.4518 115.141 15.4518ZM118.615 21.3462C118.615 20.47 118.372 19.7785 117.888 19.2719C117.416 18.7652 116.837 18.5119 116.151 18.5119C115.464 18.5119 114.878 18.7652 114.394 19.2719C113.922 19.7648 113.687 20.4494 113.687 21.3257C113.687 22.202 113.922 22.9003 114.394 23.4206C114.878 23.9273 115.464 24.1805 116.151 24.1805C116.837 24.1805 117.416 23.9273 117.888 23.4206C118.372 22.914 118.615 22.2225 118.615 21.3462Z" fill="white"/>
<path d="M129.351 27.2699C128.316 27.2699 127.382 27.0297 126.549 26.5492C125.728 26.0689 125.078 25.3825 124.599 24.4904C124.132 23.5982 123.898 22.555 123.898 21.3608C123.898 20.1804 124.138 19.144 124.618 18.2519C125.097 17.3459 125.754 16.6528 126.587 16.1724C127.42 15.692 128.354 15.4518 129.389 15.4518C130.424 15.4518 131.358 15.692 132.191 16.1724C133.024 16.6528 133.68 17.3459 134.159 18.2519C134.639 19.144 134.879 20.1804 134.879 21.3608C134.879 22.5412 134.633 23.5844 134.141 24.4904C133.661 25.3825 132.998 26.0689 132.153 26.5492C131.32 27.0297 130.386 27.2699 129.351 27.2699ZM129.351 24.2227C129.969 24.2227 130.493 23.9756 130.922 23.4815C131.364 22.9874 131.585 22.2805 131.585 21.3608C131.585 20.4412 131.37 19.7343 130.941 19.2402C130.524 18.746 130.007 18.499 129.389 18.499C128.758 18.499 128.234 18.746 127.817 19.2402C127.401 19.7206 127.192 20.4275 127.192 21.3608C127.192 22.2805 127.394 22.9874 127.798 23.4815C128.215 23.9756 128.732 24.2227 129.351 24.2227Z" fill="white"/>
<path d="M138.093 14.6857C137.417 14.6857 136.861 14.5086 136.425 14.1545C136.004 13.7868 135.794 13.3373 135.794 12.8062C135.794 12.2614 136.004 11.812 136.425 11.4579C136.861 11.0901 137.417 10.9063 138.093 10.9063C138.754 10.9063 139.295 11.0901 139.716 11.4579C140.151 11.812 140.369 12.2614 140.369 12.8062C140.369 13.3373 140.151 13.7868 139.716 14.1545C139.295 14.5086 138.754 14.6857 138.093 14.6857ZM140.009 15.8705V27.2699H136.154V15.8705H140.009Z" fill="white"/>
<path d="M145.387 17.2579C145.698 16.7182 146.127 16.2822 146.673 15.95C147.22 15.6178 147.86 15.4518 148.594 15.4518C149.452 15.4518 150.228 15.694 150.924 16.1784C151.62 16.6628 152.167 17.3548 152.565 18.2544C152.975 19.1541 153.18 20.199 153.18 21.3893C153.18 22.5795 152.975 23.6314 152.565 24.5448C152.167 25.4445 151.62 26.1433 150.924 26.6416C150.228 27.1261 149.452 27.3683 148.594 27.3683C147.873 27.3683 147.233 27.2021 146.673 26.87C146.127 26.5378 145.698 26.1088 145.387 25.5828V32.7245H142.199V15.6178H145.387V17.2579ZM149.936 21.3893C149.936 20.5035 149.712 19.8114 149.265 19.3132C148.83 18.8011 148.289 18.545 147.643 18.545C147.009 18.545 146.468 18.8011 146.021 19.3132C145.586 19.8253 145.369 20.5243 145.369 21.41C145.369 22.2958 145.586 22.9947 146.021 23.5068C146.468 24.0189 147.009 24.2749 147.643 24.2749C148.277 24.2749 148.817 24.0189 149.265 23.5068C149.712 22.9809 149.936 22.2751 149.936 21.3893Z" fill="white"/>
<path d="M159.45 27.2699C158.436 27.2699 157.533 27.0984 156.742 26.7552C155.949 26.4121 155.324 25.9453 154.866 25.3551C154.407 24.7512 154.15 24.0786 154.095 23.3373H157.617C157.658 23.7354 157.846 24.058 158.18 24.3051C158.513 24.5522 158.923 24.6757 159.409 24.6757C159.854 24.6757 160.193 24.5933 160.43 24.4286C160.681 24.2502 160.806 24.0237 160.806 23.7492C160.806 23.4197 160.631 23.1795 160.284 23.0285C159.936 22.8638 159.374 22.6854 158.596 22.4932C157.762 22.301 157.068 22.102 156.512 21.8962C155.956 21.6765 155.477 21.3403 155.074 20.8873C154.672 20.4206 154.47 19.7961 154.47 19.0136C154.47 18.3548 154.65 17.7578 155.011 17.2224C155.387 16.6734 155.929 16.241 156.637 15.9253C157.36 15.6096 158.214 15.4518 159.2 15.4518C160.659 15.4518 161.806 15.8086 162.639 16.5224C163.487 17.2361 163.973 18.1833 164.098 19.3637H160.806C160.749 18.9656 160.569 18.6499 160.263 18.4166C159.972 18.1833 159.582 18.0666 159.096 18.0666C158.68 18.0666 158.36 18.1489 158.137 18.3137C157.916 18.4646 157.805 18.6774 157.805 18.9519C157.805 19.2813 157.978 19.5284 158.325 19.6931C158.686 19.8578 159.243 20.0225 159.993 20.1872C160.854 20.4069 161.556 20.6265 162.097 20.8461C162.639 21.052 163.112 21.3952 163.514 21.8755C163.931 22.3423 164.146 22.9736 164.16 23.7697C164.16 24.4424 163.966 25.0463 163.577 25.5816C163.201 26.1032 162.653 26.515 161.931 26.8169C161.222 27.1189 160.395 27.2699 159.45 27.2699Z" fill="white"/>
<path d="M176.056 16.3608V27.1538H172.679V25.6839C172.337 26.161 171.869 26.5478 171.277 26.8444C170.698 27.1281 170.053 27.2699 169.342 27.2699C168.499 27.2699 167.754 27.0895 167.109 26.7284C166.464 26.3544 165.964 25.8192 165.609 25.1229C165.253 24.4266 165.075 23.6078 165.075 22.6665V16.3608H168.433V22.2215C168.433 22.9437 168.624 23.5046 169.005 23.9043C169.387 24.3041 169.901 24.504 170.546 24.504C171.204 24.504 171.724 24.3041 172.106 23.9043C172.489 23.5046 172.679 22.9437 172.679 22.2215V16.3608H176.056Z" fill="white"/>
<path d="M192.456 16.3608C193.875 16.3608 195.001 16.767 195.833 17.5793C196.679 18.3917 197.102 19.5201 197.102 20.9643V27.2699H193.623V21.4091C193.623 20.7128 193.426 20.1778 193.03 19.8038C192.647 19.4169 192.116 19.2235 191.433 19.2235C190.751 19.2235 190.212 19.4169 189.816 19.8038C189.435 20.1778 189.244 20.7128 189.244 21.4091V27.2699H185.764V21.4091C185.764 20.7128 185.567 20.1778 185.171 19.8038C184.789 19.4169 184.257 19.2235 183.575 19.2235C182.893 19.2235 182.354 19.4169 181.958 19.8038C181.577 20.1778 181.386 20.7128 181.386 21.4091V27.2699H177.886V16.4769H181.386V17.8308C181.74 17.3795 182.204 17.0249 182.777 16.767C183.35 16.4962 183.998 16.3608 184.721 16.3608C185.58 16.3608 186.345 16.5349 187.013 16.8831C187.695 17.2312 188.227 17.7277 188.609 18.3724C189.005 17.7793 189.544 17.2957 190.226 16.9217C190.908 16.5478 191.652 16.3608 192.456 16.3608Z" fill="white"/>
</svg>
