<svg width="240" height="41" viewBox="0 0 240 41" fill="none" xmlns="http://www.w3.org/2000/svg">
<path d="M68.5143 27.2699H76.1458L57.241 8.17899H49.6094L68.5143 27.2699Z" fill="#FFE2E2"/>
<path d="M60.59 8.17899L79.806 26.3608V8.17899H74.6058V13.9193L68.5389 8.17899L60.59 8.17899Z" fill="#FF3A3A"/>
<path d="M45.9492 9.0881V27.2699H50.8888V21.5446L56.6515 27.2699H64.2502L45.9492 9.0881Z" fill="#FF3A3A"/>
<path d="M91.6067 24.5349H96.2769V27.2699H88.0415V12.7245H91.6067V24.5349Z" fill="white"/>
<path d="M102.184 27.2699C101.063 27.2699 100.051 27.0297 99.1483 26.5492C98.2595 26.0689 97.5554 25.3825 97.0358 24.4904C96.5299 23.5982 96.277 22.555 96.277 21.3608C96.277 20.1804 96.5367 19.144 97.0563 18.2519C97.5759 17.3459 98.2869 16.6528 99.1893 16.1724C100.092 15.692 101.104 15.4518 102.225 15.4518C103.346 15.4518 104.358 15.692 105.26 16.1724C106.163 16.6528 106.874 17.3459 107.393 18.2519C107.913 19.144 108.173 20.1804 108.173 21.3608C108.173 22.5412 107.906 23.5844 107.373 24.4904C106.853 25.3825 106.135 26.0689 105.219 26.5492C104.317 27.0297 103.305 27.2699 102.184 27.2699ZM102.184 24.2227C102.854 24.2227 103.421 23.9756 103.886 23.4815C104.365 22.9874 104.604 22.2805 104.604 21.3608C104.604 20.4412 104.371 19.7343 103.907 19.2402C103.455 18.746 102.895 18.499 102.225 18.499C101.541 18.499 100.974 18.746 100.523 19.2402C100.071 19.7206 99.8457 20.4275 99.8457 21.3608C99.8457 22.2805 100.064 22.9874 100.502 23.4815C100.953 23.9756 101.514 24.2227 102.184 24.2227Z" fill="white"/>
<path d="M113.141 15.4518C113.935 15.4518 114.629 15.6161 115.221 15.9447C115.827 16.2733 116.292 16.7046 116.615 17.2386V15.6161H120.068V27.0559C120.068 28.1102 119.86 29.0618 119.442 29.9107C119.038 30.7733 118.412 31.4579 117.564 31.9645C116.729 32.4712 115.686 32.7245 114.433 32.7245C112.764 32.7245 111.411 32.3205 110.374 31.5127C109.337 30.7185 108.745 29.6369 108.597 28.2676H112.01C112.118 28.7058 112.373 29.0481 112.777 29.2945C113.181 29.5547 113.679 29.6848 114.272 29.6848C114.986 29.6848 115.551 29.4726 115.968 29.0481C116.399 28.6373 116.615 27.9733 116.615 27.0559V25.4334C116.278 25.9673 115.814 26.4055 115.221 26.7478C114.629 27.0764 113.935 27.2408 113.141 27.2408C112.212 27.2408 111.37 27.0012 110.616 26.5218C109.862 26.0289 109.263 25.3376 108.819 24.4475C108.388 23.5439 108.173 22.5033 108.173 21.3257C108.173 20.1482 108.388 19.1144 108.819 18.2244C109.263 17.3345 109.862 16.6498 110.616 16.1706C111.37 15.6914 112.212 15.4518 113.141 15.4518ZM116.615 21.3462C116.615 20.47 116.372 19.7785 115.888 19.2719C115.416 18.7652 114.837 18.5119 114.151 18.5119C113.464 18.5119 112.878 18.7652 112.394 19.2719C111.922 19.7648 111.687 20.4494 111.687 21.3257C111.687 22.202 111.922 22.9003 112.394 23.4206C112.878 23.9273 113.464 24.1805 114.151 24.1805C114.837 24.1805 115.416 23.9273 115.888 23.4206C116.372 22.914 116.615 22.2225 116.615 21.3462Z" fill="white"/>
<path d="M127.351 27.2699C126.316 27.2699 125.382 27.0297 124.549 26.5492C123.728 26.0689 123.078 25.3825 122.599 24.4904C122.132 23.5982 121.898 22.555 121.898 21.3608C121.898 20.1804 122.138 19.144 122.618 18.2519C123.097 17.3459 123.754 16.6528 124.587 16.1724C125.42 15.692 126.354 15.4518 127.389 15.4518C128.424 15.4518 129.358 15.692 130.191 16.1724C131.024 16.6528 131.68 17.3459 132.159 18.2519C132.639 19.144 132.879 20.1804 132.879 21.3608C132.879 22.5412 132.633 23.5844 132.141 24.4904C131.661 25.3825 130.998 26.0689 130.153 26.5492C129.32 27.0297 128.386 27.2699 127.351 27.2699ZM127.351 24.2227C127.969 24.2227 128.493 23.9756 128.922 23.4815C129.364 22.9874 129.585 22.2805 129.585 21.3608C129.585 20.4412 129.37 19.7343 128.941 19.2402C128.524 18.746 128.007 18.499 127.389 18.499C126.758 18.499 126.234 18.746 125.817 19.2402C125.401 19.7206 125.192 20.4275 125.192 21.3608C125.192 22.2805 125.394 22.9874 125.798 23.4815C126.215 23.9756 126.732 24.2227 127.351 24.2227Z" fill="white"/>
<path d="M136.093 14.6857C135.417 14.6857 134.861 14.5086 134.425 14.1545C134.004 13.7868 133.794 13.3373 133.794 12.8062C133.794 12.2614 134.004 11.812 134.425 11.4579C134.861 11.0901 135.417 10.9063 136.093 10.9063C136.754 10.9063 137.295 11.0901 137.716 11.4579C138.151 11.812 138.369 12.2614 138.369 12.8062C138.369 13.3373 138.151 13.7868 137.716 14.1545C137.295 14.5086 136.754 14.6857 136.093 14.6857ZM138.009 15.8705V27.2699H134.154V15.8705H138.009Z" fill="white"/>
<path d="M143.387 17.2579C143.698 16.7182 144.127 16.2822 144.673 15.95C145.22 15.6178 145.86 15.4518 146.594 15.4518C147.452 15.4518 148.228 15.694 148.924 16.1784C149.62 16.6628 150.167 17.3548 150.565 18.2544C150.975 19.1541 151.18 20.199 151.18 21.3893C151.18 22.5795 150.975 23.6314 150.565 24.5448C150.167 25.4445 149.62 26.1433 148.924 26.6416C148.228 27.1261 147.452 27.3683 146.594 27.3683C145.873 27.3683 145.233 27.2021 144.673 26.87C144.127 26.5378 143.698 26.1088 143.387 25.5828V32.7245H140.199V15.6178H143.387V17.2579ZM147.936 21.3893C147.936 20.5035 147.712 19.8114 147.265 19.3132C146.83 18.8011 146.289 18.545 145.643 18.545C145.009 18.545 144.468 18.8011 144.021 19.3132C143.586 19.8253 143.369 20.5243 143.369 21.41C143.369 22.2958 143.586 22.9947 144.021 23.5068C144.468 24.0189 145.009 24.2749 145.643 24.2749C146.277 24.2749 146.817 24.0189 147.265 23.5068C147.712 22.9809 147.936 22.2751 147.936 21.3893Z" fill="white"/>
<path d="M157.45 27.2699C156.436 27.2699 155.533 27.0984 154.742 26.7552C153.949 26.4121 153.324 25.9453 152.866 25.3551C152.407 24.7512 152.15 24.0786 152.095 23.3373H155.617C155.658 23.7354 155.846 24.058 156.18 24.3051C156.513 24.5522 156.923 24.6757 157.409 24.6757C157.854 24.6757 158.193 24.5933 158.43 24.4286C158.681 24.2502 158.806 24.0237 158.806 23.7492C158.806 23.4197 158.631 23.1795 158.284 23.0285C157.936 22.8638 157.374 22.6854 156.596 22.4932C155.762 22.301 155.068 22.102 154.512 21.8962C153.956 21.6765 153.477 21.3403 153.074 20.8873C152.672 20.4206 152.47 19.7961 152.47 19.0136C152.47 18.3548 152.65 17.7578 153.011 17.2224C153.387 16.6734 153.929 16.241 154.637 15.9253C155.36 15.6096 156.214 15.4518 157.2 15.4518C158.659 15.4518 159.806 15.8086 160.639 16.5224C161.487 17.2361 161.973 18.1833 162.098 19.3637H158.806C158.749 18.9656 158.569 18.6499 158.263 18.4166C157.972 18.1833 157.582 18.0666 157.096 18.0666C156.68 18.0666 156.36 18.1489 156.137 18.3137C155.916 18.4646 155.805 18.6774 155.805 18.9519C155.805 19.2813 155.978 19.5284 156.325 19.6931C156.686 19.8578 157.243 20.0225 157.993 20.1872C158.854 20.4069 159.556 20.6265 160.097 20.8461C160.639 21.052 161.112 21.3952 161.514 21.8755C161.931 22.3423 162.146 22.9736 162.16 23.7697C162.16 24.4424 161.966 25.0463 161.577 25.5816C161.201 26.1032 160.653 26.515 159.931 26.8169C159.222 27.1189 158.395 27.2699 157.45 27.2699Z" fill="white"/>
<path d="M174.056 16.3608V27.1538H170.679V25.6839C170.337 26.161 169.869 26.5478 169.277 26.8444C168.698 27.1281 168.053 27.2699 167.342 27.2699C166.499 27.2699 165.754 27.0895 165.109 26.7284C164.464 26.3544 163.964 25.8192 163.609 25.1229C163.253 24.4266 163.075 23.6078 163.075 22.6665V16.3608H166.433V22.2215C166.433 22.9437 166.624 23.5046 167.005 23.9043C167.387 24.3041 167.901 24.504 168.546 24.504C169.204 24.504 169.724 24.3041 170.106 23.9043C170.489 23.5046 170.679 22.9437 170.679 22.2215V16.3608H174.056Z" fill="white"/>
<path d="M190.456 16.3608C191.875 16.3608 193.001 16.767 193.833 17.5793C194.679 18.3917 195.102 19.5201 195.102 20.9643V27.2699H191.623V21.4091C191.623 20.7128 191.426 20.1778 191.03 19.8038C190.647 19.4169 190.116 19.2235 189.433 19.2235C188.751 19.2235 188.212 19.4169 187.816 19.8038C187.435 20.1778 187.244 20.7128 187.244 21.4091V27.2699H183.764V21.4091C183.764 20.7128 183.567 20.1778 183.171 19.8038C182.789 19.4169 182.257 19.2235 181.575 19.2235C180.893 19.2235 180.354 19.4169 179.958 19.8038C179.577 20.1778 179.386 20.7128 179.386 21.4091V27.2699H175.886V16.4769H179.386V17.8308C179.74 17.3795 180.204 17.0249 180.777 16.767C181.35 16.4962 181.998 16.3608 182.721 16.3608C183.58 16.3608 184.345 16.5349 185.013 16.8831C185.695 17.2312 186.227 17.7277 186.609 18.3724C187.005 17.7793 187.544 17.2957 188.226 16.9217C188.908 16.5478 189.652 16.3608 190.456 16.3608Z" fill="white"/>
</svg>
