<svg width="240" height="41" viewBox="0 0 240 41" fill="none" xmlns="http://www.w3.org/2000/svg">
<path d="M88.8022 28.765H99.5424V25.551H92.6195V13.4452H88.8022V28.765Z" fill="white"/>
<path d="M105.906 26.6223C104.375 26.6223 103.577 25.2939 103.577 23.3012C103.577 21.3086 104.375 19.9587 105.906 19.9587C107.437 19.9587 108.257 21.3086 108.257 23.3012C108.257 25.2939 107.437 26.6223 105.906 26.6223ZM105.927 29.1077C109.486 29.1077 111.815 26.6009 111.815 23.3012C111.815 20.0016 109.486 17.4947 105.927 17.4947C102.39 17.4947 100.018 20.0016 100.018 23.3012C100.018 26.6009 102.39 29.1077 105.927 29.1077Z" fill="white"/>
<path d="M117.974 32.5575C119.614 32.5575 121.059 32.1932 122.029 31.3362C122.913 30.5434 123.496 29.3436 123.496 27.6937V17.7948H120.131V18.9733H120.088C119.441 18.0519 118.449 17.4734 116.982 17.4734C114.243 17.4734 112.346 19.7446 112.346 22.9585C112.346 26.3225 114.653 28.1651 117.133 28.1651C118.471 28.1651 119.312 27.6295 119.959 26.901H120.045V27.9937C120.045 29.3221 119.419 30.0935 117.931 30.0935C116.767 30.0935 116.184 29.6007 115.99 29.0222H112.583C112.928 31.3148 114.934 32.5575 117.974 32.5575ZM117.953 25.5725C116.637 25.5725 115.775 24.5012 115.775 22.8514C115.775 21.1802 116.637 20.1088 117.953 20.1088C119.419 20.1088 120.196 21.3516 120.196 22.83C120.196 24.3727 119.484 25.5725 117.953 25.5725Z" fill="white"/>
<path d="M130.413 26.6223C128.882 26.6223 128.084 25.2939 128.084 23.3012C128.084 21.3086 128.882 19.9587 130.413 19.9587C131.944 19.9587 132.764 21.3086 132.764 23.3012C132.764 25.2939 131.944 26.6223 130.413 26.6223ZM130.435 29.1077C133.993 29.1077 136.323 26.6009 136.323 23.3012C136.323 20.0016 133.993 17.4947 130.435 17.4947C126.898 17.4947 124.526 20.0016 124.526 23.3012C124.526 26.6009 126.898 29.1077 130.435 29.1077Z" fill="white"/>
<path d="M137.349 28.765H140.864V17.7947H137.349V28.765ZM137.349 16.2735H140.864V13.4452H137.349V16.2735Z" fill="white"/>
<path d="M142.389 32.3861H145.905V27.6295H145.948C146.638 28.5508 147.652 29.1079 149.075 29.1079C151.965 29.1079 153.884 26.8367 153.884 23.2799C153.884 19.9803 152.094 17.4734 149.161 17.4734C147.652 17.4734 146.573 18.1376 145.819 19.1232H145.754V17.7948H142.389V32.3861ZM148.169 26.4082C146.66 26.4082 145.797 25.1869 145.797 23.4085C145.797 21.6301 146.573 20.2803 148.105 20.2803C149.614 20.2803 150.326 21.523 150.326 23.4085C150.326 25.2726 149.506 26.4082 148.169 26.4082Z" fill="white"/>
<path d="M159.609 29.1079C162.498 29.1079 164.634 27.8651 164.634 25.4654C164.634 22.6586 162.347 22.1658 160.406 21.8444C159.005 21.5873 157.754 21.4801 157.754 20.7088C157.754 20.0231 158.422 19.7017 159.285 19.7017C160.256 19.7017 160.924 20.0017 161.053 20.9873H164.288C164.116 18.8233 162.434 17.4734 159.307 17.4734C156.697 17.4734 154.54 18.6733 154.54 20.9873C154.54 23.5585 156.589 24.0727 158.509 24.3941C159.975 24.6512 161.312 24.7583 161.312 25.7439C161.312 26.451 160.644 26.8367 159.587 26.8367C158.422 26.8367 157.689 26.301 157.56 25.2083H154.238C154.346 27.6295 156.374 29.1079 159.609 29.1079Z" fill="white"/>
<path d="M169.408 29.0865C170.939 29.0865 171.91 28.4865 172.708 27.4152H172.772V28.7651H176.137V17.7948H172.621V23.9227C172.621 25.2297 171.888 26.1296 170.68 26.1296C169.559 26.1296 169.02 25.4654 169.02 24.2656V17.7948H165.526V24.994C165.526 27.4366 166.863 29.0865 169.408 29.0865Z" fill="white"/>
<path d="M177.666 28.765H181.182V22.6157C181.182 21.3087 181.829 20.3874 182.929 20.3874C183.985 20.3874 184.481 21.073 184.481 22.2515V28.765H187.997V22.6157C187.997 21.3087 188.622 20.3874 189.744 20.3874C190.8 20.3874 191.296 21.073 191.296 22.2515V28.765H194.812V21.6301C194.812 19.1661 193.561 17.4734 191.059 17.4734C189.636 17.4734 188.45 18.0734 187.587 19.4018H187.544C186.983 18.2233 185.883 17.4734 184.438 17.4734C182.842 17.4734 181.785 18.2233 181.095 19.3589H181.031V17.7948H177.666V28.765Z" fill="white"/>
<path fill-rule="evenodd" clip-rule="evenodd" d="M52.8789 6.53341C51.5933 7.42649 50.4308 8.4824 49.4216 9.67104C53.5456 9.29066 58.785 9.91177 64.8679 12.9334C71.3636 16.16 76.5942 16.2691 80.2345 15.5715C79.9041 14.578 79.4883 13.6231 78.9957 12.7153C74.8286 13.152 69.4864 12.574 63.2604 9.4814C59.3069 7.51751 55.8219 6.70852 52.8789 6.53341ZM76.5615 9.27309C73.2707 5.62023 68.4884 3.32138 63.1655 3.32138C61.6024 3.32138 60.0857 3.51967 58.6399 3.89228C60.5981 4.42312 62.6784 5.19973 64.8679 6.28737C69.4262 8.55164 73.3615 9.28069 76.5615 9.27309ZM81.0128 19.059C76.615 19.9218 70.5421 19.7446 63.2604 16.1275C56.4529 12.7459 51.0347 12.7885 47.3805 13.5952C47.1919 13.6368 47.0077 13.6806 46.828 13.7261C46.3495 14.7598 45.9676 15.8469 45.6936 16.9757C45.9863 16.898 46.2887 16.8242 46.6007 16.7553C51.0339 15.7765 57.2977 15.819 64.8679 19.5795C71.6755 22.9611 77.0936 22.9185 80.7479 22.1117C80.8731 22.0841 80.9965 22.0556 81.1178 22.0261C81.1311 21.7446 81.1378 21.4613 81.1378 21.1766C81.1378 20.4601 81.0953 19.7535 81.0128 19.059ZM80.531 25.7942C76.1759 26.5506 70.2798 26.2603 63.2604 22.7735C56.4529 19.3919 51.0347 19.4345 47.3805 20.2413C46.5694 20.4203 45.8397 20.6384 45.196 20.8686C45.1942 20.971 45.1934 21.0737 45.1934 21.1766C45.1934 31.0377 53.2398 39.0318 63.1655 39.0318C71.4841 39.0318 78.4826 33.4171 80.531 25.7942Z" fill="#FFD02C"/>
</svg>
