<svg width="240" height="41" viewBox="0 0 240 41" fill="none" xmlns="http://www.w3.org/2000/svg">
<path d="M67.7237 30.3692L48.2148 16.9996C46.2378 15.6449 46.9099 12.824 49.3751 12.1606L70.1095 6.56974C70.5488 6.41229 71.0194 6.36117 71.4826 6.42065C71.9456 6.48012 72.3877 6.64847 72.7723 6.91171C73.1567 7.17495 73.4725 7.5255 73.6932 7.93426C73.914 8.34301 74.0335 8.79819 74.0418 9.26202L72.8129 28.2214C72.6672 30.4718 69.7007 31.724 67.7237 30.3692Z" fill="#B04AFF"/>
<path d="M61.5362 33.6698L50.0429 11.3397C49.7802 10.8288 49.6646 10.2558 49.7088 9.68384C49.7531 9.11186 49.9554 8.56313 50.2937 8.09817C50.6319 7.63321 51.0928 7.27008 51.6255 7.04882C52.1583 6.82756 52.7422 6.75678 53.3129 6.84427L74.6127 10.1102C75.1031 10.1854 75.5685 10.3752 75.9708 10.6639C76.3729 10.9527 76.7003 11.3321 76.9262 11.7711C77.1519 12.21 77.2697 12.696 77.2696 13.1889C77.2695 13.6819 77.1516 14.1678 76.9258 14.6067L67.1137 33.6709C66.8502 34.1803 66.4505 34.6076 65.9584 34.9059C65.4663 35.2043 64.9011 35.3621 64.3246 35.362C63.7481 35.3619 63.1829 35.2039 62.6909 34.9054C62.199 34.6068 61.7994 34.1793 61.5362 33.6698Z" fill="#FF3AC8"/>
<path d="M73.9896 10.0139L63.3717 8.38583L50.3354 11.9024L55.5388 22.0158L67.7237 30.3692C67.9925 30.5514 68.2882 30.691 68.6002 30.783L73.2283 21.791L73.9896 10.0139Z" fill="#31D2AC"/>
<path d="M127.771 12.6242C127.771 12.2321 127.888 11.8488 128.108 11.5228C128.327 11.1968 128.639 10.9426 129.003 10.7926C129.368 10.6426 129.769 10.6033 130.156 10.6798C130.543 10.7563 130.899 10.9451 131.178 11.2223C131.457 11.4996 131.647 11.8528 131.724 12.2374C131.801 12.622 131.762 13.0206 131.611 13.3828C131.459 13.7451 131.204 14.0547 130.876 14.2725C130.547 14.4904 130.162 14.6066 129.767 14.6066C129.239 14.6013 128.735 14.3907 128.362 14.0201C127.989 13.6494 127.777 13.1483 127.771 12.6242ZM128.104 15.5757H131.431V26.589H128.104V15.5757Z" fill="white"/>
<path d="M145.796 21.0824C145.835 21.8103 145.728 22.5387 145.482 23.2256C145.237 23.9124 144.857 24.5443 144.364 25.0848C143.872 25.6252 143.277 26.0636 142.613 26.3749C141.95 26.686 141.231 26.8638 140.498 26.898C139.881 26.9313 139.265 26.828 138.694 26.5956C138.122 26.3631 137.61 26.0073 137.194 25.554V30.9947H133.869V15.5757H137.194V16.6107C137.61 16.1575 138.122 15.802 138.694 15.5697C139.265 15.3374 139.882 15.2343 140.498 15.2678C141.231 15.3018 141.95 15.4795 142.613 15.7905C143.277 16.1016 143.872 16.54 144.364 17.0804C144.857 17.6208 145.237 18.2524 145.482 18.9393C145.728 19.6261 145.835 20.3544 145.796 21.0824ZM142.47 21.0824C142.457 20.5667 142.292 20.0664 141.994 19.6439C141.696 19.2214 141.279 18.8956 140.796 18.7073C140.313 18.5189 139.784 18.4764 139.277 18.585C138.769 18.6936 138.305 18.9484 137.942 19.3177C137.58 19.687 137.335 20.1543 137.239 20.6611C137.142 21.1679 137.199 21.6918 137.4 22.1671C137.602 22.6423 137.94 23.0479 138.373 23.3331C138.806 23.6183 139.313 23.7703 139.832 23.7703C140.189 23.7863 140.545 23.7271 140.877 23.5968C141.209 23.4664 141.509 23.2677 141.758 23.014C142.007 22.7601 142.199 22.4568 142.322 22.1238C142.445 21.791 142.496 21.436 142.47 21.0824Z" fill="white"/>
<path d="M156.061 23.2831C156.061 25.8166 153.843 26.8959 151.449 26.8959C150.482 26.9829 149.51 26.7794 148.66 26.3119C147.811 25.8446 147.122 25.1346 146.682 24.2738L149.564 22.6446C149.681 23.0425 149.932 23.3884 150.276 23.6243C150.619 23.8603 151.033 23.9721 151.449 23.9411C152.247 23.9411 152.645 23.698 152.645 23.2583C152.645 22.0461 147.191 22.6857 147.191 18.8741C147.191 16.4736 149.23 15.2625 151.541 15.2625C152.408 15.2354 153.266 15.4398 154.026 15.8542C154.787 16.2686 155.421 16.8779 155.864 17.6188L153.027 19.1388C152.903 18.8497 152.696 18.6033 152.431 18.4304C152.167 18.2575 151.858 18.1657 151.541 18.1665C150.965 18.1665 150.61 18.3826 150.61 18.7834C150.607 20.0474 156.061 19.2101 156.061 23.2831Z" fill="white"/>
<path d="M168.215 15.5758V26.5891H164.889V25.5519C164.506 26.0088 164.017 26.3688 163.466 26.6025C162.916 26.836 162.317 26.9366 161.718 26.8959C159.479 26.8959 157.573 25.3099 157.573 22.3356V15.5758H160.899V21.8538C160.87 22.1163 160.901 22.3818 160.987 22.6316C161.073 22.8813 161.212 23.1096 161.396 23.3004C161.579 23.4912 161.802 23.6399 162.049 23.7361C162.297 23.8325 162.562 23.874 162.828 23.8579C164.047 23.8579 164.894 23.1535 164.894 21.5891V15.5758H168.215Z" fill="white"/>
<path d="M187.276 19.8259V26.589H183.95V20.1133C183.95 19.0124 183.417 18.3069 182.354 18.3069C181.245 18.3069 180.625 19.0783 180.625 20.378V26.589H177.298V20.1133C177.298 19.0124 176.767 18.3069 175.702 18.3069C174.594 18.3069 173.973 19.0783 173.973 20.378V26.589H170.647V15.5757H173.978V16.5848C174.323 16.1355 174.775 15.7792 175.294 15.5483C175.813 15.3175 176.383 15.2196 176.949 15.2635C177.518 15.2359 178.086 15.3552 178.595 15.6099C179.103 15.8645 179.537 16.2458 179.854 16.7166C180.222 16.2241 180.711 15.8323 181.273 15.5782C181.835 15.3241 182.454 15.2158 183.069 15.2635C185.614 15.2678 187.276 17.0731 187.276 19.8259Z" fill="white"/>
<path d="M190.093 15.5076C191.457 15.5076 192.562 14.4096 192.562 13.0552C192.562 11.7008 191.457 10.6028 190.093 10.6028C188.73 10.6028 187.625 11.7008 187.625 13.0552C187.625 14.4096 188.73 15.5076 190.093 15.5076Z" fill="white"/>
<path d="M82.3685 10.5099H85.695V26.589H82.3685V10.5099ZM87.5784 21.0824C87.5749 19.9277 87.9161 18.798 88.5591 17.8362C89.2021 16.8744 90.118 16.1237 91.1906 15.6794C92.2634 15.235 93.4446 15.1168 94.585 15.3399C95.7253 15.5629 96.7734 16.117 97.5965 16.9323C98.4195 17.7474 98.9807 18.7868 99.2087 19.9191C99.4368 21.0513 99.3216 22.2252 98.8777 23.2923C98.4338 24.3594 97.6812 25.2716 96.7151 25.9135C95.749 26.5553 94.6129 26.898 93.4507 26.898C92.6788 26.9061 91.913 26.7615 91.198 26.4724C90.4831 26.1833 89.8333 25.7554 89.2866 25.2141C88.7398 24.6726 88.3072 24.0284 88.014 23.319C87.7207 22.6096 87.5727 21.8492 87.5784 21.0824ZM96.004 21.0824C95.9909 20.5842 95.8304 20.1011 95.5424 19.6933C95.2544 19.2854 94.8517 18.9709 94.3848 18.7892C93.9177 18.6076 93.4073 18.5667 92.9171 18.6718C92.4268 18.7768 91.9787 19.0232 91.6286 19.38C91.2786 19.7368 91.0423 20.1882 90.9491 20.6777C90.856 21.1673 90.9102 21.6733 91.105 22.1324C91.2998 22.5915 91.6266 22.9833 92.0444 23.2589C92.4622 23.5345 92.9525 23.6816 93.4539 23.6818C93.7973 23.6915 94.1391 23.6303 94.4575 23.5023C94.776 23.3744 95.0643 23.1822 95.3043 22.9379C95.5443 22.6938 95.7308 22.4028 95.852 22.0835C95.9731 21.764 96.0264 21.4232 96.0083 21.0824H96.004ZM112.587 15.5725V26.0359C112.587 29.7362 109.682 31.2995 106.734 31.2995C105.696 31.3772 104.657 31.1697 103.73 30.6995C102.803 30.2295 102.024 29.5148 101.479 28.6342L104.316 27.0039C104.545 27.4635 104.91 27.8427 105.362 28.0909C105.814 28.3389 106.331 28.444 106.845 28.3922C107.173 28.4366 107.506 28.4074 107.821 28.3066C108.136 28.2058 108.424 28.0362 108.664 27.81C108.904 27.5838 109.09 27.3071 109.208 26.9999C109.326 26.6929 109.373 26.3634 109.346 26.0359V25.0225C108.956 25.4957 108.461 25.8717 107.899 26.1203C107.336 26.3689 106.723 26.4832 106.109 26.454C104.645 26.4087 103.257 25.7995 102.238 24.7552C101.219 23.7109 100.65 22.3137 100.65 20.8593C100.65 19.4048 101.219 18.0076 102.238 16.9633C103.257 15.919 104.645 15.3097 106.109 15.2646C106.723 15.2353 107.336 15.3496 107.899 15.5982C108.461 15.8468 108.956 16.2228 109.346 16.6961V15.5725H112.587ZM109.35 20.8588C109.372 20.3268 109.233 19.8005 108.952 19.3475C108.67 18.8945 108.259 18.5355 107.77 18.3168C107.282 18.098 106.739 18.0294 106.21 18.1198C105.682 18.2102 105.194 18.4555 104.807 18.8241C104.42 19.1927 104.153 19.6678 104.041 20.1882C103.928 20.7087 103.974 21.2507 104.174 21.7448C104.374 22.2387 104.718 22.662 105.162 22.9602C105.606 23.2584 106.13 23.4178 106.665 23.4182C107.015 23.4425 107.365 23.394 107.695 23.2757C108.024 23.1574 108.325 22.9719 108.578 22.731C108.831 22.4903 109.03 22.1996 109.163 21.8778C109.296 21.5558 109.36 21.2098 109.35 20.862V20.8588ZM114.47 21.0748C114.466 19.9201 114.808 18.7904 115.451 17.8287C116.094 16.8668 117.009 16.1162 118.082 15.6718C119.155 15.2274 120.336 15.1093 121.477 15.3323C122.617 15.5553 123.665 16.1095 124.488 16.9247C125.311 17.7398 125.872 18.7793 126.1 19.9115C126.328 21.0437 126.213 22.2177 125.769 23.2847C125.325 24.3518 124.573 25.2641 123.607 25.9059C122.641 26.5478 121.504 26.8905 120.342 26.8905C119.571 26.8986 118.806 26.7541 118.091 26.4654C117.377 26.1769 116.727 25.7497 116.181 25.2091C115.634 24.6685 115.202 24.0252 114.908 23.3166C114.614 22.6081 114.465 21.8486 114.47 21.0824V21.0748ZM122.896 21.0748C122.883 20.5765 122.722 20.0929 122.434 19.6846C122.146 19.2765 121.743 18.9617 121.276 18.7798C120.809 18.5979 120.298 18.5569 119.808 18.6621C119.317 18.7671 118.868 19.0136 118.518 19.3706C118.168 19.7276 117.932 20.1793 117.838 20.6692C117.745 21.159 117.8 21.6654 117.995 22.1246C118.19 22.584 118.517 22.976 118.935 23.2517C119.353 23.5273 119.844 23.6742 120.345 23.6742C120.688 23.6832 121.028 23.6219 121.346 23.4941C121.663 23.3663 121.951 23.1746 122.19 22.9313C122.429 22.688 122.616 22.3982 122.737 22.08C122.859 21.7618 122.913 21.4222 122.896 21.0824V21.0748Z" fill="white"/>
</svg>
