<svg width="56" height="56" viewBox="0 0 56 56" fill="none" xmlns="http://www.w3.org/2000/svg">
<path opacity="0.4" d="M44.4971 46.2466C44.0538 46.2466 43.6104 46.0832 43.2604 45.7332C42.5838 45.0565 42.5838 43.9365 43.2604 43.2599C51.6838 34.8365 51.6838 21.14 43.2604 12.74C42.5838 12.0633 42.5838 10.9433 43.2604 10.2667C43.9371 9.58999 45.0571 9.58999 45.7338 10.2667C55.5104 20.0433 55.5104 35.9565 45.7338 45.7332C45.3838 46.0832 44.9404 46.2466 44.4971 46.2466Z" fill="#B04AFF"/>
<path opacity="0.4" d="M11.5037 46.2466C11.0604 46.2466 10.6171 46.0832 10.2671 45.7332C0.490403 35.9565 0.490403 20.0433 10.2671 10.2667C10.9437 9.58999 12.0637 9.58999 12.7404 10.2667C13.4171 10.9433 13.4171 12.0633 12.7404 12.74C4.31706 21.1633 4.31706 34.8599 12.7404 43.2599C13.4171 43.9365 13.4171 45.0565 12.7404 45.7332C12.3904 46.0832 11.9471 46.2466 11.5037 46.2466Z" fill="#B04AFF"/>
<path opacity="0.4" d="M28.0001 52.9901C25.0834 52.9667 22.3068 52.5 19.7168 51.59C18.8068 51.2633 18.3167 50.2601 18.6434 49.3501C18.9701 48.4401 19.9501 47.95 20.8835 48.2767C23.1235 49.0467 25.5035 49.4667 28.0235 49.4667C30.5201 49.4667 32.9234 49.0467 35.1401 48.2767C36.0501 47.9734 37.0534 48.4401 37.3801 49.3501C37.7067 50.2601 37.2168 51.2633 36.3068 51.59C33.6934 52.5 30.9168 52.9901 28.0001 52.9901Z" fill="#B04AFF"/>
<path opacity="0.4" d="M35.6999 7.7934C35.5133 7.7934 35.3033 7.76997 35.1166 7.69997C32.8766 6.92997 30.4733 6.50995 27.9766 6.50995C25.4799 6.50995 23.1 6.92997 20.86 7.69997C19.95 8.0033 18.9467 7.53673 18.62 6.62673C18.2933 5.71673 18.7833 4.71334 19.6933 4.38668C22.2833 3.47668 25.0833 3.00995 27.9766 3.00995C30.8699 3.00995 33.67 3.47668 36.26 4.38668C37.17 4.71334 37.66 5.71673 37.3333 6.62673C37.1 7.35006 36.4233 7.7934 35.6999 7.7934Z" fill="#B04AFF"/>
<path d="M20.3936 28V24.1034C20.3936 19.2501 23.8236 17.2667 28.0236 19.6934L31.4069 21.6534L34.7903 23.6133C38.9903 26.04 38.9903 30.0068 34.7903 32.4334L31.4069 34.3933L28.0236 36.3534C23.8236 38.7801 20.3936 36.7967 20.3936 31.9434V28Z" fill="#B04AFF"/>
</svg>
