<svg width="56" height="56" viewBox="0 0 56 56" fill="none" xmlns="http://www.w3.org/2000/svg">
<path d="M18.713 10.78H16.2863C12.5763 10.78 11.083 12.18 11.083 15.7267V43.4467H23.9163V15.7267C23.893 12.18 22.3997 10.78 18.713 10.78Z" fill="#31D2AC"/>
<path opacity="0.4" d="M38.547 22.4467H36.1203C32.4103 22.4467 30.917 23.87 30.917 27.3933V43.4467H43.7503V27.3933C43.7503 23.87 42.2337 22.4467 38.547 22.4467Z" fill="#31D2AC"/>
<path d="M6.41699 41.72H49.5837C50.5403 41.72 51.3337 42.5133 51.3337 43.47C51.3337 44.4267 50.5403 45.22 49.5837 45.22H6.41699C5.46033 45.22 4.66699 44.4267 4.66699 43.4467C4.66699 42.4667 5.46033 41.72 6.41699 41.72Z" fill="#31D2AC"/>
</svg>
